G04 #@! TF.GenerationSoftware,KiCad,Pcbnew,(5.1.8)-1*
G04 #@! TF.CreationDate,2021-07-02T01:17:22+09:00*
G04 #@! TF.ProjectId,FMRAMV01L02,464d5241-4d56-4303-914c-30322e6b6963,rev?*
G04 #@! TF.SameCoordinates,PX3072580PY9157080*
G04 #@! TF.FileFunction,Legend,Bot*
G04 #@! TF.FilePolarity,Positive*
%FSLAX46Y46*%
G04 Gerber Fmt 4.6, Leading zero omitted, Abs format (unit mm)*
G04 Created by KiCad (PCBNEW (5.1.8)-1) date 2021-07-02 01:17:22*
%MOMM*%
%LPD*%
G01*
G04 APERTURE LIST*
%ADD10C,0.120000*%
%ADD11C,0.150000*%
G04 APERTURE END LIST*
D10*
X24130000Y16510000D02*
X24130000Y11430000D01*
X49530000Y16510000D02*
X49530000Y11430000D01*
X74930000Y16510000D02*
X74930000Y11430000D01*
D11*
X51252380Y10431786D02*
X50252380Y10431786D01*
X50252380Y10193691D01*
X50300000Y10050834D01*
X50395238Y9955596D01*
X50490476Y9907977D01*
X50680952Y9860358D01*
X50823809Y9860358D01*
X51014285Y9907977D01*
X51109523Y9955596D01*
X51204761Y10050834D01*
X51252380Y10193691D01*
X51252380Y10431786D01*
X50728571Y9098453D02*
X50776190Y8955596D01*
X50823809Y8907977D01*
X50919047Y8860358D01*
X51061904Y8860358D01*
X51157142Y8907977D01*
X51204761Y8955596D01*
X51252380Y9050834D01*
X51252380Y9431786D01*
X50252380Y9431786D01*
X50252380Y9098453D01*
X50300000Y9003215D01*
X50347619Y8955596D01*
X50442857Y8907977D01*
X50538095Y8907977D01*
X50633333Y8955596D01*
X50680952Y9003215D01*
X50728571Y9098453D01*
X50728571Y9431786D01*
X50252380Y8527024D02*
X50252380Y7860358D01*
X51252380Y8288929D01*
X53792380Y10431786D02*
X52792380Y10431786D01*
X52792380Y10193691D01*
X52840000Y10050834D01*
X52935238Y9955596D01*
X53030476Y9907977D01*
X53220952Y9860358D01*
X53363809Y9860358D01*
X53554285Y9907977D01*
X53649523Y9955596D01*
X53744761Y10050834D01*
X53792380Y10193691D01*
X53792380Y10431786D01*
X53268571Y9098453D02*
X53316190Y8955596D01*
X53363809Y8907977D01*
X53459047Y8860358D01*
X53601904Y8860358D01*
X53697142Y8907977D01*
X53744761Y8955596D01*
X53792380Y9050834D01*
X53792380Y9431786D01*
X52792380Y9431786D01*
X52792380Y9098453D01*
X52840000Y9003215D01*
X52887619Y8955596D01*
X52982857Y8907977D01*
X53078095Y8907977D01*
X53173333Y8955596D01*
X53220952Y9003215D01*
X53268571Y9098453D01*
X53268571Y9431786D01*
X52792380Y7955596D02*
X52792380Y8431786D01*
X53268571Y8479405D01*
X53220952Y8431786D01*
X53173333Y8336548D01*
X53173333Y8098453D01*
X53220952Y8003215D01*
X53268571Y7955596D01*
X53363809Y7907977D01*
X53601904Y7907977D01*
X53697142Y7955596D01*
X53744761Y8003215D01*
X53792380Y8098453D01*
X53792380Y8336548D01*
X53744761Y8431786D01*
X53697142Y8479405D01*
X56332380Y10431786D02*
X55332380Y10431786D01*
X55332380Y10193691D01*
X55380000Y10050834D01*
X55475238Y9955596D01*
X55570476Y9907977D01*
X55760952Y9860358D01*
X55903809Y9860358D01*
X56094285Y9907977D01*
X56189523Y9955596D01*
X56284761Y10050834D01*
X56332380Y10193691D01*
X56332380Y10431786D01*
X55808571Y9098453D02*
X55856190Y8955596D01*
X55903809Y8907977D01*
X55999047Y8860358D01*
X56141904Y8860358D01*
X56237142Y8907977D01*
X56284761Y8955596D01*
X56332380Y9050834D01*
X56332380Y9431786D01*
X55332380Y9431786D01*
X55332380Y9098453D01*
X55380000Y9003215D01*
X55427619Y8955596D01*
X55522857Y8907977D01*
X55618095Y8907977D01*
X55713333Y8955596D01*
X55760952Y9003215D01*
X55808571Y9098453D01*
X55808571Y9431786D01*
X55332380Y8527024D02*
X55332380Y7907977D01*
X55713333Y8241310D01*
X55713333Y8098453D01*
X55760952Y8003215D01*
X55808571Y7955596D01*
X55903809Y7907977D01*
X56141904Y7907977D01*
X56237142Y7955596D01*
X56284761Y8003215D01*
X56332380Y8098453D01*
X56332380Y8384167D01*
X56284761Y8479405D01*
X56237142Y8527024D01*
X58872380Y10431786D02*
X57872380Y10431786D01*
X57872380Y10193691D01*
X57920000Y10050834D01*
X58015238Y9955596D01*
X58110476Y9907977D01*
X58300952Y9860358D01*
X58443809Y9860358D01*
X58634285Y9907977D01*
X58729523Y9955596D01*
X58824761Y10050834D01*
X58872380Y10193691D01*
X58872380Y10431786D01*
X58348571Y9098453D02*
X58396190Y8955596D01*
X58443809Y8907977D01*
X58539047Y8860358D01*
X58681904Y8860358D01*
X58777142Y8907977D01*
X58824761Y8955596D01*
X58872380Y9050834D01*
X58872380Y9431786D01*
X57872380Y9431786D01*
X57872380Y9098453D01*
X57920000Y9003215D01*
X57967619Y8955596D01*
X58062857Y8907977D01*
X58158095Y8907977D01*
X58253333Y8955596D01*
X58300952Y9003215D01*
X58348571Y9098453D01*
X58348571Y9431786D01*
X58872380Y7907977D02*
X58872380Y8479405D01*
X58872380Y8193691D02*
X57872380Y8193691D01*
X58015238Y8288929D01*
X58110476Y8384167D01*
X58158095Y8479405D01*
X66206666Y10653929D02*
X66206666Y10177739D01*
X66492380Y10749167D02*
X65492380Y10415834D01*
X66492380Y10082500D01*
X65968571Y9415834D02*
X66016190Y9272977D01*
X66063809Y9225358D01*
X66159047Y9177739D01*
X66301904Y9177739D01*
X66397142Y9225358D01*
X66444761Y9272977D01*
X66492380Y9368215D01*
X66492380Y9749167D01*
X65492380Y9749167D01*
X65492380Y9415834D01*
X65540000Y9320596D01*
X65587619Y9272977D01*
X65682857Y9225358D01*
X65778095Y9225358D01*
X65873333Y9272977D01*
X65920952Y9320596D01*
X65968571Y9415834D01*
X65968571Y9749167D01*
X66492380Y8225358D02*
X66492380Y8796786D01*
X66492380Y8511072D02*
X65492380Y8511072D01*
X65635238Y8606310D01*
X65730476Y8701548D01*
X65778095Y8796786D01*
X66492380Y7749167D02*
X66492380Y7558691D01*
X66444761Y7463453D01*
X66397142Y7415834D01*
X66254285Y7320596D01*
X66063809Y7272977D01*
X65682857Y7272977D01*
X65587619Y7320596D01*
X65540000Y7368215D01*
X65492380Y7463453D01*
X65492380Y7653929D01*
X65540000Y7749167D01*
X65587619Y7796786D01*
X65682857Y7844405D01*
X65920952Y7844405D01*
X66016190Y7796786D01*
X66063809Y7749167D01*
X66111428Y7653929D01*
X66111428Y7463453D01*
X66063809Y7368215D01*
X66016190Y7320596D01*
X65920952Y7272977D01*
X68746666Y10653929D02*
X68746666Y10177739D01*
X69032380Y10749167D02*
X68032380Y10415834D01*
X69032380Y10082500D01*
X68508571Y9415834D02*
X68556190Y9272977D01*
X68603809Y9225358D01*
X68699047Y9177739D01*
X68841904Y9177739D01*
X68937142Y9225358D01*
X68984761Y9272977D01*
X69032380Y9368215D01*
X69032380Y9749167D01*
X68032380Y9749167D01*
X68032380Y9415834D01*
X68080000Y9320596D01*
X68127619Y9272977D01*
X68222857Y9225358D01*
X68318095Y9225358D01*
X68413333Y9272977D01*
X68460952Y9320596D01*
X68508571Y9415834D01*
X68508571Y9749167D01*
X69032380Y8225358D02*
X69032380Y8796786D01*
X69032380Y8511072D02*
X68032380Y8511072D01*
X68175238Y8606310D01*
X68270476Y8701548D01*
X68318095Y8796786D01*
X68032380Y7892024D02*
X68032380Y7225358D01*
X69032380Y7653929D01*
X71286666Y10653929D02*
X71286666Y10177739D01*
X71572380Y10749167D02*
X70572380Y10415834D01*
X71572380Y10082500D01*
X71048571Y9415834D02*
X71096190Y9272977D01*
X71143809Y9225358D01*
X71239047Y9177739D01*
X71381904Y9177739D01*
X71477142Y9225358D01*
X71524761Y9272977D01*
X71572380Y9368215D01*
X71572380Y9749167D01*
X70572380Y9749167D01*
X70572380Y9415834D01*
X70620000Y9320596D01*
X70667619Y9272977D01*
X70762857Y9225358D01*
X70858095Y9225358D01*
X70953333Y9272977D01*
X71000952Y9320596D01*
X71048571Y9415834D01*
X71048571Y9749167D01*
X71572380Y8225358D02*
X71572380Y8796786D01*
X71572380Y8511072D02*
X70572380Y8511072D01*
X70715238Y8606310D01*
X70810476Y8701548D01*
X70858095Y8796786D01*
X70572380Y7320596D02*
X70572380Y7796786D01*
X71048571Y7844405D01*
X71000952Y7796786D01*
X70953333Y7701548D01*
X70953333Y7463453D01*
X71000952Y7368215D01*
X71048571Y7320596D01*
X71143809Y7272977D01*
X71381904Y7272977D01*
X71477142Y7320596D01*
X71524761Y7368215D01*
X71572380Y7463453D01*
X71572380Y7701548D01*
X71524761Y7796786D01*
X71477142Y7844405D01*
X73826666Y10653929D02*
X73826666Y10177739D01*
X74112380Y10749167D02*
X73112380Y10415834D01*
X74112380Y10082500D01*
X73588571Y9415834D02*
X73636190Y9272977D01*
X73683809Y9225358D01*
X73779047Y9177739D01*
X73921904Y9177739D01*
X74017142Y9225358D01*
X74064761Y9272977D01*
X74112380Y9368215D01*
X74112380Y9749167D01*
X73112380Y9749167D01*
X73112380Y9415834D01*
X73160000Y9320596D01*
X73207619Y9272977D01*
X73302857Y9225358D01*
X73398095Y9225358D01*
X73493333Y9272977D01*
X73540952Y9320596D01*
X73588571Y9415834D01*
X73588571Y9749167D01*
X74112380Y8225358D02*
X74112380Y8796786D01*
X74112380Y8511072D02*
X73112380Y8511072D01*
X73255238Y8606310D01*
X73350476Y8701548D01*
X73398095Y8796786D01*
X73112380Y7892024D02*
X73112380Y7272977D01*
X73493333Y7606310D01*
X73493333Y7463453D01*
X73540952Y7368215D01*
X73588571Y7320596D01*
X73683809Y7272977D01*
X73921904Y7272977D01*
X74017142Y7320596D01*
X74064761Y7368215D01*
X74112380Y7463453D01*
X74112380Y7749167D01*
X74064761Y7844405D01*
X74017142Y7892024D01*
X76366666Y10653929D02*
X76366666Y10177739D01*
X76652380Y10749167D02*
X75652380Y10415834D01*
X76652380Y10082500D01*
X76128571Y9415834D02*
X76176190Y9272977D01*
X76223809Y9225358D01*
X76319047Y9177739D01*
X76461904Y9177739D01*
X76557142Y9225358D01*
X76604761Y9272977D01*
X76652380Y9368215D01*
X76652380Y9749167D01*
X75652380Y9749167D01*
X75652380Y9415834D01*
X75700000Y9320596D01*
X75747619Y9272977D01*
X75842857Y9225358D01*
X75938095Y9225358D01*
X76033333Y9272977D01*
X76080952Y9320596D01*
X76128571Y9415834D01*
X76128571Y9749167D01*
X76652380Y8225358D02*
X76652380Y8796786D01*
X76652380Y8511072D02*
X75652380Y8511072D01*
X75795238Y8606310D01*
X75890476Y8701548D01*
X75938095Y8796786D01*
X76652380Y7272977D02*
X76652380Y7844405D01*
X76652380Y7558691D02*
X75652380Y7558691D01*
X75795238Y7653929D01*
X75890476Y7749167D01*
X75938095Y7844405D01*
X78906666Y10336548D02*
X78906666Y9860358D01*
X79192380Y10431786D02*
X78192380Y10098453D01*
X79192380Y9765120D01*
X78668571Y9098453D02*
X78716190Y8955596D01*
X78763809Y8907977D01*
X78859047Y8860358D01*
X79001904Y8860358D01*
X79097142Y8907977D01*
X79144761Y8955596D01*
X79192380Y9050834D01*
X79192380Y9431786D01*
X78192380Y9431786D01*
X78192380Y9098453D01*
X78240000Y9003215D01*
X78287619Y8955596D01*
X78382857Y8907977D01*
X78478095Y8907977D01*
X78573333Y8955596D01*
X78620952Y9003215D01*
X78668571Y9098453D01*
X78668571Y9431786D01*
X79192380Y8384167D02*
X79192380Y8193691D01*
X79144761Y8098453D01*
X79097142Y8050834D01*
X78954285Y7955596D01*
X78763809Y7907977D01*
X78382857Y7907977D01*
X78287619Y7955596D01*
X78240000Y8003215D01*
X78192380Y8098453D01*
X78192380Y8288929D01*
X78240000Y8384167D01*
X78287619Y8431786D01*
X78382857Y8479405D01*
X78620952Y8479405D01*
X78716190Y8431786D01*
X78763809Y8384167D01*
X78811428Y8288929D01*
X78811428Y8098453D01*
X78763809Y8003215D01*
X78716190Y7955596D01*
X78620952Y7907977D01*
X81446666Y10336548D02*
X81446666Y9860358D01*
X81732380Y10431786D02*
X80732380Y10098453D01*
X81732380Y9765120D01*
X81208571Y9098453D02*
X81256190Y8955596D01*
X81303809Y8907977D01*
X81399047Y8860358D01*
X81541904Y8860358D01*
X81637142Y8907977D01*
X81684761Y8955596D01*
X81732380Y9050834D01*
X81732380Y9431786D01*
X80732380Y9431786D01*
X80732380Y9098453D01*
X80780000Y9003215D01*
X80827619Y8955596D01*
X80922857Y8907977D01*
X81018095Y8907977D01*
X81113333Y8955596D01*
X81160952Y9003215D01*
X81208571Y9098453D01*
X81208571Y9431786D01*
X80732380Y8527024D02*
X80732380Y7860358D01*
X81732380Y8288929D01*
X83986666Y10336548D02*
X83986666Y9860358D01*
X84272380Y10431786D02*
X83272380Y10098453D01*
X84272380Y9765120D01*
X83748571Y9098453D02*
X83796190Y8955596D01*
X83843809Y8907977D01*
X83939047Y8860358D01*
X84081904Y8860358D01*
X84177142Y8907977D01*
X84224761Y8955596D01*
X84272380Y9050834D01*
X84272380Y9431786D01*
X83272380Y9431786D01*
X83272380Y9098453D01*
X83320000Y9003215D01*
X83367619Y8955596D01*
X83462857Y8907977D01*
X83558095Y8907977D01*
X83653333Y8955596D01*
X83700952Y9003215D01*
X83748571Y9098453D01*
X83748571Y9431786D01*
X83272380Y7955596D02*
X83272380Y8431786D01*
X83748571Y8479405D01*
X83700952Y8431786D01*
X83653333Y8336548D01*
X83653333Y8098453D01*
X83700952Y8003215D01*
X83748571Y7955596D01*
X83843809Y7907977D01*
X84081904Y7907977D01*
X84177142Y7955596D01*
X84224761Y8003215D01*
X84272380Y8098453D01*
X84272380Y8336548D01*
X84224761Y8431786D01*
X84177142Y8479405D01*
X86526666Y10336548D02*
X86526666Y9860358D01*
X86812380Y10431786D02*
X85812380Y10098453D01*
X86812380Y9765120D01*
X86288571Y9098453D02*
X86336190Y8955596D01*
X86383809Y8907977D01*
X86479047Y8860358D01*
X86621904Y8860358D01*
X86717142Y8907977D01*
X86764761Y8955596D01*
X86812380Y9050834D01*
X86812380Y9431786D01*
X85812380Y9431786D01*
X85812380Y9098453D01*
X85860000Y9003215D01*
X85907619Y8955596D01*
X86002857Y8907977D01*
X86098095Y8907977D01*
X86193333Y8955596D01*
X86240952Y9003215D01*
X86288571Y9098453D01*
X86288571Y9431786D01*
X85812380Y8527024D02*
X85812380Y7907977D01*
X86193333Y8241310D01*
X86193333Y8098453D01*
X86240952Y8003215D01*
X86288571Y7955596D01*
X86383809Y7907977D01*
X86621904Y7907977D01*
X86717142Y7955596D01*
X86764761Y8003215D01*
X86812380Y8098453D01*
X86812380Y8384167D01*
X86764761Y8479405D01*
X86717142Y8527024D01*
X89066666Y10336548D02*
X89066666Y9860358D01*
X89352380Y10431786D02*
X88352380Y10098453D01*
X89352380Y9765120D01*
X88828571Y9098453D02*
X88876190Y8955596D01*
X88923809Y8907977D01*
X89019047Y8860358D01*
X89161904Y8860358D01*
X89257142Y8907977D01*
X89304761Y8955596D01*
X89352380Y9050834D01*
X89352380Y9431786D01*
X88352380Y9431786D01*
X88352380Y9098453D01*
X88400000Y9003215D01*
X88447619Y8955596D01*
X88542857Y8907977D01*
X88638095Y8907977D01*
X88733333Y8955596D01*
X88780952Y9003215D01*
X88828571Y9098453D01*
X88828571Y9431786D01*
X89352380Y7907977D02*
X89352380Y8479405D01*
X89352380Y8193691D02*
X88352380Y8193691D01*
X88495238Y8288929D01*
X88590476Y8384167D01*
X88638095Y8479405D01*
X46172380Y19412977D02*
X45696190Y19746310D01*
X46172380Y19984405D02*
X45172380Y19984405D01*
X45172380Y19603453D01*
X45220000Y19508215D01*
X45267619Y19460596D01*
X45362857Y19412977D01*
X45505714Y19412977D01*
X45600952Y19460596D01*
X45648571Y19508215D01*
X45696190Y19603453D01*
X45696190Y19984405D01*
X45172380Y19079643D02*
X46172380Y18841548D01*
X45458095Y18651072D01*
X46172380Y18460596D01*
X45172380Y18222500D01*
X45648571Y17508215D02*
X45696190Y17365358D01*
X45743809Y17317739D01*
X45839047Y17270120D01*
X45981904Y17270120D01*
X46077142Y17317739D01*
X46124761Y17365358D01*
X46172380Y17460596D01*
X46172380Y17841548D01*
X45172380Y17841548D01*
X45172380Y17508215D01*
X45220000Y17412977D01*
X45267619Y17365358D01*
X45362857Y17317739D01*
X45458095Y17317739D01*
X45553333Y17365358D01*
X45600952Y17412977D01*
X45648571Y17508215D01*
X45648571Y17841548D01*
X47345000Y18952500D02*
X47345000Y18047739D01*
X48188571Y18714405D02*
X48188571Y18381072D01*
X48712380Y18238215D02*
X48712380Y18714405D01*
X47712380Y18714405D01*
X47712380Y18238215D01*
X47345000Y18047739D02*
X47345000Y17047739D01*
X48188571Y17476310D02*
X48236190Y17333453D01*
X48283809Y17285834D01*
X48379047Y17238215D01*
X48521904Y17238215D01*
X48617142Y17285834D01*
X48664761Y17333453D01*
X48712380Y17428691D01*
X48712380Y17809643D01*
X47712380Y17809643D01*
X47712380Y17476310D01*
X47760000Y17381072D01*
X47807619Y17333453D01*
X47902857Y17285834D01*
X47998095Y17285834D01*
X48093333Y17333453D01*
X48140952Y17381072D01*
X48188571Y17476310D01*
X48188571Y17809643D01*
X51252380Y19984405D02*
X50252380Y19984405D01*
X50252380Y19746310D01*
X50300000Y19603453D01*
X50395238Y19508215D01*
X50490476Y19460596D01*
X50680952Y19412977D01*
X50823809Y19412977D01*
X51014285Y19460596D01*
X51109523Y19508215D01*
X51204761Y19603453D01*
X51252380Y19746310D01*
X51252380Y19984405D01*
X50728571Y18651072D02*
X50776190Y18508215D01*
X50823809Y18460596D01*
X50919047Y18412977D01*
X51061904Y18412977D01*
X51157142Y18460596D01*
X51204761Y18508215D01*
X51252380Y18603453D01*
X51252380Y18984405D01*
X50252380Y18984405D01*
X50252380Y18651072D01*
X50300000Y18555834D01*
X50347619Y18508215D01*
X50442857Y18460596D01*
X50538095Y18460596D01*
X50633333Y18508215D01*
X50680952Y18555834D01*
X50728571Y18651072D01*
X50728571Y18984405D01*
X50252380Y17555834D02*
X50252380Y17746310D01*
X50300000Y17841548D01*
X50347619Y17889167D01*
X50490476Y17984405D01*
X50680952Y18032024D01*
X51061904Y18032024D01*
X51157142Y17984405D01*
X51204761Y17936786D01*
X51252380Y17841548D01*
X51252380Y17651072D01*
X51204761Y17555834D01*
X51157142Y17508215D01*
X51061904Y17460596D01*
X50823809Y17460596D01*
X50728571Y17508215D01*
X50680952Y17555834D01*
X50633333Y17651072D01*
X50633333Y17841548D01*
X50680952Y17936786D01*
X50728571Y17984405D01*
X50823809Y18032024D01*
X53792380Y19984405D02*
X52792380Y19984405D01*
X52792380Y19746310D01*
X52840000Y19603453D01*
X52935238Y19508215D01*
X53030476Y19460596D01*
X53220952Y19412977D01*
X53363809Y19412977D01*
X53554285Y19460596D01*
X53649523Y19508215D01*
X53744761Y19603453D01*
X53792380Y19746310D01*
X53792380Y19984405D01*
X53268571Y18651072D02*
X53316190Y18508215D01*
X53363809Y18460596D01*
X53459047Y18412977D01*
X53601904Y18412977D01*
X53697142Y18460596D01*
X53744761Y18508215D01*
X53792380Y18603453D01*
X53792380Y18984405D01*
X52792380Y18984405D01*
X52792380Y18651072D01*
X52840000Y18555834D01*
X52887619Y18508215D01*
X52982857Y18460596D01*
X53078095Y18460596D01*
X53173333Y18508215D01*
X53220952Y18555834D01*
X53268571Y18651072D01*
X53268571Y18984405D01*
X53125714Y17555834D02*
X53792380Y17555834D01*
X52744761Y17793929D02*
X53459047Y18032024D01*
X53459047Y17412977D01*
X56332380Y19984405D02*
X55332380Y19984405D01*
X55332380Y19746310D01*
X55380000Y19603453D01*
X55475238Y19508215D01*
X55570476Y19460596D01*
X55760952Y19412977D01*
X55903809Y19412977D01*
X56094285Y19460596D01*
X56189523Y19508215D01*
X56284761Y19603453D01*
X56332380Y19746310D01*
X56332380Y19984405D01*
X55808571Y18651072D02*
X55856190Y18508215D01*
X55903809Y18460596D01*
X55999047Y18412977D01*
X56141904Y18412977D01*
X56237142Y18460596D01*
X56284761Y18508215D01*
X56332380Y18603453D01*
X56332380Y18984405D01*
X55332380Y18984405D01*
X55332380Y18651072D01*
X55380000Y18555834D01*
X55427619Y18508215D01*
X55522857Y18460596D01*
X55618095Y18460596D01*
X55713333Y18508215D01*
X55760952Y18555834D01*
X55808571Y18651072D01*
X55808571Y18984405D01*
X55427619Y18032024D02*
X55380000Y17984405D01*
X55332380Y17889167D01*
X55332380Y17651072D01*
X55380000Y17555834D01*
X55427619Y17508215D01*
X55522857Y17460596D01*
X55618095Y17460596D01*
X55760952Y17508215D01*
X56332380Y18079643D01*
X56332380Y17460596D01*
X58872380Y19984405D02*
X57872380Y19984405D01*
X57872380Y19746310D01*
X57920000Y19603453D01*
X58015238Y19508215D01*
X58110476Y19460596D01*
X58300952Y19412977D01*
X58443809Y19412977D01*
X58634285Y19460596D01*
X58729523Y19508215D01*
X58824761Y19603453D01*
X58872380Y19746310D01*
X58872380Y19984405D01*
X58348571Y18651072D02*
X58396190Y18508215D01*
X58443809Y18460596D01*
X58539047Y18412977D01*
X58681904Y18412977D01*
X58777142Y18460596D01*
X58824761Y18508215D01*
X58872380Y18603453D01*
X58872380Y18984405D01*
X57872380Y18984405D01*
X57872380Y18651072D01*
X57920000Y18555834D01*
X57967619Y18508215D01*
X58062857Y18460596D01*
X58158095Y18460596D01*
X58253333Y18508215D01*
X58300952Y18555834D01*
X58348571Y18651072D01*
X58348571Y18984405D01*
X57872380Y17793929D02*
X57872380Y17698691D01*
X57920000Y17603453D01*
X57967619Y17555834D01*
X58062857Y17508215D01*
X58253333Y17460596D01*
X58491428Y17460596D01*
X58681904Y17508215D01*
X58777142Y17555834D01*
X58824761Y17603453D01*
X58872380Y17698691D01*
X58872380Y17793929D01*
X58824761Y17889167D01*
X58777142Y17936786D01*
X58681904Y17984405D01*
X58491428Y18032024D01*
X58253333Y18032024D01*
X58062857Y17984405D01*
X57967619Y17936786D01*
X57920000Y17889167D01*
X57872380Y17793929D01*
X62585000Y22762500D02*
X62585000Y21762500D01*
X63952380Y21952977D02*
X63476190Y22286310D01*
X63952380Y22524405D02*
X62952380Y22524405D01*
X62952380Y22143453D01*
X63000000Y22048215D01*
X63047619Y22000596D01*
X63142857Y21952977D01*
X63285714Y21952977D01*
X63380952Y22000596D01*
X63428571Y22048215D01*
X63476190Y22143453D01*
X63476190Y22524405D01*
X62585000Y21762500D02*
X62585000Y20905358D01*
X63666666Y21572024D02*
X63666666Y21095834D01*
X63952380Y21667262D02*
X62952380Y21333929D01*
X63952380Y21000596D01*
X62585000Y20905358D02*
X62585000Y19762500D01*
X63952380Y20667262D02*
X62952380Y20667262D01*
X63666666Y20333929D01*
X62952380Y20000596D01*
X63952380Y20000596D01*
X62585000Y19762500D02*
X62585000Y19286310D01*
X63952380Y19524405D02*
X62952380Y19524405D01*
X62585000Y19286310D02*
X62585000Y18238691D01*
X63952380Y19048215D02*
X62952380Y19048215D01*
X63952380Y18476786D01*
X62952380Y18476786D01*
X62585000Y18238691D02*
X62585000Y17191072D01*
X63952380Y18000596D02*
X62952380Y18000596D01*
X63428571Y18000596D02*
X63428571Y17429167D01*
X63952380Y17429167D02*
X62952380Y17429167D01*
X66206666Y20667024D02*
X66206666Y20190834D01*
X66492380Y20762262D02*
X65492380Y20428929D01*
X66492380Y20095596D01*
X65968571Y19428929D02*
X66016190Y19286072D01*
X66063809Y19238453D01*
X66159047Y19190834D01*
X66301904Y19190834D01*
X66397142Y19238453D01*
X66444761Y19286072D01*
X66492380Y19381310D01*
X66492380Y19762262D01*
X65492380Y19762262D01*
X65492380Y19428929D01*
X65540000Y19333691D01*
X65587619Y19286072D01*
X65682857Y19238453D01*
X65778095Y19238453D01*
X65873333Y19286072D01*
X65920952Y19333691D01*
X65968571Y19428929D01*
X65968571Y19762262D01*
X66492380Y18238453D02*
X66492380Y18809881D01*
X66492380Y18524167D02*
X65492380Y18524167D01*
X65635238Y18619405D01*
X65730476Y18714643D01*
X65778095Y18809881D01*
X65920952Y17667024D02*
X65873333Y17762262D01*
X65825714Y17809881D01*
X65730476Y17857500D01*
X65682857Y17857500D01*
X65587619Y17809881D01*
X65540000Y17762262D01*
X65492380Y17667024D01*
X65492380Y17476548D01*
X65540000Y17381310D01*
X65587619Y17333691D01*
X65682857Y17286072D01*
X65730476Y17286072D01*
X65825714Y17333691D01*
X65873333Y17381310D01*
X65920952Y17476548D01*
X65920952Y17667024D01*
X65968571Y17762262D01*
X66016190Y17809881D01*
X66111428Y17857500D01*
X66301904Y17857500D01*
X66397142Y17809881D01*
X66444761Y17762262D01*
X66492380Y17667024D01*
X66492380Y17476548D01*
X66444761Y17381310D01*
X66397142Y17333691D01*
X66301904Y17286072D01*
X66111428Y17286072D01*
X66016190Y17333691D01*
X65968571Y17381310D01*
X65920952Y17476548D01*
X68746666Y20667024D02*
X68746666Y20190834D01*
X69032380Y20762262D02*
X68032380Y20428929D01*
X69032380Y20095596D01*
X68508571Y19428929D02*
X68556190Y19286072D01*
X68603809Y19238453D01*
X68699047Y19190834D01*
X68841904Y19190834D01*
X68937142Y19238453D01*
X68984761Y19286072D01*
X69032380Y19381310D01*
X69032380Y19762262D01*
X68032380Y19762262D01*
X68032380Y19428929D01*
X68080000Y19333691D01*
X68127619Y19286072D01*
X68222857Y19238453D01*
X68318095Y19238453D01*
X68413333Y19286072D01*
X68460952Y19333691D01*
X68508571Y19428929D01*
X68508571Y19762262D01*
X69032380Y18238453D02*
X69032380Y18809881D01*
X69032380Y18524167D02*
X68032380Y18524167D01*
X68175238Y18619405D01*
X68270476Y18714643D01*
X68318095Y18809881D01*
X68032380Y17381310D02*
X68032380Y17571786D01*
X68080000Y17667024D01*
X68127619Y17714643D01*
X68270476Y17809881D01*
X68460952Y17857500D01*
X68841904Y17857500D01*
X68937142Y17809881D01*
X68984761Y17762262D01*
X69032380Y17667024D01*
X69032380Y17476548D01*
X68984761Y17381310D01*
X68937142Y17333691D01*
X68841904Y17286072D01*
X68603809Y17286072D01*
X68508571Y17333691D01*
X68460952Y17381310D01*
X68413333Y17476548D01*
X68413333Y17667024D01*
X68460952Y17762262D01*
X68508571Y17809881D01*
X68603809Y17857500D01*
X71286666Y20667024D02*
X71286666Y20190834D01*
X71572380Y20762262D02*
X70572380Y20428929D01*
X71572380Y20095596D01*
X71048571Y19428929D02*
X71096190Y19286072D01*
X71143809Y19238453D01*
X71239047Y19190834D01*
X71381904Y19190834D01*
X71477142Y19238453D01*
X71524761Y19286072D01*
X71572380Y19381310D01*
X71572380Y19762262D01*
X70572380Y19762262D01*
X70572380Y19428929D01*
X70620000Y19333691D01*
X70667619Y19286072D01*
X70762857Y19238453D01*
X70858095Y19238453D01*
X70953333Y19286072D01*
X71000952Y19333691D01*
X71048571Y19428929D01*
X71048571Y19762262D01*
X71572380Y18238453D02*
X71572380Y18809881D01*
X71572380Y18524167D02*
X70572380Y18524167D01*
X70715238Y18619405D01*
X70810476Y18714643D01*
X70858095Y18809881D01*
X70905714Y17381310D02*
X71572380Y17381310D01*
X70524761Y17619405D02*
X71239047Y17857500D01*
X71239047Y17238453D01*
X73826666Y20667024D02*
X73826666Y20190834D01*
X74112380Y20762262D02*
X73112380Y20428929D01*
X74112380Y20095596D01*
X73588571Y19428929D02*
X73636190Y19286072D01*
X73683809Y19238453D01*
X73779047Y19190834D01*
X73921904Y19190834D01*
X74017142Y19238453D01*
X74064761Y19286072D01*
X74112380Y19381310D01*
X74112380Y19762262D01*
X73112380Y19762262D01*
X73112380Y19428929D01*
X73160000Y19333691D01*
X73207619Y19286072D01*
X73302857Y19238453D01*
X73398095Y19238453D01*
X73493333Y19286072D01*
X73540952Y19333691D01*
X73588571Y19428929D01*
X73588571Y19762262D01*
X74112380Y18238453D02*
X74112380Y18809881D01*
X74112380Y18524167D02*
X73112380Y18524167D01*
X73255238Y18619405D01*
X73350476Y18714643D01*
X73398095Y18809881D01*
X73207619Y17857500D02*
X73160000Y17809881D01*
X73112380Y17714643D01*
X73112380Y17476548D01*
X73160000Y17381310D01*
X73207619Y17333691D01*
X73302857Y17286072D01*
X73398095Y17286072D01*
X73540952Y17333691D01*
X74112380Y17905120D01*
X74112380Y17286072D01*
X76366666Y20667024D02*
X76366666Y20190834D01*
X76652380Y20762262D02*
X75652380Y20428929D01*
X76652380Y20095596D01*
X76128571Y19428929D02*
X76176190Y19286072D01*
X76223809Y19238453D01*
X76319047Y19190834D01*
X76461904Y19190834D01*
X76557142Y19238453D01*
X76604761Y19286072D01*
X76652380Y19381310D01*
X76652380Y19762262D01*
X75652380Y19762262D01*
X75652380Y19428929D01*
X75700000Y19333691D01*
X75747619Y19286072D01*
X75842857Y19238453D01*
X75938095Y19238453D01*
X76033333Y19286072D01*
X76080952Y19333691D01*
X76128571Y19428929D01*
X76128571Y19762262D01*
X76652380Y18238453D02*
X76652380Y18809881D01*
X76652380Y18524167D02*
X75652380Y18524167D01*
X75795238Y18619405D01*
X75890476Y18714643D01*
X75938095Y18809881D01*
X75652380Y17619405D02*
X75652380Y17524167D01*
X75700000Y17428929D01*
X75747619Y17381310D01*
X75842857Y17333691D01*
X76033333Y17286072D01*
X76271428Y17286072D01*
X76461904Y17333691D01*
X76557142Y17381310D01*
X76604761Y17428929D01*
X76652380Y17524167D01*
X76652380Y17619405D01*
X76604761Y17714643D01*
X76557142Y17762262D01*
X76461904Y17809881D01*
X76271428Y17857500D01*
X76033333Y17857500D01*
X75842857Y17809881D01*
X75747619Y17762262D01*
X75700000Y17714643D01*
X75652380Y17619405D01*
X78906666Y20032024D02*
X78906666Y19555834D01*
X79192380Y20127262D02*
X78192380Y19793929D01*
X79192380Y19460596D01*
X78668571Y18793929D02*
X78716190Y18651072D01*
X78763809Y18603453D01*
X78859047Y18555834D01*
X79001904Y18555834D01*
X79097142Y18603453D01*
X79144761Y18651072D01*
X79192380Y18746310D01*
X79192380Y19127262D01*
X78192380Y19127262D01*
X78192380Y18793929D01*
X78240000Y18698691D01*
X78287619Y18651072D01*
X78382857Y18603453D01*
X78478095Y18603453D01*
X78573333Y18651072D01*
X78620952Y18698691D01*
X78668571Y18793929D01*
X78668571Y19127262D01*
X78620952Y17984405D02*
X78573333Y18079643D01*
X78525714Y18127262D01*
X78430476Y18174881D01*
X78382857Y18174881D01*
X78287619Y18127262D01*
X78240000Y18079643D01*
X78192380Y17984405D01*
X78192380Y17793929D01*
X78240000Y17698691D01*
X78287619Y17651072D01*
X78382857Y17603453D01*
X78430476Y17603453D01*
X78525714Y17651072D01*
X78573333Y17698691D01*
X78620952Y17793929D01*
X78620952Y17984405D01*
X78668571Y18079643D01*
X78716190Y18127262D01*
X78811428Y18174881D01*
X79001904Y18174881D01*
X79097142Y18127262D01*
X79144761Y18079643D01*
X79192380Y17984405D01*
X79192380Y17793929D01*
X79144761Y17698691D01*
X79097142Y17651072D01*
X79001904Y17603453D01*
X78811428Y17603453D01*
X78716190Y17651072D01*
X78668571Y17698691D01*
X78620952Y17793929D01*
X81446666Y20032024D02*
X81446666Y19555834D01*
X81732380Y20127262D02*
X80732380Y19793929D01*
X81732380Y19460596D01*
X81208571Y18793929D02*
X81256190Y18651072D01*
X81303809Y18603453D01*
X81399047Y18555834D01*
X81541904Y18555834D01*
X81637142Y18603453D01*
X81684761Y18651072D01*
X81732380Y18746310D01*
X81732380Y19127262D01*
X80732380Y19127262D01*
X80732380Y18793929D01*
X80780000Y18698691D01*
X80827619Y18651072D01*
X80922857Y18603453D01*
X81018095Y18603453D01*
X81113333Y18651072D01*
X81160952Y18698691D01*
X81208571Y18793929D01*
X81208571Y19127262D01*
X80732380Y17698691D02*
X80732380Y17889167D01*
X80780000Y17984405D01*
X80827619Y18032024D01*
X80970476Y18127262D01*
X81160952Y18174881D01*
X81541904Y18174881D01*
X81637142Y18127262D01*
X81684761Y18079643D01*
X81732380Y17984405D01*
X81732380Y17793929D01*
X81684761Y17698691D01*
X81637142Y17651072D01*
X81541904Y17603453D01*
X81303809Y17603453D01*
X81208571Y17651072D01*
X81160952Y17698691D01*
X81113333Y17793929D01*
X81113333Y17984405D01*
X81160952Y18079643D01*
X81208571Y18127262D01*
X81303809Y18174881D01*
X83986666Y20032024D02*
X83986666Y19555834D01*
X84272380Y20127262D02*
X83272380Y19793929D01*
X84272380Y19460596D01*
X83748571Y18793929D02*
X83796190Y18651072D01*
X83843809Y18603453D01*
X83939047Y18555834D01*
X84081904Y18555834D01*
X84177142Y18603453D01*
X84224761Y18651072D01*
X84272380Y18746310D01*
X84272380Y19127262D01*
X83272380Y19127262D01*
X83272380Y18793929D01*
X83320000Y18698691D01*
X83367619Y18651072D01*
X83462857Y18603453D01*
X83558095Y18603453D01*
X83653333Y18651072D01*
X83700952Y18698691D01*
X83748571Y18793929D01*
X83748571Y19127262D01*
X83605714Y17698691D02*
X84272380Y17698691D01*
X83224761Y17936786D02*
X83939047Y18174881D01*
X83939047Y17555834D01*
X86526666Y20032024D02*
X86526666Y19555834D01*
X86812380Y20127262D02*
X85812380Y19793929D01*
X86812380Y19460596D01*
X86288571Y18793929D02*
X86336190Y18651072D01*
X86383809Y18603453D01*
X86479047Y18555834D01*
X86621904Y18555834D01*
X86717142Y18603453D01*
X86764761Y18651072D01*
X86812380Y18746310D01*
X86812380Y19127262D01*
X85812380Y19127262D01*
X85812380Y18793929D01*
X85860000Y18698691D01*
X85907619Y18651072D01*
X86002857Y18603453D01*
X86098095Y18603453D01*
X86193333Y18651072D01*
X86240952Y18698691D01*
X86288571Y18793929D01*
X86288571Y19127262D01*
X85907619Y18174881D02*
X85860000Y18127262D01*
X85812380Y18032024D01*
X85812380Y17793929D01*
X85860000Y17698691D01*
X85907619Y17651072D01*
X86002857Y17603453D01*
X86098095Y17603453D01*
X86240952Y17651072D01*
X86812380Y18222500D01*
X86812380Y17603453D01*
X89066666Y20032024D02*
X89066666Y19555834D01*
X89352380Y20127262D02*
X88352380Y19793929D01*
X89352380Y19460596D01*
X88828571Y18793929D02*
X88876190Y18651072D01*
X88923809Y18603453D01*
X89019047Y18555834D01*
X89161904Y18555834D01*
X89257142Y18603453D01*
X89304761Y18651072D01*
X89352380Y18746310D01*
X89352380Y19127262D01*
X88352380Y19127262D01*
X88352380Y18793929D01*
X88400000Y18698691D01*
X88447619Y18651072D01*
X88542857Y18603453D01*
X88638095Y18603453D01*
X88733333Y18651072D01*
X88780952Y18698691D01*
X88828571Y18793929D01*
X88828571Y19127262D01*
X88352380Y17936786D02*
X88352380Y17841548D01*
X88400000Y17746310D01*
X88447619Y17698691D01*
X88542857Y17651072D01*
X88733333Y17603453D01*
X88971428Y17603453D01*
X89161904Y17651072D01*
X89257142Y17698691D01*
X89304761Y17746310D01*
X89352380Y17841548D01*
X89352380Y17936786D01*
X89304761Y18032024D01*
X89257142Y18079643D01*
X89161904Y18127262D01*
X88971428Y18174881D01*
X88733333Y18174881D01*
X88542857Y18127262D01*
X88447619Y18079643D01*
X88400000Y18032024D01*
X88352380Y17936786D01*
X96591428Y19984405D02*
X96591428Y19222500D01*
X96972380Y19603453D02*
X96210476Y19603453D01*
X95972380Y18270120D02*
X95972380Y18746310D01*
X96448571Y18793929D01*
X96400952Y18746310D01*
X96353333Y18651072D01*
X96353333Y18412977D01*
X96400952Y18317739D01*
X96448571Y18270120D01*
X96543809Y18222500D01*
X96781904Y18222500D01*
X96877142Y18270120D01*
X96924761Y18317739D01*
X96972380Y18412977D01*
X96972380Y18651072D01*
X96924761Y18746310D01*
X96877142Y18793929D01*
X95972380Y17936786D02*
X96972380Y17603453D01*
X95972380Y17270120D01*
X93480000Y19460596D02*
X93432380Y19555834D01*
X93432380Y19698691D01*
X93480000Y19841548D01*
X93575238Y19936786D01*
X93670476Y19984405D01*
X93860952Y20032024D01*
X94003809Y20032024D01*
X94194285Y19984405D01*
X94289523Y19936786D01*
X94384761Y19841548D01*
X94432380Y19698691D01*
X94432380Y19603453D01*
X94384761Y19460596D01*
X94337142Y19412977D01*
X94003809Y19412977D01*
X94003809Y19603453D01*
X94432380Y18984405D02*
X93432380Y18984405D01*
X94432380Y18412977D01*
X93432380Y18412977D01*
X94432380Y17936786D02*
X93432380Y17936786D01*
X93432380Y17698691D01*
X93480000Y17555834D01*
X93575238Y17460596D01*
X93670476Y17412977D01*
X93860952Y17365358D01*
X94003809Y17365358D01*
X94194285Y17412977D01*
X94289523Y17460596D01*
X94384761Y17555834D01*
X94432380Y17698691D01*
X94432380Y17936786D01*
X60460000Y19460596D02*
X60412380Y19555834D01*
X60412380Y19698691D01*
X60460000Y19841548D01*
X60555238Y19936786D01*
X60650476Y19984405D01*
X60840952Y20032024D01*
X60983809Y20032024D01*
X61174285Y19984405D01*
X61269523Y19936786D01*
X61364761Y19841548D01*
X61412380Y19698691D01*
X61412380Y19603453D01*
X61364761Y19460596D01*
X61317142Y19412977D01*
X60983809Y19412977D01*
X60983809Y19603453D01*
X61412380Y18984405D02*
X60412380Y18984405D01*
X61412380Y18412977D01*
X60412380Y18412977D01*
X61412380Y17936786D02*
X60412380Y17936786D01*
X60412380Y17698691D01*
X60460000Y17555834D01*
X60555238Y17460596D01*
X60650476Y17412977D01*
X60840952Y17365358D01*
X60983809Y17365358D01*
X61174285Y17412977D01*
X61269523Y17460596D01*
X61364761Y17555834D01*
X61412380Y17698691D01*
X61412380Y17936786D01*
X37600000Y19460596D02*
X37552380Y19555834D01*
X37552380Y19698691D01*
X37600000Y19841548D01*
X37695238Y19936786D01*
X37790476Y19984405D01*
X37980952Y20032024D01*
X38123809Y20032024D01*
X38314285Y19984405D01*
X38409523Y19936786D01*
X38504761Y19841548D01*
X38552380Y19698691D01*
X38552380Y19603453D01*
X38504761Y19460596D01*
X38457142Y19412977D01*
X38123809Y19412977D01*
X38123809Y19603453D01*
X38552380Y18984405D02*
X37552380Y18984405D01*
X38552380Y18412977D01*
X37552380Y18412977D01*
X38552380Y17936786D02*
X37552380Y17936786D01*
X37552380Y17698691D01*
X37600000Y17555834D01*
X37695238Y17460596D01*
X37790476Y17412977D01*
X37980952Y17365358D01*
X38123809Y17365358D01*
X38314285Y17412977D01*
X38409523Y17460596D01*
X38504761Y17555834D01*
X38552380Y17698691D01*
X38552380Y17936786D01*
X22360000Y19460596D02*
X22312380Y19555834D01*
X22312380Y19698691D01*
X22360000Y19841548D01*
X22455238Y19936786D01*
X22550476Y19984405D01*
X22740952Y20032024D01*
X22883809Y20032024D01*
X23074285Y19984405D01*
X23169523Y19936786D01*
X23264761Y19841548D01*
X23312380Y19698691D01*
X23312380Y19603453D01*
X23264761Y19460596D01*
X23217142Y19412977D01*
X22883809Y19412977D01*
X22883809Y19603453D01*
X23312380Y18984405D02*
X22312380Y18984405D01*
X23312380Y18412977D01*
X22312380Y18412977D01*
X23312380Y17936786D02*
X22312380Y17936786D01*
X22312380Y17698691D01*
X22360000Y17555834D01*
X22455238Y17460596D01*
X22550476Y17412977D01*
X22740952Y17365358D01*
X22883809Y17365358D01*
X23074285Y17412977D01*
X23169523Y17460596D01*
X23264761Y17555834D01*
X23312380Y17698691D01*
X23312380Y17936786D01*
X22360000Y10003215D02*
X22312380Y10098453D01*
X22312380Y10241310D01*
X22360000Y10384167D01*
X22455238Y10479405D01*
X22550476Y10527024D01*
X22740952Y10574643D01*
X22883809Y10574643D01*
X23074285Y10527024D01*
X23169523Y10479405D01*
X23264761Y10384167D01*
X23312380Y10241310D01*
X23312380Y10146072D01*
X23264761Y10003215D01*
X23217142Y9955596D01*
X22883809Y9955596D01*
X22883809Y10146072D01*
X23312380Y9527024D02*
X22312380Y9527024D01*
X23312380Y8955596D01*
X22312380Y8955596D01*
X23312380Y8479405D02*
X22312380Y8479405D01*
X22312380Y8241310D01*
X22360000Y8098453D01*
X22455238Y8003215D01*
X22550476Y7955596D01*
X22740952Y7907977D01*
X22883809Y7907977D01*
X23074285Y7955596D01*
X23169523Y8003215D01*
X23264761Y8098453D01*
X23312380Y8241310D01*
X23312380Y8479405D01*
X37600000Y10003215D02*
X37552380Y10098453D01*
X37552380Y10241310D01*
X37600000Y10384167D01*
X37695238Y10479405D01*
X37790476Y10527024D01*
X37980952Y10574643D01*
X38123809Y10574643D01*
X38314285Y10527024D01*
X38409523Y10479405D01*
X38504761Y10384167D01*
X38552380Y10241310D01*
X38552380Y10146072D01*
X38504761Y10003215D01*
X38457142Y9955596D01*
X38123809Y9955596D01*
X38123809Y10146072D01*
X38552380Y9527024D02*
X37552380Y9527024D01*
X38552380Y8955596D01*
X37552380Y8955596D01*
X38552380Y8479405D02*
X37552380Y8479405D01*
X37552380Y8241310D01*
X37600000Y8098453D01*
X37695238Y8003215D01*
X37790476Y7955596D01*
X37980952Y7907977D01*
X38123809Y7907977D01*
X38314285Y7955596D01*
X38409523Y8003215D01*
X38504761Y8098453D01*
X38552380Y8241310D01*
X38552380Y8479405D01*
X60460000Y10003215D02*
X60412380Y10098453D01*
X60412380Y10241310D01*
X60460000Y10384167D01*
X60555238Y10479405D01*
X60650476Y10527024D01*
X60840952Y10574643D01*
X60983809Y10574643D01*
X61174285Y10527024D01*
X61269523Y10479405D01*
X61364761Y10384167D01*
X61412380Y10241310D01*
X61412380Y10146072D01*
X61364761Y10003215D01*
X61317142Y9955596D01*
X60983809Y9955596D01*
X60983809Y10146072D01*
X61412380Y9527024D02*
X60412380Y9527024D01*
X61412380Y8955596D01*
X60412380Y8955596D01*
X61412380Y8479405D02*
X60412380Y8479405D01*
X60412380Y8241310D01*
X60460000Y8098453D01*
X60555238Y8003215D01*
X60650476Y7955596D01*
X60840952Y7907977D01*
X60983809Y7907977D01*
X61174285Y7955596D01*
X61269523Y8003215D01*
X61364761Y8098453D01*
X61412380Y8241310D01*
X61412380Y8479405D01*
X93480000Y10003215D02*
X93432380Y10098453D01*
X93432380Y10241310D01*
X93480000Y10384167D01*
X93575238Y10479405D01*
X93670476Y10527024D01*
X93860952Y10574643D01*
X94003809Y10574643D01*
X94194285Y10527024D01*
X94289523Y10479405D01*
X94384761Y10384167D01*
X94432380Y10241310D01*
X94432380Y10146072D01*
X94384761Y10003215D01*
X94337142Y9955596D01*
X94003809Y9955596D01*
X94003809Y10146072D01*
X94432380Y9527024D02*
X93432380Y9527024D01*
X94432380Y8955596D01*
X93432380Y8955596D01*
X94432380Y8479405D02*
X93432380Y8479405D01*
X93432380Y8241310D01*
X93480000Y8098453D01*
X93575238Y8003215D01*
X93670476Y7955596D01*
X93860952Y7907977D01*
X94003809Y7907977D01*
X94194285Y7955596D01*
X94289523Y8003215D01*
X94384761Y8098453D01*
X94432380Y8241310D01*
X94432380Y8479405D01*
X96591428Y10527024D02*
X96591428Y9765120D01*
X96972380Y10146072D02*
X96210476Y10146072D01*
X95972380Y8812739D02*
X95972380Y9288929D01*
X96448571Y9336548D01*
X96400952Y9288929D01*
X96353333Y9193691D01*
X96353333Y8955596D01*
X96400952Y8860358D01*
X96448571Y8812739D01*
X96543809Y8765120D01*
X96781904Y8765120D01*
X96877142Y8812739D01*
X96924761Y8860358D01*
X96972380Y8955596D01*
X96972380Y9193691D01*
X96924761Y9288929D01*
X96877142Y9336548D01*
X95972380Y8479405D02*
X96972380Y8146072D01*
X95972380Y7812739D01*
X99131428Y10527024D02*
X99131428Y9765120D01*
X99512380Y10146072D02*
X98750476Y10146072D01*
X98512380Y8812739D02*
X98512380Y9288929D01*
X98988571Y9336548D01*
X98940952Y9288929D01*
X98893333Y9193691D01*
X98893333Y8955596D01*
X98940952Y8860358D01*
X98988571Y8812739D01*
X99083809Y8765120D01*
X99321904Y8765120D01*
X99417142Y8812739D01*
X99464761Y8860358D01*
X99512380Y8955596D01*
X99512380Y9193691D01*
X99464761Y9288929D01*
X99417142Y9336548D01*
X98512380Y8479405D02*
X99512380Y8146072D01*
X98512380Y7812739D01*
D10*
X100390000Y11370000D02*
X100390000Y13970000D01*
X100390000Y11370000D02*
X18990000Y11370000D01*
X18990000Y11370000D02*
X18990000Y16570000D01*
X97790000Y16570000D02*
X18990000Y16570000D01*
X97790000Y13970000D02*
X97790000Y16570000D01*
X100390000Y13970000D02*
X97790000Y13970000D01*
X100390000Y16570000D02*
X99060000Y16570000D01*
X100390000Y15240000D02*
X100390000Y16570000D01*
X16450000Y59630000D02*
X16450000Y64830000D01*
X24130000Y59630000D02*
X16450000Y59630000D01*
X26730000Y64830000D02*
X16450000Y64830000D01*
X24130000Y59630000D02*
X24130000Y62230000D01*
X24130000Y62230000D02*
X26730000Y62230000D01*
X26730000Y62230000D02*
X26730000Y64830000D01*
X25400000Y59630000D02*
X26730000Y59630000D01*
X26730000Y59630000D02*
X26730000Y60960000D01*
D11*
X102322380Y14303334D02*
X103036666Y14303334D01*
X103179523Y14350953D01*
X103274761Y14446191D01*
X103322380Y14589048D01*
X103322380Y14684286D01*
X103322380Y13303334D02*
X103322380Y13874762D01*
X103322380Y13589048D02*
X102322380Y13589048D01*
X102465238Y13684286D01*
X102560476Y13779524D01*
X102608095Y13874762D01*
X27182380Y62563334D02*
X27896666Y62563334D01*
X28039523Y62610953D01*
X28134761Y62706191D01*
X28182380Y62849048D01*
X28182380Y62944286D01*
X27277619Y62134762D02*
X27230000Y62087143D01*
X27182380Y61991905D01*
X27182380Y61753810D01*
X27230000Y61658572D01*
X27277619Y61610953D01*
X27372857Y61563334D01*
X27468095Y61563334D01*
X27610952Y61610953D01*
X28182380Y62182381D01*
X28182380Y61563334D01*
M02*
