M48
; DRILL file {KiCad (5.1.8)-1} date 07/02/21 01:17:51
; FORMAT={3:3/ absolute / metric / suppress leading zeros}
; #@! TF.CreationDate,2021-07-02T01:17:51+09:00
; #@! TF.GenerationSoftware,Kicad,Pcbnew,(5.1.8)-1
FMAT,2
METRIC,TZ
T1C0.400
T2C0.800
T3C1.000
T4C3.200
%
G90
G05
T1
X16510Y53340
X19050Y44450
X20320Y41910
X20320Y6350
X21590Y39370
X27940Y6350
X28575Y22225
X30480Y91440
X30480Y71120
X33655Y60960
X33655Y53340
X33655Y48260
X38100Y40640
X38100Y35560
X38100Y33020
X38100Y30480
X38100Y26670
X38100Y6350
X43180Y63500
X43180Y53340
X43180Y50800
X43180Y45720
X48260Y6350
X50800Y91440
X50800Y71120
X52070Y30480
X53340Y27940
X54610Y25400
X55880Y29210
X57150Y31750
X58420Y34290
X58420Y6350
X61595Y26670
X62230Y63500
X68580Y6350
X69850Y20320
X71120Y59690
X72390Y53340
X73660Y91440
X73660Y71120
X73660Y57150
X75565Y45720
X75565Y38100
X75565Y22225
X75565Y20320
X76200Y40640
X77470Y48260
X78740Y50800
X78740Y6350
X80010Y54610
X81280Y63500
X81280Y52070
X82550Y49530
X83820Y20320
X88900Y6350
X92710Y23495
X93980Y91440
X93980Y71120
X99060Y6350
X100330Y63500
X104140Y81280
T2
X30480Y63500
X30480Y60960
X30480Y58420
X30480Y55880
X30480Y53340
X30480Y50800
X30480Y48260
X30480Y45720
X30480Y43180
X30480Y40640
X30480Y38100
X30480Y35560
X30480Y33020
X30480Y30480
X30480Y27940
X30480Y25400
X45720Y63500
X45720Y60960
X45720Y58420
X45720Y55880
X45720Y53340
X45720Y50800
X45720Y48260
X45720Y45720
X45720Y43180
X45720Y40640
X45720Y38100
X45720Y35560
X45720Y33020
X45720Y30480
X45720Y27940
X45720Y25400
X102870Y68540
X102870Y66040
X26670Y48260
X26670Y45720
X26670Y43180
X26670Y40640
X26670Y38100
X26670Y35560
X26670Y33020
X26670Y30480
X26670Y27940
X20320Y88860
X20320Y86360
X63500Y88860
X63500Y86360
X68580Y63500
X68580Y60960
X68580Y58420
X68580Y55880
X68580Y53340
X68580Y50800
X68580Y48260
X68580Y45720
X68580Y43180
X68580Y40640
X68580Y38100
X68580Y35560
X68580Y33020
X68580Y30480
X68580Y27940
X68580Y25400
X83820Y63500
X83820Y60960
X83820Y58420
X83820Y55880
X83820Y53340
X83820Y50800
X83820Y48260
X83820Y45720
X83820Y43180
X83820Y40640
X83820Y38100
X83820Y35560
X83820Y33020
X83820Y30480
X83820Y27940
X83820Y25400
X68580Y82550
X68580Y74930
X71120Y82550
X71120Y74930
X73660Y82550
X73660Y74930
X76200Y82550
X76200Y74930
X78740Y82550
X78740Y74930
X81280Y82550
X81280Y74930
X83820Y82550
X83820Y74930
X86360Y82550
X86360Y74930
X88900Y82550
X88900Y74930
X91440Y82550
X91440Y74930
X93980Y82550
X93980Y74930
X96520Y82550
X96520Y74930
X99060Y82550
X99060Y74930
X101600Y82550
X101600Y74930
X64770Y68540
X64770Y66040
X87630Y63500
X87630Y60960
X87630Y58420
X87630Y55880
X87630Y53340
X87630Y50800
X87630Y48260
X87630Y45720
X87630Y43180
X87630Y40640
X87630Y38100
X87630Y35560
X87630Y33020
X87630Y30480
X87630Y27940
X87630Y25400
X102870Y63500
X102870Y60960
X102870Y58420
X102870Y55880
X102870Y53340
X102870Y50800
X102870Y48260
X102870Y45720
X102870Y43180
X102870Y40640
X102870Y38100
X102870Y35560
X102870Y33020
X102870Y30480
X102870Y27940
X102870Y25400
X16510Y48260
X16510Y45720
X16510Y43180
X16510Y40640
X16510Y38100
X16510Y35560
X16510Y33020
X16510Y30480
X16510Y27940
X16510Y25400
X24130Y48260
X24130Y45720
X24130Y43180
X24130Y40640
X24130Y38100
X24130Y35560
X24130Y33020
X24130Y30480
X24130Y27940
X24130Y25400
X83820Y68540
X83820Y66040
X68580Y86360
X68580Y78740
X71120Y86360
X71120Y78740
X73660Y86360
X73660Y78740
X76200Y86360
X76200Y78740
X78740Y86360
X78740Y78740
X81280Y86360
X81280Y78740
X83820Y86360
X83820Y78740
X86360Y86360
X86360Y78740
X88900Y86360
X88900Y78740
X91440Y86360
X91440Y78740
X93980Y86360
X93980Y78740
X96520Y86360
X96520Y78740
X99060Y86360
X99060Y78740
X101600Y86360
X101600Y78740
X49530Y63500
X49530Y60960
X49530Y58420
X49530Y55880
X49530Y53340
X49530Y50800
X49530Y48260
X49530Y45720
X49530Y43180
X49530Y40640
X49530Y38100
X49530Y35560
X49530Y33020
X49530Y30480
X49530Y27940
X49530Y25400
X64770Y63500
X64770Y60960
X64770Y58420
X64770Y55880
X64770Y53340
X64770Y50800
X64770Y48260
X64770Y45720
X64770Y43180
X64770Y40640
X64770Y38100
X64770Y35560
X64770Y33020
X64770Y30480
X64770Y27940
X64770Y25400
X45720Y68540
X45720Y66040
X24130Y53340
X26630Y53340
X25400Y82550
X25400Y74930
X27940Y82550
X27940Y74930
X30480Y82550
X30480Y74930
X33020Y82550
X33020Y74930
X35560Y82550
X35560Y74930
X38100Y82550
X38100Y74930
X40640Y82550
X40640Y74930
X43180Y82550
X43180Y74930
X45720Y82550
X45720Y74930
X48260Y82550
X48260Y74930
X50800Y82550
X50800Y74930
X53340Y82550
X53340Y74930
X55880Y82550
X55880Y74930
X58420Y82550
X58420Y74930
X99060Y21550
X99060Y19050
X25400Y86360
X25400Y78740
X27940Y86360
X27940Y78740
X30480Y86360
X30480Y78740
X33020Y86360
X33020Y78740
X35560Y86360
X35560Y78740
X38100Y86360
X38100Y78740
X40640Y86360
X40640Y78740
X43180Y86360
X43180Y78740
X45720Y86360
X45720Y78740
X48260Y86360
X48260Y78740
X50800Y86360
X50800Y78740
X53340Y86360
X53340Y78740
X55880Y86360
X55880Y78740
X58420Y86360
X58420Y78740
T3
X17780Y63500
X17780Y60960
X20320Y63500
X20320Y60960
X22860Y63500
X22860Y60960
X25400Y63500
X25400Y60960
X17780Y68580
X20320Y68580
X22860Y68580
X25400Y68580
X20320Y15240
X20320Y12700
X22860Y15240
X22860Y12700
X25400Y15240
X25400Y12700
X27940Y15240
X27940Y12700
X30480Y15240
X30480Y12700
X33020Y15240
X33020Y12700
X35560Y15240
X35560Y12700
X38100Y15240
X38100Y12700
X40640Y15240
X40640Y12700
X43180Y15240
X43180Y12700
X45720Y15240
X45720Y12700
X48260Y15240
X48260Y12700
X50800Y15240
X50800Y12700
X53340Y15240
X53340Y12700
X55880Y15240
X55880Y12700
X58420Y15240
X58420Y12700
X60960Y15240
X60960Y12700
X63500Y15240
X63500Y12700
X66040Y15240
X66040Y12700
X68580Y15240
X68580Y12700
X71120Y15240
X71120Y12700
X73660Y15240
X73660Y12700
X76200Y15240
X76200Y12700
X78740Y15240
X78740Y12700
X81280Y15240
X81280Y12700
X83820Y15240
X83820Y12700
X86360Y15240
X86360Y12700
X88900Y15240
X88900Y12700
X91440Y15240
X91440Y12700
X93980Y15240
X93980Y12700
X96520Y15240
X96520Y12700
X99060Y15240
X99060Y12700
T4
X15240Y2540
X104140Y2540
X104140Y91440
X15240Y91440
T0
M30
