G04 #@! TF.GenerationSoftware,KiCad,Pcbnew,(5.1.8)-1*
G04 #@! TF.CreationDate,2021-07-02T01:17:22+09:00*
G04 #@! TF.ProjectId,FMRAMV01L02,464d5241-4d56-4303-914c-30322e6b6963,rev?*
G04 #@! TF.SameCoordinates,PX3072580PY9157080*
G04 #@! TF.FileFunction,Soldermask,Top*
G04 #@! TF.FilePolarity,Negative*
%FSLAX46Y46*%
G04 Gerber Fmt 4.6, Leading zero omitted, Abs format (unit mm)*
G04 Created by KiCad (PCBNEW (5.1.8)-1) date 2021-07-02 01:17:22*
%MOMM*%
%LPD*%
G01*
G04 APERTURE LIST*
%ADD10R,1.600000X2.400000*%
%ADD11O,1.600000X2.400000*%
%ADD12C,1.600000*%
%ADD13O,1.700000X1.700000*%
%ADD14R,1.700000X1.700000*%
%ADD15O,1.600000X1.600000*%
%ADD16R,1.600000X1.600000*%
%ADD17C,3.200000*%
%ADD18C,0.800000*%
G04 APERTURE END LIST*
D10*
X68580000Y74930000D03*
D11*
X101600000Y82550000D03*
X71120000Y74930000D03*
X99060000Y82550000D03*
X73660000Y74930000D03*
X96520000Y82550000D03*
X76200000Y74930000D03*
X93980000Y82550000D03*
X78740000Y74930000D03*
X91440000Y82550000D03*
X81280000Y74930000D03*
X88900000Y82550000D03*
X83820000Y74930000D03*
X86360000Y82550000D03*
X86360000Y74930000D03*
X83820000Y82550000D03*
X88900000Y74930000D03*
X81280000Y82550000D03*
X91440000Y74930000D03*
X78740000Y82550000D03*
X93980000Y74930000D03*
X76200000Y82550000D03*
X96520000Y74930000D03*
X73660000Y82550000D03*
X99060000Y74930000D03*
X71120000Y82550000D03*
X101600000Y74930000D03*
X68580000Y82550000D03*
D10*
X25400000Y74930000D03*
D11*
X58420000Y82550000D03*
X27940000Y74930000D03*
X55880000Y82550000D03*
X30480000Y74930000D03*
X53340000Y82550000D03*
X33020000Y74930000D03*
X50800000Y82550000D03*
X35560000Y74930000D03*
X48260000Y82550000D03*
X38100000Y74930000D03*
X45720000Y82550000D03*
X40640000Y74930000D03*
X43180000Y82550000D03*
X43180000Y74930000D03*
X40640000Y82550000D03*
X45720000Y74930000D03*
X38100000Y82550000D03*
X48260000Y74930000D03*
X35560000Y82550000D03*
X50800000Y74930000D03*
X33020000Y82550000D03*
X53340000Y74930000D03*
X30480000Y82550000D03*
X55880000Y74930000D03*
X27940000Y82550000D03*
X58420000Y74930000D03*
X25400000Y82550000D03*
X25400000Y86360000D03*
X58420000Y78740000D03*
X27940000Y86360000D03*
X55880000Y78740000D03*
X30480000Y86360000D03*
X53340000Y78740000D03*
X33020000Y86360000D03*
X50800000Y78740000D03*
X35560000Y86360000D03*
X48260000Y78740000D03*
X38100000Y86360000D03*
X45720000Y78740000D03*
X40640000Y86360000D03*
X43180000Y78740000D03*
X43180000Y86360000D03*
X40640000Y78740000D03*
X45720000Y86360000D03*
X38100000Y78740000D03*
X48260000Y86360000D03*
X35560000Y78740000D03*
X50800000Y86360000D03*
X33020000Y78740000D03*
X53340000Y86360000D03*
X30480000Y78740000D03*
X55880000Y86360000D03*
X27940000Y78740000D03*
X58420000Y86360000D03*
D10*
X25400000Y78740000D03*
D12*
X20320000Y88860000D03*
X20320000Y86360000D03*
D11*
X68580000Y86360000D03*
X101600000Y78740000D03*
X71120000Y86360000D03*
X99060000Y78740000D03*
X73660000Y86360000D03*
X96520000Y78740000D03*
X76200000Y86360000D03*
X93980000Y78740000D03*
X78740000Y86360000D03*
X91440000Y78740000D03*
X81280000Y86360000D03*
X88900000Y78740000D03*
X83820000Y86360000D03*
X86360000Y78740000D03*
X86360000Y86360000D03*
X83820000Y78740000D03*
X88900000Y86360000D03*
X81280000Y78740000D03*
X91440000Y86360000D03*
X78740000Y78740000D03*
X93980000Y86360000D03*
X76200000Y78740000D03*
X96520000Y86360000D03*
X73660000Y78740000D03*
X99060000Y86360000D03*
X71120000Y78740000D03*
X101600000Y86360000D03*
D10*
X68580000Y78740000D03*
D12*
X63500000Y88860000D03*
X63500000Y86360000D03*
D13*
X17780000Y68580000D03*
X20320000Y68580000D03*
X22860000Y68580000D03*
D14*
X25400000Y68580000D03*
D15*
X45720000Y63500000D03*
X30480000Y25400000D03*
X45720000Y60960000D03*
X30480000Y27940000D03*
X45720000Y58420000D03*
X30480000Y30480000D03*
X45720000Y55880000D03*
X30480000Y33020000D03*
X45720000Y53340000D03*
X30480000Y35560000D03*
X45720000Y50800000D03*
X30480000Y38100000D03*
X45720000Y48260000D03*
X30480000Y40640000D03*
X45720000Y45720000D03*
X30480000Y43180000D03*
X45720000Y43180000D03*
X30480000Y45720000D03*
X45720000Y40640000D03*
X30480000Y48260000D03*
X45720000Y38100000D03*
X30480000Y50800000D03*
X45720000Y35560000D03*
X30480000Y53340000D03*
X45720000Y33020000D03*
X30480000Y55880000D03*
X45720000Y30480000D03*
X30480000Y58420000D03*
X45720000Y27940000D03*
X30480000Y60960000D03*
X45720000Y25400000D03*
D16*
X30480000Y63500000D03*
D17*
X15240000Y91440000D03*
X104140000Y91440000D03*
X104140000Y2540000D03*
X15240000Y2540000D03*
D13*
X20320000Y12700000D03*
X20320000Y15240000D03*
X22860000Y12700000D03*
X22860000Y15240000D03*
X25400000Y12700000D03*
X25400000Y15240000D03*
X27940000Y12700000D03*
X27940000Y15240000D03*
X30480000Y12700000D03*
X30480000Y15240000D03*
X33020000Y12700000D03*
X33020000Y15240000D03*
X35560000Y12700000D03*
X35560000Y15240000D03*
X38100000Y12700000D03*
X38100000Y15240000D03*
X40640000Y12700000D03*
X40640000Y15240000D03*
X43180000Y12700000D03*
X43180000Y15240000D03*
X45720000Y12700000D03*
X45720000Y15240000D03*
X48260000Y12700000D03*
X48260000Y15240000D03*
X50800000Y12700000D03*
X50800000Y15240000D03*
X53340000Y12700000D03*
X53340000Y15240000D03*
X55880000Y12700000D03*
X55880000Y15240000D03*
X58420000Y12700000D03*
X58420000Y15240000D03*
X60960000Y12700000D03*
X60960000Y15240000D03*
X63500000Y12700000D03*
X63500000Y15240000D03*
X66040000Y12700000D03*
X66040000Y15240000D03*
X68580000Y12700000D03*
X68580000Y15240000D03*
X71120000Y12700000D03*
X71120000Y15240000D03*
X73660000Y12700000D03*
X73660000Y15240000D03*
X76200000Y12700000D03*
X76200000Y15240000D03*
X78740000Y12700000D03*
X78740000Y15240000D03*
X81280000Y12700000D03*
X81280000Y15240000D03*
X83820000Y12700000D03*
X83820000Y15240000D03*
X86360000Y12700000D03*
X86360000Y15240000D03*
X88900000Y12700000D03*
X88900000Y15240000D03*
X91440000Y12700000D03*
X91440000Y15240000D03*
X93980000Y12700000D03*
X93980000Y15240000D03*
X96520000Y12700000D03*
X96520000Y15240000D03*
X99060000Y12700000D03*
D14*
X99060000Y15240000D03*
D15*
X64770000Y63500000D03*
X49530000Y25400000D03*
X64770000Y60960000D03*
X49530000Y27940000D03*
X64770000Y58420000D03*
X49530000Y30480000D03*
X64770000Y55880000D03*
X49530000Y33020000D03*
X64770000Y53340000D03*
X49530000Y35560000D03*
X64770000Y50800000D03*
X49530000Y38100000D03*
X64770000Y48260000D03*
X49530000Y40640000D03*
X64770000Y45720000D03*
X49530000Y43180000D03*
X64770000Y43180000D03*
X49530000Y45720000D03*
X64770000Y40640000D03*
X49530000Y48260000D03*
X64770000Y38100000D03*
X49530000Y50800000D03*
X64770000Y35560000D03*
X49530000Y53340000D03*
X64770000Y33020000D03*
X49530000Y55880000D03*
X64770000Y30480000D03*
X49530000Y58420000D03*
X64770000Y27940000D03*
X49530000Y60960000D03*
X64770000Y25400000D03*
D16*
X49530000Y63500000D03*
D15*
X83820000Y63500000D03*
X68580000Y25400000D03*
X83820000Y60960000D03*
X68580000Y27940000D03*
X83820000Y58420000D03*
X68580000Y30480000D03*
X83820000Y55880000D03*
X68580000Y33020000D03*
X83820000Y53340000D03*
X68580000Y35560000D03*
X83820000Y50800000D03*
X68580000Y38100000D03*
X83820000Y48260000D03*
X68580000Y40640000D03*
X83820000Y45720000D03*
X68580000Y43180000D03*
X83820000Y43180000D03*
X68580000Y45720000D03*
X83820000Y40640000D03*
X68580000Y48260000D03*
X83820000Y38100000D03*
X68580000Y50800000D03*
X83820000Y35560000D03*
X68580000Y53340000D03*
X83820000Y33020000D03*
X68580000Y55880000D03*
X83820000Y30480000D03*
X68580000Y58420000D03*
X83820000Y27940000D03*
X68580000Y60960000D03*
X83820000Y25400000D03*
D16*
X68580000Y63500000D03*
D15*
X102870000Y63500000D03*
X87630000Y25400000D03*
X102870000Y60960000D03*
X87630000Y27940000D03*
X102870000Y58420000D03*
X87630000Y30480000D03*
X102870000Y55880000D03*
X87630000Y33020000D03*
X102870000Y53340000D03*
X87630000Y35560000D03*
X102870000Y50800000D03*
X87630000Y38100000D03*
X102870000Y48260000D03*
X87630000Y40640000D03*
X102870000Y45720000D03*
X87630000Y43180000D03*
X102870000Y43180000D03*
X87630000Y45720000D03*
X102870000Y40640000D03*
X87630000Y48260000D03*
X102870000Y38100000D03*
X87630000Y50800000D03*
X102870000Y35560000D03*
X87630000Y53340000D03*
X102870000Y33020000D03*
X87630000Y55880000D03*
X102870000Y30480000D03*
X87630000Y58420000D03*
X102870000Y27940000D03*
X87630000Y60960000D03*
X102870000Y25400000D03*
D16*
X87630000Y63500000D03*
D15*
X24130000Y48260000D03*
X16510000Y25400000D03*
X24130000Y45720000D03*
X16510000Y27940000D03*
X24130000Y43180000D03*
X16510000Y30480000D03*
X24130000Y40640000D03*
X16510000Y33020000D03*
X24130000Y38100000D03*
X16510000Y35560000D03*
X24130000Y35560000D03*
X16510000Y38100000D03*
X24130000Y33020000D03*
X16510000Y40640000D03*
X24130000Y30480000D03*
X16510000Y43180000D03*
X24130000Y27940000D03*
X16510000Y45720000D03*
X24130000Y25400000D03*
D16*
X16510000Y48260000D03*
D15*
X26670000Y27940000D03*
X26670000Y30480000D03*
X26670000Y33020000D03*
X26670000Y35560000D03*
X26670000Y38100000D03*
X26670000Y40640000D03*
X26670000Y43180000D03*
X26670000Y45720000D03*
D16*
X26670000Y48260000D03*
D12*
X99060000Y21550000D03*
D16*
X99060000Y19050000D03*
D12*
X26630000Y53340000D03*
X24130000Y53340000D03*
X45720000Y68540000D03*
X45720000Y66040000D03*
X64770000Y68540000D03*
X64770000Y66040000D03*
X83820000Y68540000D03*
X83820000Y66040000D03*
X102870000Y68540000D03*
X102870000Y66040000D03*
D14*
X25400000Y60960000D03*
D13*
X25400000Y63500000D03*
X22860000Y60960000D03*
X22860000Y63500000D03*
X20320000Y60960000D03*
X20320000Y63500000D03*
X17780000Y60960000D03*
X17780000Y63500000D03*
D18*
X38100000Y40640000D03*
X38100000Y35560000D03*
X38100000Y33020000D03*
X38100000Y30480000D03*
X75565000Y20320000D03*
X83820000Y20320000D03*
X61595000Y26670000D03*
X33655000Y53340000D03*
X43180000Y50800000D03*
X33655000Y48260000D03*
X43180000Y45720000D03*
X33655000Y60960000D03*
X93980000Y91440000D03*
X73660000Y91440000D03*
X50800000Y91440000D03*
X30480000Y91440000D03*
X30480000Y71120000D03*
X50800000Y71120000D03*
X73660000Y71120000D03*
X93980000Y71120000D03*
X104140000Y81280000D03*
X43180000Y63500000D03*
X62230000Y63500000D03*
X81280000Y63500000D03*
X100330000Y63500000D03*
X20320000Y6350000D03*
X27940000Y6350000D03*
X38100000Y6350000D03*
X48260000Y6350000D03*
X58420000Y6350000D03*
X68580000Y6350000D03*
X78740000Y6350000D03*
X88900000Y6350000D03*
X99060000Y6350000D03*
X69850000Y20320000D03*
X38100000Y26670000D03*
X43180000Y53340000D03*
X16510000Y53340000D03*
X52070000Y30480000D03*
X53340000Y27940000D03*
X54610000Y25400000D03*
X55880000Y29210000D03*
X57150000Y31750000D03*
X58420000Y34290000D03*
X71120000Y59690000D03*
X72390000Y53340000D03*
X73660000Y57150000D03*
X75565000Y45720000D03*
X76200000Y40640000D03*
X77470000Y48260000D03*
X78740000Y50800000D03*
X80010000Y54610000D03*
X81280000Y52070000D03*
X82550000Y49530000D03*
X92710000Y23495000D03*
X28575000Y22225000D03*
X75565000Y38100000D03*
X75565000Y22225000D03*
X20320000Y41910000D03*
X21590000Y39370000D03*
X19050000Y44450000D03*
M02*
