G04 #@! TF.GenerationSoftware,KiCad,Pcbnew,8.0.9*
G04 #@! TF.CreationDate,2026-08-25T23:03:36+09:00*
G04 #@! TF.ProjectId,FM11D15D9,464d3131-4431-4354-9439-2e6b69636164,rev?*
G04 #@! TF.SameCoordinates,PX48ab840PY791ddc0*
G04 #@! TF.FileFunction,Copper,L1,Top*
G04 #@! TF.FilePolarity,Positive*
%FSLAX46Y46*%
G04 Gerber Fmt 4.6, Leading zero omitted, Abs format (unit mm)*
G04 Created by KiCad (PCBNEW 8.0.9) date 2026-08-25 23:03:36*
%MOMM*%
%LPD*%
G01*
G04 APERTURE LIST*
G04 #@! TA.AperFunction,SMDPad,CuDef*
%ADD10R,3.480000X1.846667*%
G04 #@! TD*
G04 #@! TA.AperFunction,ComponentPad*
%ADD11R,1.700000X1.700000*%
G04 #@! TD*
G04 #@! TA.AperFunction,ComponentPad*
%ADD12O,1.700000X1.700000*%
G04 #@! TD*
G04 #@! TA.AperFunction,ViaPad*
%ADD13C,0.800000*%
G04 #@! TD*
G04 #@! TA.AperFunction,Conductor*
%ADD14C,0.250000*%
G04 #@! TD*
G04 APERTURE END LIST*
D10*
X1905000Y27475000D03*
X1905000Y24705000D03*
X1905000Y21935000D03*
X1905000Y19165000D03*
X1905000Y16395000D03*
X1905000Y13625000D03*
X1905000Y10855000D03*
X1905000Y8085000D03*
X33655000Y12240000D03*
X33655000Y15010000D03*
X33655000Y17780000D03*
X33655000Y20550000D03*
X33655000Y23320000D03*
D11*
X16510000Y31750000D03*
D12*
X19050000Y31750000D03*
X16510000Y29210000D03*
X19050000Y29210000D03*
X16510000Y26670000D03*
X19050000Y26670000D03*
X19050000Y15240000D03*
X16510000Y15240000D03*
X19050000Y17780000D03*
X16510000Y17780000D03*
X19050000Y20320000D03*
D11*
X16510000Y20320000D03*
X16510000Y8890000D03*
D12*
X19050000Y8890000D03*
X16510000Y6350000D03*
X19050000Y6350000D03*
X16510000Y3810000D03*
X19050000Y3810000D03*
D11*
X7620000Y27940000D03*
D12*
X10160000Y27940000D03*
X7620000Y25400000D03*
X10160000Y25400000D03*
X7620000Y22860000D03*
X10160000Y22860000D03*
X7620000Y20320000D03*
X10160000Y20320000D03*
X7620000Y17780000D03*
X10160000Y17780000D03*
X7620000Y15240000D03*
X10160000Y15240000D03*
X7620000Y12700000D03*
X10160000Y12700000D03*
X7620000Y10160000D03*
X10160000Y10160000D03*
D11*
X27940000Y12700000D03*
D12*
X25400000Y12700000D03*
X27940000Y15240000D03*
X25400000Y15240000D03*
X27940000Y17780000D03*
X25400000Y17780000D03*
X27940000Y20320000D03*
X25400000Y20320000D03*
X27940000Y22860000D03*
X25400000Y22860000D03*
D13*
X17780000Y23495000D03*
X17780000Y12065000D03*
X8890000Y6350000D03*
X8890000Y31750000D03*
X26670000Y26670000D03*
X26670000Y5715000D03*
X22860000Y16510000D03*
X29210000Y19050000D03*
X12065000Y20320000D03*
X8890000Y21590000D03*
X14605000Y25400000D03*
X13335000Y24130000D03*
X8890000Y19050000D03*
X12065000Y13970000D03*
X5715000Y8255000D03*
X23495000Y19050000D03*
X22860000Y22860000D03*
D14*
X8984999Y26764999D02*
X10160000Y27940000D01*
X7245997Y26764999D02*
X8984999Y26764999D01*
X5185998Y24705000D02*
X7245997Y26764999D01*
X1905000Y24705000D02*
X5185998Y24705000D01*
X4155000Y21935000D02*
X7620000Y25400000D01*
X1905000Y21935000D02*
X4155000Y21935000D01*
X8984999Y24224999D02*
X10160000Y25400000D01*
X6444999Y23424001D02*
X7245997Y24224999D01*
X7245997Y24224999D02*
X8984999Y24224999D01*
X6444999Y22888333D02*
X6444999Y23424001D01*
X1905000Y19165000D02*
X4330000Y19165000D01*
X5113333Y19948333D02*
X5113333Y21556667D01*
X4330000Y19165000D02*
X5113333Y19948333D01*
X5113333Y21556667D02*
X6444999Y22888333D01*
X14605000Y8255000D02*
X16510000Y6350000D01*
X14605000Y20955000D02*
X14605000Y8255000D01*
X14605000Y25400000D02*
X14605000Y20955000D01*
X5994988Y19668322D02*
X5994988Y21234988D01*
X5994988Y21234988D02*
X7620000Y22860000D01*
X1905000Y16395000D02*
X3695000Y16395000D01*
X4910833Y17610833D02*
X4910833Y18584167D01*
X3695000Y16395000D02*
X4910833Y17610833D01*
X4910833Y18584167D02*
X5994988Y19668322D01*
X13335000Y24130000D02*
X13335000Y24130000D01*
X15945999Y5174999D02*
X17874999Y5174999D01*
X17874999Y5174999D02*
X19050000Y6350000D01*
X14052999Y7067999D02*
X15945999Y5174999D01*
X14052999Y23412001D02*
X14052999Y7067999D01*
X13335000Y24130000D02*
X14052999Y23412001D01*
X5994988Y18530401D02*
X6444999Y18980411D01*
X3895000Y13625000D02*
X5994988Y15724988D01*
X1905000Y13625000D02*
X3895000Y13625000D01*
X5994988Y15724988D02*
X5994988Y18530401D01*
X10160000Y22225000D02*
X10160000Y22860000D01*
X8820411Y18980411D02*
X8890000Y19050000D01*
X6444999Y18980411D02*
X8820411Y18980411D01*
X28400000Y12240000D02*
X27940000Y12700000D01*
X27940000Y12700000D02*
X28575000Y12700000D01*
X29035000Y12240000D02*
X33655000Y12240000D01*
X28575000Y12700000D02*
X29035000Y12240000D01*
X10160000Y20320000D02*
X10160000Y19685000D01*
X10160000Y19685000D02*
X12065000Y17780000D01*
X12065000Y13970000D02*
X12065000Y17780000D01*
X1905000Y8085000D02*
X5545000Y8085000D01*
X5545000Y8085000D02*
X5715000Y8255000D01*
X5715000Y8255000D02*
X5715000Y8255000D01*
X26764999Y14064999D02*
X25400000Y12700000D01*
X25400000Y12700000D02*
X24224999Y13875001D01*
X17685001Y30385001D02*
X19050000Y31750000D01*
X17685001Y27845001D02*
X17685001Y30385001D01*
X16510000Y26670000D02*
X17685001Y27845001D01*
X30250000Y15010000D02*
X29304999Y14064999D01*
X33655000Y15010000D02*
X30250000Y15010000D01*
X29304999Y14064999D02*
X26764999Y14064999D01*
X23495000Y19050000D02*
X24130000Y18415000D01*
X24130000Y18415000D02*
X24130000Y13970000D01*
X25400000Y12700000D02*
X24130000Y13970000D01*
X27940000Y15240000D02*
X29210000Y15240000D01*
X31750000Y17780000D02*
X33655000Y17780000D01*
X29210000Y15240000D02*
X31750000Y17780000D01*
X26575001Y16415001D02*
X25400000Y15240000D01*
X26575001Y16415001D02*
X29115001Y16415001D01*
X29115001Y16415001D02*
X31115000Y18415000D01*
X31665000Y20550000D02*
X33655000Y20550000D01*
X31115000Y20000000D02*
X31665000Y20550000D01*
X31115000Y18415000D02*
X31115000Y20000000D01*
X17685001Y18955001D02*
X19050000Y20320000D01*
X17685001Y16415001D02*
X17685001Y18955001D01*
X16510000Y15240000D02*
X17685001Y16415001D01*
X20225001Y6914001D02*
X20225001Y4985001D01*
X19614001Y7525001D02*
X20225001Y6914001D01*
X20225001Y4985001D02*
X19050000Y3810000D01*
X17874999Y7525001D02*
X19614001Y7525001D01*
X16510000Y8890000D02*
X17874999Y7525001D01*
X26764999Y21495001D02*
X27940000Y20320000D01*
X26764999Y23234003D02*
X26764999Y21495001D01*
X18415000Y10795000D02*
X19685000Y10795000D01*
X19685000Y10795000D02*
X20955000Y12065000D01*
X16510000Y8890000D02*
X18415000Y10795000D01*
X22777001Y24047001D02*
X20955000Y22225000D01*
X25952001Y24047001D02*
X22777001Y24047001D01*
X20955000Y12065000D02*
X20955000Y22225000D01*
X25952001Y24047001D02*
X26764999Y23234003D01*
X22860000Y22860000D02*
X22860000Y22860000D01*
X21590000Y21590000D02*
X22860000Y22860000D01*
X21590000Y11430000D02*
X21590000Y21590000D01*
X19050000Y8890000D02*
X21590000Y11430000D01*
G04 #@! TA.AperFunction,Conductor*
G36*
X35248121Y35285998D02*
G01*
X35294614Y35232342D01*
X35306000Y35180000D01*
X35306000Y24877334D01*
X35285998Y24809213D01*
X35232342Y24762720D01*
X35180000Y24751334D01*
X33909000Y24751334D01*
X33909000Y23446000D01*
X33888998Y23377879D01*
X33835342Y23331386D01*
X33783000Y23320000D01*
X33655000Y23320000D01*
X33655000Y23192000D01*
X33634998Y23123879D01*
X33581342Y23077386D01*
X33529000Y23066000D01*
X31407000Y23066000D01*
X31407000Y22348069D01*
X31413505Y22287573D01*
X31464555Y22150702D01*
X31464555Y22150701D01*
X31552095Y22033762D01*
X31669034Y21946222D01*
X31756416Y21913631D01*
X31813252Y21871085D01*
X31838063Y21804565D01*
X31822972Y21735190D01*
X31782388Y21690811D01*
X31731515Y21656818D01*
X31675266Y21572637D01*
X31660500Y21498404D01*
X31660500Y21038365D01*
X31640498Y20970244D01*
X31586842Y20923751D01*
X31567113Y20916659D01*
X31547722Y20911464D01*
X31518513Y20903637D01*
X31431984Y20853679D01*
X31431979Y20853675D01*
X31406488Y20828183D01*
X31361324Y20783019D01*
X31361322Y20783017D01*
X30881983Y20303678D01*
X30881981Y20303676D01*
X30850124Y20271819D01*
X30811325Y20233021D01*
X30811321Y20233016D01*
X30761362Y20146484D01*
X30761363Y20146484D01*
X30761362Y20146480D01*
X30735499Y20049964D01*
X30735499Y19939888D01*
X30735500Y19939875D01*
X30735500Y18624384D01*
X30715498Y18556263D01*
X30698595Y18535289D01*
X29460147Y17296842D01*
X29397835Y17262816D01*
X29327019Y17267881D01*
X29270184Y17310428D01*
X29245373Y17376948D01*
X29248908Y17416869D01*
X29276544Y17526000D01*
X28370703Y17526000D01*
X28405925Y17587007D01*
X28440000Y17714174D01*
X28440000Y17845826D01*
X28405925Y17972993D01*
X28370703Y18034000D01*
X29276544Y18034000D01*
X29276544Y18034001D01*
X29228823Y18222450D01*
X29228820Y18222457D01*
X29138419Y18428549D01*
X29015325Y18616959D01*
X28862902Y18782535D01*
X28685301Y18920768D01*
X28685300Y18920769D01*
X28487371Y19027883D01*
X28487369Y19027884D01*
X28376195Y19066049D01*
X28318260Y19107086D01*
X28291708Y19172931D01*
X28304969Y19242678D01*
X28353834Y19294183D01*
X28371581Y19302710D01*
X28434427Y19327056D01*
X28608462Y19434814D01*
X28759732Y19572715D01*
X28766295Y19581405D01*
X28794201Y19618360D01*
X28883088Y19736065D01*
X28974328Y19919299D01*
X29030345Y20116179D01*
X29044767Y20271818D01*
X29049232Y20319996D01*
X29049232Y20320005D01*
X29030345Y20523820D01*
X29000986Y20627007D01*
X28974328Y20720701D01*
X28883088Y20903935D01*
X28820663Y20986599D01*
X28759733Y21067285D01*
X28608463Y21205186D01*
X28434433Y21312941D01*
X28434428Y21312943D01*
X28434427Y21312944D01*
X28342598Y21348519D01*
X28243559Y21386887D01*
X28243560Y21386887D01*
X28243557Y21386888D01*
X28243556Y21386888D01*
X28042347Y21424500D01*
X27837653Y21424500D01*
X27636444Y21386888D01*
X27636442Y21386888D01*
X27636440Y21386887D01*
X27549644Y21353263D01*
X27478897Y21347307D01*
X27416162Y21380545D01*
X27415034Y21381660D01*
X27181404Y21615290D01*
X27147378Y21677602D01*
X27144499Y21704385D01*
X27144499Y21827260D01*
X27164501Y21895381D01*
X27218157Y21941874D01*
X27288431Y21951978D01*
X27336829Y21934388D01*
X27445573Y21867056D01*
X27636444Y21793112D01*
X27837653Y21755500D01*
X27837655Y21755500D01*
X28042345Y21755500D01*
X28042347Y21755500D01*
X28243556Y21793112D01*
X28434427Y21867056D01*
X28608462Y21974814D01*
X28759732Y22112715D01*
X28883088Y22276065D01*
X28974328Y22459299D01*
X29030345Y22656179D01*
X29049232Y22860000D01*
X29030345Y23063821D01*
X28974328Y23260701D01*
X28883088Y23443935D01*
X28828833Y23515781D01*
X28759733Y23607285D01*
X28608463Y23745186D01*
X28434433Y23852941D01*
X28434428Y23852943D01*
X28434427Y23852944D01*
X28400994Y23865896D01*
X28243559Y23926887D01*
X28243560Y23926887D01*
X28243557Y23926888D01*
X28243556Y23926888D01*
X28042347Y23964500D01*
X27837653Y23964500D01*
X27636444Y23926888D01*
X27636439Y23926887D01*
X27445577Y23852946D01*
X27445566Y23852941D01*
X27271536Y23745186D01*
X27120267Y23607286D01*
X27117669Y23604435D01*
X27116086Y23603474D01*
X27115963Y23603361D01*
X27115940Y23603386D01*
X27056992Y23567573D01*
X26986018Y23569366D01*
X26935464Y23600232D01*
X26262865Y24272831D01*
X26262853Y24272845D01*
X26243766Y24291932D01*
X31407000Y24291932D01*
X31407000Y23574000D01*
X33401000Y23574000D01*
X33401000Y24751334D01*
X31866402Y24751334D01*
X31805906Y24744829D01*
X31669035Y24693779D01*
X31669034Y24693779D01*
X31552095Y24606239D01*
X31464555Y24489300D01*
X31464555Y24489299D01*
X31413505Y24352428D01*
X31407000Y24291932D01*
X26243766Y24291932D01*
X26185026Y24350672D01*
X26185016Y24350680D01*
X26098484Y24400639D01*
X26098486Y24400639D01*
X26074532Y24407057D01*
X26001966Y24426502D01*
X26001963Y24426502D01*
X25902039Y24426502D01*
X25894321Y24426502D01*
X25894305Y24426501D01*
X22834697Y24426501D01*
X22834681Y24426502D01*
X22826963Y24426502D01*
X22727039Y24426502D01*
X22678779Y24413571D01*
X22630518Y24400640D01*
X22603744Y24385182D01*
X22593945Y24379524D01*
X22581551Y24372368D01*
X22543985Y24350679D01*
X22543978Y24350674D01*
X22518805Y24325500D01*
X22473325Y24280020D01*
X22473323Y24280018D01*
X20721983Y22528678D01*
X20721981Y22528676D01*
X20686653Y22493348D01*
X20651325Y22458021D01*
X20651321Y22458016D01*
X20601363Y22371484D01*
X20598816Y22361978D01*
X20598815Y22361977D01*
X20575499Y22274966D01*
X20575499Y22164888D01*
X20575500Y22164875D01*
X20575500Y12274384D01*
X20555498Y12206263D01*
X20538595Y12185289D01*
X19564711Y11211405D01*
X19502399Y11177379D01*
X19475616Y11174500D01*
X18472696Y11174500D01*
X18472680Y11174501D01*
X18464962Y11174501D01*
X18365038Y11174501D01*
X18332866Y11165881D01*
X18288916Y11154105D01*
X18288915Y11154104D01*
X18268518Y11148638D01*
X18268517Y11148638D01*
X18268515Y11148637D01*
X18268514Y11148637D01*
X18181984Y11098679D01*
X18181979Y11098675D01*
X18160238Y11076933D01*
X18111324Y11028019D01*
X18111322Y11028017D01*
X17114709Y10031405D01*
X17052397Y9997379D01*
X17025614Y9994500D01*
X15634936Y9994500D01*
X15634926Y9994499D01*
X15560699Y9979735D01*
X15476515Y9923484D01*
X15420266Y9839303D01*
X15405500Y9765070D01*
X15405500Y8295384D01*
X15385498Y8227263D01*
X15331842Y8180770D01*
X15261568Y8170666D01*
X15196988Y8200160D01*
X15190405Y8206289D01*
X15021405Y8375289D01*
X14987379Y8437601D01*
X14984500Y8464384D01*
X14984500Y17780005D01*
X15400768Y17780005D01*
X15400768Y17779996D01*
X15419654Y17576181D01*
X15475501Y17379901D01*
X15475672Y17379299D01*
X15566912Y17196065D01*
X15566913Y17196064D01*
X15690266Y17032716D01*
X15841536Y16894815D01*
X16015566Y16787060D01*
X16015568Y16787060D01*
X16015573Y16787056D01*
X16206444Y16713112D01*
X16407653Y16675500D01*
X16407655Y16675500D01*
X16612345Y16675500D01*
X16612347Y16675500D01*
X16813556Y16713112D01*
X17004427Y16787056D01*
X17113170Y16854388D01*
X17181617Y16873242D01*
X17249393Y16852099D01*
X17294978Y16797670D01*
X17305501Y16747260D01*
X17305501Y16624387D01*
X17285499Y16556266D01*
X17268596Y16535292D01*
X17034964Y16301660D01*
X16972652Y16267634D01*
X16901837Y16272699D01*
X16900353Y16273263D01*
X16813557Y16306888D01*
X16746486Y16319426D01*
X16612347Y16344500D01*
X16407653Y16344500D01*
X16206444Y16306888D01*
X16206439Y16306887D01*
X16015577Y16232946D01*
X16015566Y16232941D01*
X15841536Y16125186D01*
X15690266Y15987285D01*
X15566913Y15823937D01*
X15475671Y15640699D01*
X15419654Y15443820D01*
X15400768Y15240005D01*
X15400768Y15239996D01*
X15419654Y15036181D01*
X15448066Y14936324D01*
X15475672Y14839299D01*
X15566912Y14656065D01*
X15566913Y14656064D01*
X15690266Y14492716D01*
X15841536Y14354815D01*
X16015566Y14247060D01*
X16015568Y14247060D01*
X16015573Y14247056D01*
X16206444Y14173112D01*
X16407653Y14135500D01*
X16407655Y14135500D01*
X16612345Y14135500D01*
X16612347Y14135500D01*
X16813556Y14173112D01*
X17004427Y14247056D01*
X17178462Y14354814D01*
X17329732Y14492715D01*
X17453088Y14656065D01*
X17544328Y14839299D01*
X17600345Y15036179D01*
X17617116Y15217167D01*
X17619232Y15239996D01*
X17619232Y15240005D01*
X17940768Y15240005D01*
X17940768Y15239996D01*
X17959654Y15036181D01*
X17988066Y14936324D01*
X18015672Y14839299D01*
X18106912Y14656065D01*
X18106913Y14656064D01*
X18230266Y14492716D01*
X18381536Y14354815D01*
X18555566Y14247060D01*
X18555568Y14247060D01*
X18555573Y14247056D01*
X18746444Y14173112D01*
X18947653Y14135500D01*
X18947655Y14135500D01*
X19152345Y14135500D01*
X19152347Y14135500D01*
X19353556Y14173112D01*
X19544427Y14247056D01*
X19718462Y14354814D01*
X19869732Y14492715D01*
X19993088Y14656065D01*
X20084328Y14839299D01*
X20140345Y15036179D01*
X20157116Y15217167D01*
X20159232Y15239996D01*
X20159232Y15240005D01*
X20140345Y15443820D01*
X20139555Y15446597D01*
X20084328Y15640701D01*
X19993088Y15823935D01*
X19940500Y15893573D01*
X19869733Y15987285D01*
X19718463Y16125186D01*
X19544433Y16232941D01*
X19544428Y16232943D01*
X19544427Y16232944D01*
X19516908Y16243605D01*
X19353559Y16306887D01*
X19353560Y16306887D01*
X19353557Y16306888D01*
X19353556Y16306888D01*
X19152347Y16344500D01*
X18947653Y16344500D01*
X18746444Y16306888D01*
X18746439Y16306887D01*
X18555577Y16232946D01*
X18555566Y16232941D01*
X18381536Y16125186D01*
X18230266Y15987285D01*
X18106913Y15823937D01*
X18015671Y15640699D01*
X17959654Y15443820D01*
X17940768Y15240005D01*
X17619232Y15240005D01*
X17600345Y15443820D01*
X17599554Y15446599D01*
X17544328Y15640701D01*
X17543120Y15644947D01*
X17543716Y15715941D01*
X17575213Y15768521D01*
X17907643Y16100951D01*
X17907653Y16100958D01*
X17988671Y16181976D01*
X17988677Y16181982D01*
X18038639Y16268519D01*
X18064501Y16365039D01*
X18064501Y16898469D01*
X18084503Y16966590D01*
X18138159Y17013083D01*
X18208433Y17023187D01*
X18273013Y16993693D01*
X18275367Y16991602D01*
X18381538Y16894814D01*
X18416378Y16873242D01*
X18555566Y16787060D01*
X18555568Y16787060D01*
X18555573Y16787056D01*
X18746444Y16713112D01*
X18947653Y16675500D01*
X18947655Y16675500D01*
X19152345Y16675500D01*
X19152347Y16675500D01*
X19353556Y16713112D01*
X19544427Y16787056D01*
X19718462Y16894814D01*
X19869732Y17032715D01*
X19993088Y17196065D01*
X20084328Y17379299D01*
X20140345Y17576179D01*
X20147371Y17652000D01*
X20159232Y17779996D01*
X20159232Y17780005D01*
X20141090Y17975781D01*
X20140345Y17983821D01*
X20084328Y18180701D01*
X19993088Y18363935D01*
X19940525Y18433540D01*
X19869733Y18527285D01*
X19718463Y18665186D01*
X19544433Y18772941D01*
X19544428Y18772943D01*
X19544427Y18772944D01*
X19541407Y18774114D01*
X19353559Y18846887D01*
X19353560Y18846887D01*
X19353557Y18846888D01*
X19353556Y18846888D01*
X19152347Y18884500D01*
X18947653Y18884500D01*
X18783041Y18853729D01*
X18746439Y18846887D01*
X18555577Y18772946D01*
X18555566Y18772941D01*
X18381536Y18665186D01*
X18275387Y18568417D01*
X18211570Y18537306D01*
X18141063Y18545636D01*
X18086253Y18590762D01*
X18064541Y18658357D01*
X18064501Y18661532D01*
X18064501Y18745617D01*
X18084503Y18813738D01*
X18101401Y18834708D01*
X18525035Y19258343D01*
X18587346Y19292366D01*
X18658161Y19287302D01*
X18659645Y19286738D01*
X18746444Y19253112D01*
X18947653Y19215500D01*
X18947655Y19215500D01*
X19152345Y19215500D01*
X19152347Y19215500D01*
X19353556Y19253112D01*
X19544427Y19327056D01*
X19718462Y19434814D01*
X19869732Y19572715D01*
X19876295Y19581405D01*
X19904201Y19618360D01*
X19993088Y19736065D01*
X20084328Y19919299D01*
X20140345Y20116179D01*
X20154767Y20271818D01*
X20159232Y20319996D01*
X20159232Y20320005D01*
X20140345Y20523820D01*
X20110986Y20627007D01*
X20084328Y20720701D01*
X19993088Y20903935D01*
X19930663Y20986599D01*
X19869733Y21067285D01*
X19718463Y21205186D01*
X19544433Y21312941D01*
X19544428Y21312943D01*
X19544427Y21312944D01*
X19452598Y21348519D01*
X19353559Y21386887D01*
X19353560Y21386887D01*
X19353557Y21386888D01*
X19353556Y21386888D01*
X19152347Y21424500D01*
X18947653Y21424500D01*
X18746455Y21386890D01*
X18746439Y21386887D01*
X18555577Y21312946D01*
X18555566Y21312941D01*
X18381536Y21205186D01*
X18230266Y21067285D01*
X18106913Y20903937D01*
X18015671Y20720699D01*
X17959654Y20523820D01*
X17940768Y20320005D01*
X17940768Y20319996D01*
X17959654Y20116181D01*
X18016879Y19915056D01*
X18016283Y19844062D01*
X17984784Y19791480D01*
X17829594Y19636290D01*
X17767282Y19602264D01*
X17696467Y19607329D01*
X17639631Y19649876D01*
X17614820Y19716396D01*
X17614499Y19725362D01*
X17614499Y21195066D01*
X17614498Y21195070D01*
X17614498Y21195074D01*
X17599734Y21269301D01*
X17599733Y21269303D01*
X17543484Y21353484D01*
X17543483Y21353485D01*
X17459302Y21409734D01*
X17385067Y21424500D01*
X15634936Y21424500D01*
X15634926Y21424499D01*
X15560699Y21409735D01*
X15476515Y21353484D01*
X15420266Y21269303D01*
X15405500Y21195070D01*
X15405500Y19444937D01*
X15405501Y19444927D01*
X15420265Y19370700D01*
X15476516Y19286516D01*
X15560697Y19230267D01*
X15560699Y19230266D01*
X15634933Y19215500D01*
X17197707Y19215501D01*
X17265828Y19195499D01*
X17312321Y19141843D01*
X17322425Y19071569D01*
X17319414Y19056895D01*
X17305500Y19004963D01*
X17305500Y19004962D01*
X17305500Y18894889D01*
X17305501Y18894876D01*
X17305501Y18812741D01*
X17285499Y18744620D01*
X17231843Y18698127D01*
X17161569Y18688023D01*
X17113171Y18705613D01*
X17004430Y18772942D01*
X17004431Y18772942D01*
X17004427Y18772944D01*
X17001407Y18774114D01*
X16813559Y18846887D01*
X16813560Y18846887D01*
X16813557Y18846888D01*
X16813556Y18846888D01*
X16612347Y18884500D01*
X16407653Y18884500D01*
X16243041Y18853729D01*
X16206439Y18846887D01*
X16015577Y18772946D01*
X16015566Y18772941D01*
X15841536Y18665186D01*
X15690266Y18527285D01*
X15566913Y18363937D01*
X15475671Y18180699D01*
X15419654Y17983820D01*
X15400768Y17780005D01*
X14984500Y17780005D01*
X14984500Y24805098D01*
X15004502Y24873219D01*
X15026942Y24899407D01*
X15098498Y24962799D01*
X15188787Y25093605D01*
X15245149Y25242218D01*
X15245149Y25242219D01*
X15245150Y25242221D01*
X15264307Y25399997D01*
X15264307Y25400004D01*
X15245150Y25557780D01*
X15227689Y25603820D01*
X15188787Y25706395D01*
X15098498Y25837201D01*
X14979529Y25942599D01*
X14979528Y25942600D01*
X14979525Y25942602D01*
X14838797Y26016461D01*
X14838795Y26016462D01*
X14838793Y26016463D01*
X14838791Y26016464D01*
X14838790Y26016464D01*
X14684472Y26054500D01*
X14684471Y26054500D01*
X14525529Y26054500D01*
X14525527Y26054500D01*
X14371209Y26016464D01*
X14371202Y26016461D01*
X14230474Y25942602D01*
X14230469Y25942598D01*
X14111501Y25837200D01*
X14021215Y25706399D01*
X14021212Y25706393D01*
X13964849Y25557780D01*
X13945693Y25400004D01*
X13945693Y25399997D01*
X13964849Y25242221D01*
X14021212Y25093608D01*
X14021215Y25093602D01*
X14111500Y24962801D01*
X14111501Y24962800D01*
X14111502Y24962799D01*
X14183055Y24899408D01*
X14220779Y24839266D01*
X14225500Y24805098D01*
X14225500Y24308988D01*
X14205498Y24240867D01*
X14151842Y24194374D01*
X14081568Y24184270D01*
X14016988Y24213764D01*
X13978604Y24273490D01*
X13977173Y24280431D01*
X13976974Y24280381D01*
X13975151Y24287777D01*
X13953109Y24345896D01*
X13918787Y24436395D01*
X13828498Y24567201D01*
X13709529Y24672599D01*
X13709528Y24672600D01*
X13709525Y24672602D01*
X13568797Y24746461D01*
X13568795Y24746462D01*
X13568793Y24746463D01*
X13568791Y24746464D01*
X13568790Y24746464D01*
X13414472Y24784500D01*
X13414471Y24784500D01*
X13255529Y24784500D01*
X13255527Y24784500D01*
X13101209Y24746464D01*
X13101202Y24746461D01*
X12960474Y24672602D01*
X12960469Y24672598D01*
X12841501Y24567200D01*
X12751215Y24436399D01*
X12751212Y24436393D01*
X12694849Y24287780D01*
X12675693Y24130004D01*
X12675693Y24129997D01*
X12694849Y23972221D01*
X12733101Y23871361D01*
X12751213Y23823605D01*
X12841502Y23692799D01*
X12960471Y23587401D01*
X12960472Y23587401D01*
X12960474Y23587399D01*
X12998250Y23567573D01*
X13101207Y23513537D01*
X13255529Y23475500D01*
X13255530Y23475500D01*
X13400616Y23475500D01*
X13468737Y23455498D01*
X13489711Y23438595D01*
X13636594Y23291712D01*
X13670620Y23229400D01*
X13673499Y23202617D01*
X13673499Y7125696D01*
X13673498Y7125678D01*
X13673498Y7117961D01*
X13673498Y7018037D01*
X13687988Y6963963D01*
X13692053Y6948793D01*
X13699362Y6921513D01*
X13749320Y6834984D01*
X13749328Y6834974D01*
X13827155Y6757147D01*
X13827169Y6757135D01*
X15637912Y4946392D01*
X15637933Y4946369D01*
X15712973Y4871329D01*
X15712978Y4871325D01*
X15712980Y4871323D01*
X15712981Y4871322D01*
X15712983Y4871321D01*
X15760762Y4843736D01*
X15809755Y4792354D01*
X15823191Y4722640D01*
X15796805Y4656729D01*
X15782648Y4641502D01*
X15690266Y4557285D01*
X15566913Y4393937D01*
X15475671Y4210699D01*
X15419654Y4013820D01*
X15400768Y3810005D01*
X15400768Y3809996D01*
X15419654Y3606181D01*
X15429867Y3570286D01*
X15475672Y3409299D01*
X15566912Y3226065D01*
X15566913Y3226064D01*
X15690266Y3062716D01*
X15841536Y2924815D01*
X16015566Y2817060D01*
X16015568Y2817060D01*
X16015573Y2817056D01*
X16206444Y2743112D01*
X16407653Y2705500D01*
X16407655Y2705500D01*
X16612345Y2705500D01*
X16612347Y2705500D01*
X16813556Y2743112D01*
X17004427Y2817056D01*
X17178462Y2924814D01*
X17329732Y3062715D01*
X17453088Y3226065D01*
X17544328Y3409299D01*
X17600345Y3606179D01*
X17606640Y3674120D01*
X17619232Y3809996D01*
X17619232Y3810005D01*
X17600345Y4013820D01*
X17600345Y4013821D01*
X17544328Y4210701D01*
X17453088Y4393935D01*
X17412538Y4447632D01*
X17329733Y4557285D01*
X17308782Y4576384D01*
X17271916Y4637058D01*
X17273705Y4708032D01*
X17313581Y4766772D01*
X17378885Y4794629D01*
X17393668Y4795499D01*
X17817303Y4795499D01*
X17817319Y4795498D01*
X17825037Y4795498D01*
X17924960Y4795498D01*
X17924961Y4795498D01*
X18001079Y4815895D01*
X18001081Y4815895D01*
X18008547Y4817897D01*
X18021481Y4821361D01*
X18108018Y4871323D01*
X18178675Y4941980D01*
X18189042Y4952347D01*
X18189049Y4952357D01*
X18525036Y5288344D01*
X18587346Y5322368D01*
X18658161Y5317303D01*
X18659601Y5316756D01*
X18746444Y5283112D01*
X18947653Y5245500D01*
X18947655Y5245500D01*
X19152345Y5245500D01*
X19152347Y5245500D01*
X19353556Y5283112D01*
X19544427Y5357056D01*
X19653170Y5424388D01*
X19721617Y5443242D01*
X19789393Y5422099D01*
X19834978Y5367670D01*
X19845501Y5317260D01*
X19845501Y5194387D01*
X19825499Y5126266D01*
X19808596Y5105292D01*
X19574964Y4871660D01*
X19512652Y4837634D01*
X19441837Y4842699D01*
X19440353Y4843263D01*
X19353557Y4876888D01*
X19286486Y4889426D01*
X19152347Y4914500D01*
X18947653Y4914500D01*
X18746444Y4876888D01*
X18746439Y4876887D01*
X18555577Y4802946D01*
X18555566Y4802941D01*
X18381536Y4695186D01*
X18230266Y4557285D01*
X18106913Y4393937D01*
X18015671Y4210699D01*
X17959654Y4013820D01*
X17940768Y3810005D01*
X17940768Y3809996D01*
X17959654Y3606181D01*
X17969867Y3570286D01*
X18015672Y3409299D01*
X18106912Y3226065D01*
X18106913Y3226064D01*
X18230266Y3062716D01*
X18381536Y2924815D01*
X18555566Y2817060D01*
X18555568Y2817060D01*
X18555573Y2817056D01*
X18746444Y2743112D01*
X18947653Y2705500D01*
X18947655Y2705500D01*
X19152345Y2705500D01*
X19152347Y2705500D01*
X19353556Y2743112D01*
X19544427Y2817056D01*
X19718462Y2924814D01*
X19869732Y3062715D01*
X19993088Y3226065D01*
X20084328Y3409299D01*
X20140345Y3606179D01*
X20146640Y3674120D01*
X20159232Y3809996D01*
X20159232Y3810005D01*
X20140345Y4013820D01*
X20083120Y4214947D01*
X20083716Y4285941D01*
X20115213Y4338521D01*
X20447643Y4670951D01*
X20447653Y4670958D01*
X20528671Y4751976D01*
X20528677Y4751982D01*
X20578639Y4838519D01*
X20604501Y4935039D01*
X20604501Y6963963D01*
X20578639Y7060483D01*
X20578637Y7060486D01*
X20578637Y7060488D01*
X20528679Y7147017D01*
X20528671Y7147027D01*
X20453631Y7222067D01*
X20453608Y7222088D01*
X19924865Y7750831D01*
X19924853Y7750845D01*
X19847026Y7828672D01*
X19847016Y7828680D01*
X19799237Y7856265D01*
X19750244Y7907648D01*
X19736808Y7977362D01*
X19763195Y8043272D01*
X19777348Y8058497D01*
X19869732Y8142715D01*
X19993088Y8306065D01*
X20084328Y8489299D01*
X20140345Y8686179D01*
X20157514Y8871461D01*
X20159232Y8889996D01*
X20159232Y8890005D01*
X20140411Y9093112D01*
X20140345Y9093821D01*
X20084328Y9290701D01*
X20083120Y9294947D01*
X20083716Y9365941D01*
X20115213Y9418521D01*
X21812642Y11115950D01*
X21812652Y11115957D01*
X21893670Y11196975D01*
X21893676Y11196981D01*
X21943638Y11283518D01*
X21969500Y11380038D01*
X21969500Y20320005D01*
X24290768Y20320005D01*
X24290768Y20319996D01*
X24309654Y20116181D01*
X24365501Y19919901D01*
X24365672Y19919299D01*
X24456912Y19736065D01*
X24456913Y19736064D01*
X24580266Y19572716D01*
X24731536Y19434815D01*
X24905566Y19327060D01*
X24905568Y19327060D01*
X24905573Y19327056D01*
X25096444Y19253112D01*
X25297653Y19215500D01*
X25297655Y19215500D01*
X25502345Y19215500D01*
X25502347Y19215500D01*
X25703556Y19253112D01*
X25894427Y19327056D01*
X26068462Y19434814D01*
X26219732Y19572715D01*
X26226295Y19581405D01*
X26254201Y19618360D01*
X26343088Y19736065D01*
X26434328Y19919299D01*
X26490345Y20116179D01*
X26504767Y20271818D01*
X26509232Y20319996D01*
X26509232Y20320005D01*
X26490345Y20523820D01*
X26460986Y20627007D01*
X26434328Y20720701D01*
X26343088Y20903935D01*
X26280663Y20986599D01*
X26219733Y21067285D01*
X26068463Y21205186D01*
X25894433Y21312941D01*
X25894428Y21312943D01*
X25894427Y21312944D01*
X25802598Y21348519D01*
X25703559Y21386887D01*
X25703560Y21386887D01*
X25703557Y21386888D01*
X25703556Y21386888D01*
X25502347Y21424500D01*
X25297653Y21424500D01*
X25096455Y21386890D01*
X25096439Y21386887D01*
X24905577Y21312946D01*
X24905566Y21312941D01*
X24731536Y21205186D01*
X24580266Y21067285D01*
X24456913Y20903937D01*
X24365671Y20720699D01*
X24309654Y20523820D01*
X24290768Y20320005D01*
X21969500Y20320005D01*
X21969500Y21380616D01*
X21989502Y21448737D01*
X22006405Y21469711D01*
X22705289Y22168595D01*
X22767601Y22202621D01*
X22794384Y22205500D01*
X22939470Y22205500D01*
X22939471Y22205500D01*
X23093793Y22243537D01*
X23234529Y22317401D01*
X23353498Y22422799D01*
X23443787Y22553605D01*
X23500149Y22702218D01*
X23500149Y22702219D01*
X23500150Y22702221D01*
X23519307Y22859997D01*
X23519307Y22860004D01*
X23500150Y23017780D01*
X23482689Y23063820D01*
X23443787Y23166395D01*
X23353498Y23297201D01*
X23234529Y23402599D01*
X23234528Y23402600D01*
X23234525Y23402602D01*
X23182447Y23429934D01*
X23131424Y23479302D01*
X23115192Y23548418D01*
X23138904Y23615338D01*
X23195031Y23658815D01*
X23241002Y23667501D01*
X24372699Y23667501D01*
X24440820Y23647499D01*
X24487313Y23593843D01*
X24497417Y23523569D01*
X24473249Y23465569D01*
X24456913Y23443937D01*
X24365671Y23260699D01*
X24309654Y23063820D01*
X24290768Y22860005D01*
X24290768Y22859996D01*
X24309654Y22656181D01*
X24345933Y22528675D01*
X24365672Y22459299D01*
X24456912Y22276065D01*
X24456913Y22276064D01*
X24580266Y22112716D01*
X24731536Y21974815D01*
X24905566Y21867060D01*
X24905568Y21867060D01*
X24905573Y21867056D01*
X25096444Y21793112D01*
X25297653Y21755500D01*
X25297655Y21755500D01*
X25502345Y21755500D01*
X25502347Y21755500D01*
X25703556Y21793112D01*
X25894427Y21867056D01*
X26068462Y21974814D01*
X26174614Y22071585D01*
X26238430Y22102695D01*
X26308936Y22094365D01*
X26363746Y22049240D01*
X26385459Y21981645D01*
X26385499Y21978469D01*
X26385499Y21552698D01*
X26385498Y21552680D01*
X26385498Y21445036D01*
X26401079Y21386890D01*
X26410090Y21353263D01*
X26411361Y21348519D01*
X26411362Y21348517D01*
X26411363Y21348515D01*
X26461320Y21261986D01*
X26461328Y21261976D01*
X26539155Y21184149D01*
X26539169Y21184137D01*
X26874784Y20848522D01*
X26908810Y20786210D01*
X26906879Y20724946D01*
X26849654Y20523820D01*
X26830768Y20320005D01*
X26830768Y20319996D01*
X26849654Y20116181D01*
X26905501Y19919901D01*
X26905672Y19919299D01*
X26996912Y19736065D01*
X26996913Y19736064D01*
X27120266Y19572716D01*
X27271536Y19434815D01*
X27445566Y19327060D01*
X27445568Y19327060D01*
X27445573Y19327056D01*
X27473090Y19316396D01*
X27508409Y19302713D01*
X27564704Y19259454D01*
X27588674Y19192626D01*
X27572710Y19123448D01*
X27521879Y19073882D01*
X27503804Y19066049D01*
X27392631Y19027884D01*
X27392628Y19027883D01*
X27194699Y18920769D01*
X27194698Y18920768D01*
X27017097Y18782535D01*
X26864674Y18616959D01*
X26741580Y18428549D01*
X26649084Y18217680D01*
X26647472Y18218388D01*
X26610903Y18166782D01*
X26545053Y18140243D01*
X26475309Y18153519D01*
X26423813Y18202394D01*
X26420005Y18209465D01*
X26343088Y18363935D01*
X26290525Y18433540D01*
X26219733Y18527285D01*
X26068463Y18665186D01*
X25894433Y18772941D01*
X25894428Y18772943D01*
X25894427Y18772944D01*
X25891407Y18774114D01*
X25703559Y18846887D01*
X25703560Y18846887D01*
X25703557Y18846888D01*
X25703556Y18846888D01*
X25502347Y18884500D01*
X25297653Y18884500D01*
X25133041Y18853729D01*
X25096439Y18846887D01*
X24905577Y18772946D01*
X24905566Y18772941D01*
X24731536Y18665186D01*
X24645609Y18586852D01*
X24581791Y18555741D01*
X24511285Y18564071D01*
X24456475Y18609197D01*
X24451604Y18616967D01*
X24441695Y18634130D01*
X24433678Y18648016D01*
X24433670Y18648026D01*
X24358630Y18723066D01*
X24358607Y18723087D01*
X24184412Y18897282D01*
X24150386Y18959594D01*
X24148426Y19001565D01*
X24154307Y19049998D01*
X24154307Y19050003D01*
X24135150Y19207780D01*
X24105289Y19286516D01*
X24078787Y19356395D01*
X23988498Y19487201D01*
X23869529Y19592599D01*
X23869528Y19592600D01*
X23869525Y19592602D01*
X23728797Y19666461D01*
X23728795Y19666462D01*
X23728793Y19666463D01*
X23728791Y19666464D01*
X23728790Y19666464D01*
X23574472Y19704500D01*
X23574471Y19704500D01*
X23415529Y19704500D01*
X23415527Y19704500D01*
X23261209Y19666464D01*
X23261202Y19666461D01*
X23120474Y19592602D01*
X23120469Y19592598D01*
X23001501Y19487200D01*
X22911215Y19356399D01*
X22911212Y19356393D01*
X22854849Y19207780D01*
X22835693Y19050004D01*
X22835693Y19049997D01*
X22854849Y18892221D01*
X22895848Y18784118D01*
X22911213Y18743605D01*
X23001502Y18612799D01*
X23120471Y18507401D01*
X23120472Y18507401D01*
X23120474Y18507399D01*
X23171843Y18480439D01*
X23261207Y18433537D01*
X23415529Y18395500D01*
X23415530Y18395500D01*
X23560616Y18395500D01*
X23628737Y18375498D01*
X23649711Y18358595D01*
X23713595Y18294711D01*
X23747621Y18232399D01*
X23750500Y18205616D01*
X23750500Y14027697D01*
X23750499Y14027679D01*
X23750499Y13920035D01*
X23770088Y13846933D01*
X23770088Y13846932D01*
X23774045Y13832166D01*
X23776362Y13823518D01*
X23826321Y13736985D01*
X23826329Y13736975D01*
X23904156Y13659148D01*
X23904170Y13659136D01*
X24334784Y13228522D01*
X24368810Y13166210D01*
X24366879Y13104946D01*
X24309654Y12903820D01*
X24290768Y12700005D01*
X24290768Y12699996D01*
X24309654Y12496181D01*
X24364358Y12303917D01*
X24365672Y12299299D01*
X24456912Y12116065D01*
X24456913Y12116064D01*
X24580266Y11952716D01*
X24731536Y11814815D01*
X24905566Y11707060D01*
X24905568Y11707060D01*
X24905573Y11707056D01*
X25096444Y11633112D01*
X25297653Y11595500D01*
X25297655Y11595500D01*
X25502345Y11595500D01*
X25502347Y11595500D01*
X25703556Y11633112D01*
X25894427Y11707056D01*
X26068462Y11814814D01*
X26219732Y11952715D01*
X26343088Y12116065D01*
X26434328Y12299299D01*
X26490345Y12496179D01*
X26500185Y12602365D01*
X26509232Y12699996D01*
X26509232Y12700005D01*
X26490345Y12903820D01*
X26433120Y13104947D01*
X26433716Y13175941D01*
X26465213Y13228521D01*
X26620407Y13383715D01*
X26682717Y13417739D01*
X26753532Y13412674D01*
X26810368Y13370127D01*
X26835179Y13303607D01*
X26835500Y13294618D01*
X26835500Y11824937D01*
X26835501Y11824927D01*
X26850265Y11750700D01*
X26906516Y11666516D01*
X26990697Y11610267D01*
X26990699Y11610266D01*
X27064933Y11595500D01*
X28815066Y11595501D01*
X28815069Y11595502D01*
X28815073Y11595502D01*
X28864326Y11605299D01*
X28889301Y11610266D01*
X28973484Y11666516D01*
X29018910Y11734500D01*
X29029734Y11750698D01*
X29031401Y11759079D01*
X29064307Y11821989D01*
X29126001Y11857122D01*
X29154980Y11860500D01*
X31534501Y11860500D01*
X31602622Y11840498D01*
X31649115Y11786842D01*
X31660501Y11734500D01*
X31660501Y11291594D01*
X31675265Y11217366D01*
X31731516Y11133182D01*
X31815697Y11076933D01*
X31815699Y11076932D01*
X31889933Y11062166D01*
X35180000Y11062167D01*
X35248121Y11042165D01*
X35294614Y10988509D01*
X35306000Y10936167D01*
X35306000Y380000D01*
X35285998Y311879D01*
X35232342Y265386D01*
X35180000Y254000D01*
X380000Y254000D01*
X311879Y274002D01*
X265386Y327658D01*
X254000Y380000D01*
X254000Y2661291D01*
X689500Y2661291D01*
X689500Y2418710D01*
X721160Y2178218D01*
X783944Y1943905D01*
X783945Y1943903D01*
X783946Y1943900D01*
X876776Y1719788D01*
X876777Y1719787D01*
X876782Y1719776D01*
X998061Y1509715D01*
X998063Y1509712D01*
X998064Y1509711D01*
X1145735Y1317262D01*
X1145739Y1317258D01*
X1145744Y1317252D01*
X1317251Y1145745D01*
X1317256Y1145741D01*
X1317262Y1145735D01*
X1509711Y998064D01*
X1509714Y998062D01*
X1719775Y876783D01*
X1719779Y876782D01*
X1719788Y876776D01*
X1943900Y783946D01*
X2178211Y721162D01*
X2178215Y721162D01*
X2178217Y721161D01*
X2240202Y713001D01*
X2418712Y689500D01*
X2418719Y689500D01*
X2661281Y689500D01*
X2661288Y689500D01*
X2878637Y718115D01*
X2901782Y721161D01*
X2901782Y721162D01*
X2901789Y721162D01*
X3136100Y783946D01*
X3360212Y876776D01*
X3570289Y998064D01*
X3762738Y1145735D01*
X3934265Y1317262D01*
X4081936Y1509711D01*
X4203224Y1719788D01*
X4296054Y1943900D01*
X4358838Y2178211D01*
X4390500Y2418712D01*
X4390500Y2661288D01*
X4390500Y2661291D01*
X31169500Y2661291D01*
X31169500Y2418710D01*
X31201160Y2178218D01*
X31263944Y1943905D01*
X31263945Y1943903D01*
X31263946Y1943900D01*
X31356776Y1719788D01*
X31356777Y1719787D01*
X31356782Y1719776D01*
X31478061Y1509715D01*
X31478063Y1509712D01*
X31478064Y1509711D01*
X31625735Y1317262D01*
X31625739Y1317258D01*
X31625744Y1317252D01*
X31797251Y1145745D01*
X31797256Y1145741D01*
X31797262Y1145735D01*
X31989711Y998064D01*
X31989714Y998062D01*
X32199775Y876783D01*
X32199779Y876782D01*
X32199788Y876776D01*
X32423900Y783946D01*
X32658211Y721162D01*
X32658215Y721162D01*
X32658217Y721161D01*
X32720202Y713001D01*
X32898712Y689500D01*
X32898719Y689500D01*
X33141281Y689500D01*
X33141288Y689500D01*
X33358637Y718115D01*
X33381782Y721161D01*
X33381782Y721162D01*
X33381789Y721162D01*
X33616100Y783946D01*
X33840212Y876776D01*
X34050289Y998064D01*
X34242738Y1145735D01*
X34414265Y1317262D01*
X34561936Y1509711D01*
X34683224Y1719788D01*
X34776054Y1943900D01*
X34838838Y2178211D01*
X34870500Y2418712D01*
X34870500Y2661288D01*
X34838838Y2901789D01*
X34776054Y3136100D01*
X34683224Y3360212D01*
X34683218Y3360221D01*
X34683217Y3360225D01*
X34561938Y3570286D01*
X34561936Y3570289D01*
X34414265Y3762738D01*
X34414259Y3762744D01*
X34414255Y3762749D01*
X34242748Y3934256D01*
X34242742Y3934261D01*
X34242738Y3934265D01*
X34050289Y4081936D01*
X34050288Y4081937D01*
X34050285Y4081939D01*
X33840224Y4203218D01*
X33840216Y4203222D01*
X33840212Y4203224D01*
X33616100Y4296054D01*
X33616097Y4296055D01*
X33616095Y4296056D01*
X33381782Y4358840D01*
X33141290Y4390500D01*
X33141288Y4390500D01*
X32898712Y4390500D01*
X32898709Y4390500D01*
X32658217Y4358840D01*
X32423904Y4296056D01*
X32423900Y4296054D01*
X32217835Y4210699D01*
X32199786Y4203223D01*
X32199775Y4203218D01*
X31989714Y4081939D01*
X31797262Y3934265D01*
X31797251Y3934256D01*
X31625744Y3762749D01*
X31625735Y3762738D01*
X31478061Y3570286D01*
X31356782Y3360225D01*
X31356777Y3360214D01*
X31263946Y3136100D01*
X31263944Y3136096D01*
X31201160Y2901783D01*
X31169500Y2661291D01*
X4390500Y2661291D01*
X4358838Y2901789D01*
X4296054Y3136100D01*
X4203224Y3360212D01*
X4203218Y3360221D01*
X4203217Y3360225D01*
X4081938Y3570286D01*
X4081936Y3570289D01*
X3934265Y3762738D01*
X3934259Y3762744D01*
X3934255Y3762749D01*
X3762748Y3934256D01*
X3762742Y3934261D01*
X3762738Y3934265D01*
X3570289Y4081936D01*
X3570288Y4081937D01*
X3570285Y4081939D01*
X3360224Y4203218D01*
X3360216Y4203222D01*
X3360212Y4203224D01*
X3136100Y4296054D01*
X3136097Y4296055D01*
X3136095Y4296056D01*
X2901782Y4358840D01*
X2661290Y4390500D01*
X2661288Y4390500D01*
X2418712Y4390500D01*
X2418709Y4390500D01*
X2178217Y4358840D01*
X1943904Y4296056D01*
X1943900Y4296054D01*
X1737835Y4210699D01*
X1719786Y4203223D01*
X1719775Y4203218D01*
X1509714Y4081939D01*
X1317262Y3934265D01*
X1317251Y3934256D01*
X1145744Y3762749D01*
X1145735Y3762738D01*
X998061Y3570286D01*
X876782Y3360225D01*
X876777Y3360214D01*
X783946Y3136100D01*
X783944Y3136096D01*
X721160Y2901783D01*
X689500Y2661291D01*
X254000Y2661291D01*
X254000Y6781167D01*
X274002Y6849288D01*
X327658Y6895781D01*
X379995Y6907167D01*
X3670066Y6907167D01*
X3670069Y6907168D01*
X3670072Y6907168D01*
X3706663Y6914447D01*
X3744301Y6921932D01*
X3828484Y6978182D01*
X3884734Y7062365D01*
X3899500Y7136599D01*
X3899500Y7579500D01*
X3919502Y7647621D01*
X3973158Y7694114D01*
X4025500Y7705500D01*
X5322565Y7705500D01*
X5381118Y7691068D01*
X5481207Y7638537D01*
X5635529Y7600500D01*
X5635530Y7600500D01*
X5794470Y7600500D01*
X5794471Y7600500D01*
X5948793Y7638537D01*
X6089529Y7712401D01*
X6208498Y7817799D01*
X6298787Y7948605D01*
X6355149Y8097218D01*
X6355149Y8097219D01*
X6355150Y8097221D01*
X6374307Y8254997D01*
X6374307Y8255004D01*
X6355150Y8412780D01*
X6326160Y8489218D01*
X6298787Y8561395D01*
X6208498Y8692201D01*
X6089529Y8797599D01*
X6089528Y8797600D01*
X6089525Y8797602D01*
X5948797Y8871461D01*
X5948795Y8871462D01*
X5948793Y8871463D01*
X5948791Y8871464D01*
X5948790Y8871464D01*
X5794472Y8909500D01*
X5794471Y8909500D01*
X5635529Y8909500D01*
X5635527Y8909500D01*
X5481209Y8871464D01*
X5481202Y8871461D01*
X5340474Y8797602D01*
X5340469Y8797598D01*
X5221501Y8692200D01*
X5131215Y8561399D01*
X5131212Y8561393D01*
X5125306Y8545819D01*
X5082447Y8489218D01*
X5015791Y8464773D01*
X5007494Y8464500D01*
X4025499Y8464500D01*
X3957378Y8484502D01*
X3910885Y8538158D01*
X3899499Y8590500D01*
X3899499Y9033398D01*
X3899498Y9033407D01*
X3884734Y9107635D01*
X3845030Y9167055D01*
X3828484Y9191818D01*
X3828483Y9191819D01*
X3777612Y9225811D01*
X3732085Y9280288D01*
X3723238Y9350732D01*
X3753880Y9414775D01*
X3803584Y9448631D01*
X3890963Y9481221D01*
X3890965Y9481222D01*
X4007904Y9568762D01*
X4095444Y9685701D01*
X4095444Y9685702D01*
X4146494Y9822573D01*
X4152999Y9883069D01*
X4153000Y9883081D01*
X4153000Y10160005D01*
X6510768Y10160005D01*
X6510768Y10159996D01*
X6529654Y9956181D01*
X6567669Y9822573D01*
X6585672Y9759299D01*
X6676912Y9576065D01*
X6676913Y9576064D01*
X6800266Y9412716D01*
X6951536Y9274815D01*
X7125566Y9167060D01*
X7125568Y9167060D01*
X7125573Y9167056D01*
X7316444Y9093112D01*
X7517653Y9055500D01*
X7517655Y9055500D01*
X7722345Y9055500D01*
X7722347Y9055500D01*
X7923556Y9093112D01*
X8114427Y9167056D01*
X8288462Y9274814D01*
X8439732Y9412715D01*
X8563088Y9576065D01*
X8654328Y9759299D01*
X8710345Y9956179D01*
X8729232Y10160000D01*
X8729232Y10160005D01*
X9050768Y10160005D01*
X9050768Y10159996D01*
X9069654Y9956181D01*
X9107669Y9822573D01*
X9125672Y9759299D01*
X9216912Y9576065D01*
X9216913Y9576064D01*
X9340266Y9412716D01*
X9491536Y9274815D01*
X9665566Y9167060D01*
X9665568Y9167060D01*
X9665573Y9167056D01*
X9856444Y9093112D01*
X10057653Y9055500D01*
X10057655Y9055500D01*
X10262345Y9055500D01*
X10262347Y9055500D01*
X10463556Y9093112D01*
X10654427Y9167056D01*
X10828462Y9274814D01*
X10979732Y9412715D01*
X11103088Y9576065D01*
X11194328Y9759299D01*
X11250345Y9956179D01*
X11269232Y10160000D01*
X11250345Y10363821D01*
X11194328Y10560701D01*
X11103088Y10743935D01*
X11062538Y10797632D01*
X10979733Y10907285D01*
X10828463Y11045186D01*
X10654433Y11152941D01*
X10654428Y11152943D01*
X10654427Y11152944D01*
X10540755Y11196981D01*
X10463559Y11226887D01*
X10463560Y11226887D01*
X10463557Y11226888D01*
X10463556Y11226888D01*
X10262347Y11264500D01*
X10057653Y11264500D01*
X9856444Y11226888D01*
X9856439Y11226887D01*
X9665577Y11152946D01*
X9665566Y11152941D01*
X9491536Y11045186D01*
X9340266Y10907285D01*
X9216913Y10743937D01*
X9125671Y10560699D01*
X9069654Y10363820D01*
X9050768Y10160005D01*
X8729232Y10160005D01*
X8710345Y10363821D01*
X8654328Y10560701D01*
X8563088Y10743935D01*
X8522538Y10797632D01*
X8439733Y10907285D01*
X8288463Y11045186D01*
X8114433Y11152941D01*
X8114428Y11152943D01*
X8114427Y11152944D01*
X8000755Y11196981D01*
X7923559Y11226887D01*
X7923560Y11226887D01*
X7923557Y11226888D01*
X7923556Y11226888D01*
X7722347Y11264500D01*
X7517653Y11264500D01*
X7316444Y11226888D01*
X7316439Y11226887D01*
X7125577Y11152946D01*
X7125566Y11152941D01*
X6951536Y11045186D01*
X6800266Y10907285D01*
X6676913Y10743937D01*
X6585671Y10560699D01*
X6529654Y10363820D01*
X6510768Y10160005D01*
X4153000Y10160005D01*
X4153000Y10601000D01*
X2031000Y10601000D01*
X1962879Y10621002D01*
X1916386Y10674658D01*
X1905000Y10727000D01*
X1905000Y10983000D01*
X1925002Y11051121D01*
X1978658Y11097614D01*
X2031000Y11109000D01*
X4153000Y11109000D01*
X4153000Y11826920D01*
X4152999Y11826932D01*
X4146494Y11887428D01*
X4095444Y12024299D01*
X4095444Y12024300D01*
X4007904Y12141239D01*
X3890965Y12228779D01*
X3803583Y12261370D01*
X3746747Y12303917D01*
X3721936Y12370437D01*
X3737027Y12439811D01*
X3777612Y12484191D01*
X3828484Y12518182D01*
X3884734Y12602365D01*
X3899500Y12676599D01*
X3899500Y12700005D01*
X6510768Y12700005D01*
X6510768Y12699996D01*
X6529654Y12496181D01*
X6584358Y12303917D01*
X6585672Y12299299D01*
X6676912Y12116065D01*
X6676913Y12116064D01*
X6800266Y11952716D01*
X6951536Y11814815D01*
X7125566Y11707060D01*
X7125568Y11707060D01*
X7125573Y11707056D01*
X7316444Y11633112D01*
X7517653Y11595500D01*
X7517655Y11595500D01*
X7722345Y11595500D01*
X7722347Y11595500D01*
X7923556Y11633112D01*
X8114427Y11707056D01*
X8288462Y11814814D01*
X8439732Y11952715D01*
X8563088Y12116065D01*
X8654328Y12299299D01*
X8710345Y12496179D01*
X8720185Y12602365D01*
X8729232Y12699996D01*
X8729232Y12700005D01*
X9050768Y12700005D01*
X9050768Y12699996D01*
X9069654Y12496181D01*
X9124358Y12303917D01*
X9125672Y12299299D01*
X9216912Y12116065D01*
X9216913Y12116064D01*
X9340266Y11952716D01*
X9491536Y11814815D01*
X9665566Y11707060D01*
X9665568Y11707060D01*
X9665573Y11707056D01*
X9856444Y11633112D01*
X10057653Y11595500D01*
X10057655Y11595500D01*
X10262345Y11595500D01*
X10262347Y11595500D01*
X10463556Y11633112D01*
X10654427Y11707056D01*
X10828462Y11814814D01*
X10979732Y11952715D01*
X11103088Y12116065D01*
X11194328Y12299299D01*
X11250345Y12496179D01*
X11260185Y12602365D01*
X11269232Y12699996D01*
X11269232Y12700005D01*
X11250345Y12903820D01*
X11250345Y12903821D01*
X11194328Y13100701D01*
X11103088Y13283935D01*
X11033407Y13376208D01*
X10979733Y13447285D01*
X10828463Y13585186D01*
X10654433Y13692941D01*
X10654428Y13692943D01*
X10654427Y13692944D01*
X10620295Y13706167D01*
X10463559Y13766887D01*
X10463560Y13766887D01*
X10463557Y13766888D01*
X10463556Y13766888D01*
X10262347Y13804500D01*
X10057653Y13804500D01*
X9856444Y13766888D01*
X9856439Y13766887D01*
X9665577Y13692946D01*
X9665566Y13692941D01*
X9491536Y13585186D01*
X9340266Y13447285D01*
X9216913Y13283937D01*
X9125671Y13100699D01*
X9069654Y12903820D01*
X9050768Y12700005D01*
X8729232Y12700005D01*
X8710345Y12903820D01*
X8710345Y12903821D01*
X8654328Y13100701D01*
X8563088Y13283935D01*
X8493407Y13376208D01*
X8439733Y13447285D01*
X8288463Y13585186D01*
X8114433Y13692941D01*
X8114428Y13692943D01*
X8114427Y13692944D01*
X8080295Y13706167D01*
X7923559Y13766887D01*
X7923560Y13766887D01*
X7923557Y13766888D01*
X7923556Y13766888D01*
X7722347Y13804500D01*
X7517653Y13804500D01*
X7316444Y13766888D01*
X7316439Y13766887D01*
X7125577Y13692946D01*
X7125566Y13692941D01*
X6951536Y13585186D01*
X6800266Y13447285D01*
X6676913Y13283937D01*
X6585671Y13100699D01*
X6529654Y12903820D01*
X6510768Y12700005D01*
X3899500Y12700005D01*
X3899500Y13136636D01*
X3919502Y13204757D01*
X3973158Y13251250D01*
X3992882Y13258340D01*
X4021080Y13265896D01*
X4021082Y13265896D01*
X4028548Y13267898D01*
X4041482Y13271362D01*
X4128019Y13321324D01*
X4198676Y13391981D01*
X4209043Y13402348D01*
X4209050Y13402358D01*
X6217630Y15410938D01*
X6217640Y15410945D01*
X6298658Y15491963D01*
X6298664Y15491969D01*
X6298668Y15491977D01*
X6300755Y15494695D01*
X6303112Y15496417D01*
X6304504Y15497808D01*
X6304720Y15497592D01*
X6358091Y15536566D01*
X6428961Y15540792D01*
X6490866Y15506031D01*
X6524151Y15443320D01*
X6526184Y15406373D01*
X6510769Y15240005D01*
X6510768Y15239995D01*
X6529654Y15036181D01*
X6558066Y14936324D01*
X6585672Y14839299D01*
X6676912Y14656065D01*
X6676913Y14656064D01*
X6800266Y14492716D01*
X6951536Y14354815D01*
X7125566Y14247060D01*
X7125568Y14247060D01*
X7125573Y14247056D01*
X7316444Y14173112D01*
X7517653Y14135500D01*
X7517655Y14135500D01*
X7722345Y14135500D01*
X7722347Y14135500D01*
X7923556Y14173112D01*
X8114427Y14247056D01*
X8288462Y14354814D01*
X8439732Y14492715D01*
X8563088Y14656065D01*
X8654328Y14839299D01*
X8710345Y15036179D01*
X8727116Y15217167D01*
X8729232Y15239996D01*
X8729232Y15240005D01*
X9050768Y15240005D01*
X9050768Y15239996D01*
X9069654Y15036181D01*
X9098066Y14936324D01*
X9125672Y14839299D01*
X9216912Y14656065D01*
X9216913Y14656064D01*
X9340266Y14492716D01*
X9491536Y14354815D01*
X9665566Y14247060D01*
X9665568Y14247060D01*
X9665573Y14247056D01*
X9856444Y14173112D01*
X10057653Y14135500D01*
X10057655Y14135500D01*
X10262345Y14135500D01*
X10262347Y14135500D01*
X10463556Y14173112D01*
X10654427Y14247056D01*
X10828462Y14354814D01*
X10979732Y14492715D01*
X11103088Y14656065D01*
X11194328Y14839299D01*
X11250345Y15036179D01*
X11267116Y15217167D01*
X11269232Y15239996D01*
X11269232Y15240005D01*
X11250345Y15443820D01*
X11249555Y15446597D01*
X11194328Y15640701D01*
X11103088Y15823935D01*
X11050500Y15893573D01*
X10979733Y15987285D01*
X10828463Y16125186D01*
X10654433Y16232941D01*
X10654428Y16232943D01*
X10654427Y16232944D01*
X10626908Y16243605D01*
X10463559Y16306887D01*
X10463560Y16306887D01*
X10463557Y16306888D01*
X10463556Y16306888D01*
X10262347Y16344500D01*
X10057653Y16344500D01*
X9856444Y16306888D01*
X9856439Y16306887D01*
X9665577Y16232946D01*
X9665566Y16232941D01*
X9491536Y16125186D01*
X9340266Y15987285D01*
X9216913Y15823937D01*
X9125671Y15640699D01*
X9069654Y15443820D01*
X9050768Y15240005D01*
X8729232Y15240005D01*
X8710345Y15443820D01*
X8709555Y15446597D01*
X8654328Y15640701D01*
X8563088Y15823935D01*
X8510500Y15893573D01*
X8439733Y15987285D01*
X8288463Y16125186D01*
X8114433Y16232941D01*
X8114428Y16232943D01*
X8114427Y16232944D01*
X8086908Y16243605D01*
X7923559Y16306887D01*
X7923560Y16306887D01*
X7923557Y16306888D01*
X7923556Y16306888D01*
X7722347Y16344500D01*
X7517653Y16344500D01*
X7316444Y16306888D01*
X7316439Y16306887D01*
X7125577Y16232946D01*
X7125566Y16232941D01*
X6951536Y16125186D01*
X6800266Y15987285D01*
X6676912Y15823936D01*
X6676908Y15823931D01*
X6613279Y15696145D01*
X6565010Y15644081D01*
X6496256Y15626379D01*
X6428846Y15648658D01*
X6384182Y15703846D01*
X6374489Y15752308D01*
X6374489Y15782667D01*
X6374488Y15782685D01*
X6374488Y17267695D01*
X6394490Y17335816D01*
X6448146Y17382309D01*
X6518420Y17392413D01*
X6583000Y17362919D01*
X6613277Y17323861D01*
X6676912Y17196065D01*
X6676913Y17196064D01*
X6800266Y17032716D01*
X6951536Y16894815D01*
X7125566Y16787060D01*
X7125568Y16787060D01*
X7125573Y16787056D01*
X7316444Y16713112D01*
X7517653Y16675500D01*
X7517655Y16675500D01*
X7722345Y16675500D01*
X7722347Y16675500D01*
X7923556Y16713112D01*
X8114427Y16787056D01*
X8288462Y16894814D01*
X8439732Y17032715D01*
X8563088Y17196065D01*
X8654328Y17379299D01*
X8710345Y17576179D01*
X8717371Y17652000D01*
X8729232Y17779996D01*
X8729232Y17780005D01*
X8711090Y17975781D01*
X8710345Y17983821D01*
X8654328Y18180701D01*
X8631870Y18225801D01*
X8619411Y18295695D01*
X8646718Y18361230D01*
X8705120Y18401599D01*
X8774816Y18404302D01*
X8808517Y18395996D01*
X8810529Y18395500D01*
X8810530Y18395500D01*
X8969470Y18395500D01*
X8969471Y18395500D01*
X8969472Y18395501D01*
X8969477Y18395501D01*
X9005183Y18404302D01*
X9076111Y18401185D01*
X9134094Y18360215D01*
X9160723Y18294402D01*
X9148129Y18225802D01*
X9125672Y18180703D01*
X9125671Y18180701D01*
X9069654Y17983820D01*
X9050768Y17780005D01*
X9050768Y17779996D01*
X9069654Y17576181D01*
X9125501Y17379901D01*
X9125672Y17379299D01*
X9216912Y17196065D01*
X9216913Y17196064D01*
X9340266Y17032716D01*
X9491536Y16894815D01*
X9665566Y16787060D01*
X9665568Y16787060D01*
X9665573Y16787056D01*
X9856444Y16713112D01*
X10057653Y16675500D01*
X10057655Y16675500D01*
X10262345Y16675500D01*
X10262347Y16675500D01*
X10463556Y16713112D01*
X10654427Y16787056D01*
X10828462Y16894814D01*
X10979732Y17032715D01*
X11103088Y17196065D01*
X11194328Y17379299D01*
X11250345Y17576179D01*
X11266437Y17749847D01*
X11292638Y17815827D01*
X11350355Y17857171D01*
X11421261Y17860748D01*
X11480994Y17827312D01*
X11648595Y17659711D01*
X11682621Y17597399D01*
X11685500Y17570616D01*
X11685500Y14564904D01*
X11665498Y14496783D01*
X11643054Y14470592D01*
X11571503Y14407203D01*
X11571500Y14407200D01*
X11481215Y14276399D01*
X11481212Y14276393D01*
X11424849Y14127780D01*
X11405693Y13970004D01*
X11405693Y13969997D01*
X11424849Y13812221D01*
X11463101Y13711361D01*
X11481213Y13663605D01*
X11571502Y13532799D01*
X11690471Y13427401D01*
X11690472Y13427401D01*
X11690474Y13427399D01*
X11738179Y13402362D01*
X11831207Y13353537D01*
X11985529Y13315500D01*
X11985530Y13315500D01*
X12144470Y13315500D01*
X12144471Y13315500D01*
X12298793Y13353537D01*
X12439529Y13427401D01*
X12558498Y13532799D01*
X12648787Y13663605D01*
X12705149Y13812218D01*
X12705149Y13812219D01*
X12705150Y13812221D01*
X12724307Y13969997D01*
X12724307Y13970004D01*
X12705150Y14127780D01*
X12659914Y14247055D01*
X12648787Y14276395D01*
X12594658Y14354814D01*
X12558499Y14407200D01*
X12558496Y14407203D01*
X12486946Y14470592D01*
X12449221Y14530737D01*
X12444500Y14564904D01*
X12444500Y17719875D01*
X12444501Y17719888D01*
X12444501Y17829962D01*
X12444500Y17829964D01*
X12436251Y17860748D01*
X12418638Y17926481D01*
X12418638Y17926482D01*
X12391785Y17972993D01*
X12368678Y18013016D01*
X12368670Y18013026D01*
X12293630Y18088066D01*
X12293607Y18088087D01*
X10983374Y19398320D01*
X10949348Y19460632D01*
X10954413Y19531447D01*
X10976598Y19567782D01*
X10976222Y19568066D01*
X10979091Y19571867D01*
X10979364Y19572312D01*
X10979719Y19572704D01*
X10979732Y19572715D01*
X11103088Y19736065D01*
X11194328Y19919299D01*
X11250345Y20116179D01*
X11264767Y20271818D01*
X11269232Y20319996D01*
X11269232Y20320005D01*
X11250345Y20523820D01*
X11220986Y20627007D01*
X11194328Y20720701D01*
X11103088Y20903935D01*
X11040663Y20986599D01*
X10979733Y21067285D01*
X10828463Y21205186D01*
X10654433Y21312941D01*
X10654428Y21312943D01*
X10654427Y21312944D01*
X10562598Y21348519D01*
X10463559Y21386887D01*
X10463560Y21386887D01*
X10463557Y21386888D01*
X10463556Y21386888D01*
X10262347Y21424500D01*
X10057653Y21424500D01*
X9856455Y21386890D01*
X9856439Y21386887D01*
X9665577Y21312946D01*
X9665566Y21312941D01*
X9491536Y21205186D01*
X9340266Y21067285D01*
X9216912Y20903936D01*
X9216908Y20903931D01*
X9140002Y20749482D01*
X9091733Y20697418D01*
X9022979Y20679716D01*
X8955568Y20701996D01*
X8910905Y20757183D01*
X8909432Y20761062D01*
X8818419Y20968549D01*
X8695325Y21156959D01*
X8542902Y21322535D01*
X8365301Y21460768D01*
X8365300Y21460769D01*
X8167371Y21567883D01*
X8167369Y21567884D01*
X8056195Y21606049D01*
X7998260Y21647086D01*
X7971708Y21712931D01*
X7984969Y21782678D01*
X8033834Y21834183D01*
X8051581Y21842710D01*
X8114427Y21867056D01*
X8288462Y21974814D01*
X8439732Y22112715D01*
X8563088Y22276065D01*
X8654328Y22459299D01*
X8710345Y22656179D01*
X8729232Y22860000D01*
X8729232Y22860005D01*
X9050768Y22860005D01*
X9050768Y22859996D01*
X9069654Y22656181D01*
X9105933Y22528675D01*
X9125672Y22459299D01*
X9216912Y22276065D01*
X9216913Y22276064D01*
X9340266Y22112716D01*
X9491536Y21974815D01*
X9665566Y21867060D01*
X9665568Y21867060D01*
X9665573Y21867056D01*
X9856444Y21793112D01*
X10057653Y21755500D01*
X10057655Y21755500D01*
X10262345Y21755500D01*
X10262347Y21755500D01*
X10463556Y21793112D01*
X10654427Y21867056D01*
X10828462Y21974814D01*
X10979732Y22112715D01*
X11103088Y22276065D01*
X11194328Y22459299D01*
X11250345Y22656179D01*
X11269232Y22860000D01*
X11250345Y23063821D01*
X11194328Y23260701D01*
X11103088Y23443935D01*
X11048833Y23515781D01*
X10979733Y23607285D01*
X10828463Y23745186D01*
X10654433Y23852941D01*
X10654428Y23852943D01*
X10654427Y23852944D01*
X10620994Y23865896D01*
X10463559Y23926887D01*
X10463560Y23926887D01*
X10463557Y23926888D01*
X10463556Y23926888D01*
X10262347Y23964500D01*
X10057653Y23964500D01*
X9856444Y23926888D01*
X9856439Y23926887D01*
X9665577Y23852946D01*
X9665566Y23852941D01*
X9491536Y23745186D01*
X9340266Y23607285D01*
X9216913Y23443937D01*
X9125671Y23260699D01*
X9069654Y23063820D01*
X9050768Y22860005D01*
X8729232Y22860005D01*
X8710345Y23063821D01*
X8654328Y23260701D01*
X8563088Y23443935D01*
X8508833Y23515781D01*
X8439733Y23607285D01*
X8418782Y23626384D01*
X8381916Y23687058D01*
X8383705Y23758032D01*
X8423581Y23816772D01*
X8488885Y23844629D01*
X8503668Y23845499D01*
X8927303Y23845499D01*
X8927319Y23845498D01*
X8935037Y23845498D01*
X9034960Y23845498D01*
X9034961Y23845498D01*
X9111079Y23865895D01*
X9111081Y23865895D01*
X9118547Y23867897D01*
X9131481Y23871361D01*
X9218018Y23921323D01*
X9288675Y23991980D01*
X9299042Y24002347D01*
X9299049Y24002357D01*
X9635036Y24338344D01*
X9697346Y24372368D01*
X9768161Y24367303D01*
X9769601Y24366756D01*
X9856444Y24333112D01*
X10057653Y24295500D01*
X10057655Y24295500D01*
X10262345Y24295500D01*
X10262347Y24295500D01*
X10463556Y24333112D01*
X10654427Y24407056D01*
X10828462Y24514814D01*
X10979732Y24652715D01*
X11103088Y24816065D01*
X11194328Y24999299D01*
X11250345Y25196179D01*
X11269232Y25400000D01*
X11250345Y25603821D01*
X11194328Y25800701D01*
X11103088Y25983935D01*
X11025964Y26086064D01*
X10979733Y26147285D01*
X10828463Y26285186D01*
X10654433Y26392941D01*
X10654428Y26392943D01*
X10654427Y26392944D01*
X10620994Y26405896D01*
X10463559Y26466887D01*
X10463560Y26466887D01*
X10463557Y26466888D01*
X10463556Y26466888D01*
X10262347Y26504500D01*
X10057653Y26504500D01*
X9856444Y26466888D01*
X9856439Y26466887D01*
X9665577Y26392946D01*
X9665566Y26392941D01*
X9491536Y26285186D01*
X9340266Y26147285D01*
X9216913Y25983937D01*
X9125671Y25800699D01*
X9069654Y25603820D01*
X9050768Y25400005D01*
X9050768Y25399996D01*
X9069654Y25196181D01*
X9126878Y24995056D01*
X9126281Y24924062D01*
X9094784Y24871480D01*
X8864710Y24641404D01*
X8802398Y24607379D01*
X8775614Y24604499D01*
X8656363Y24604499D01*
X8588242Y24624501D01*
X8541749Y24678157D01*
X8531645Y24748431D01*
X8555813Y24806431D01*
X8557019Y24808030D01*
X8563088Y24816065D01*
X8654328Y24999299D01*
X8710345Y25196179D01*
X8729232Y25400000D01*
X8710345Y25603821D01*
X8654328Y25800701D01*
X8563088Y25983935D01*
X8485964Y26086064D01*
X8439733Y26147285D01*
X8418782Y26166384D01*
X8381916Y26227058D01*
X8383705Y26298032D01*
X8423581Y26356772D01*
X8488885Y26384629D01*
X8503668Y26385499D01*
X8927303Y26385499D01*
X8927319Y26385498D01*
X8935037Y26385498D01*
X9034960Y26385498D01*
X9034961Y26385498D01*
X9111079Y26405895D01*
X9111081Y26405895D01*
X9118547Y26407897D01*
X9131481Y26411361D01*
X9218018Y26461323D01*
X9288675Y26531980D01*
X9299042Y26542347D01*
X9299049Y26542357D01*
X9635036Y26878344D01*
X9697346Y26912368D01*
X9768161Y26907303D01*
X9769601Y26906756D01*
X9856444Y26873112D01*
X10057653Y26835500D01*
X10057655Y26835500D01*
X10262345Y26835500D01*
X10262347Y26835500D01*
X10463556Y26873112D01*
X10654427Y26947056D01*
X10828462Y27054814D01*
X10979732Y27192715D01*
X11103088Y27356065D01*
X11194328Y27539299D01*
X11250345Y27736179D01*
X11269232Y27940000D01*
X11266888Y27965292D01*
X11250411Y28143112D01*
X11250345Y28143821D01*
X11194328Y28340701D01*
X11103088Y28523935D01*
X11025964Y28626064D01*
X10979733Y28687285D01*
X10828463Y28825186D01*
X10654433Y28932941D01*
X10654428Y28932943D01*
X10654427Y28932944D01*
X10654422Y28932946D01*
X10463559Y29006887D01*
X10463560Y29006887D01*
X10463557Y29006888D01*
X10463556Y29006888D01*
X10262347Y29044500D01*
X10057653Y29044500D01*
X9856444Y29006888D01*
X9856439Y29006887D01*
X9665577Y28932946D01*
X9665566Y28932941D01*
X9491536Y28825186D01*
X9340266Y28687285D01*
X9216912Y28523937D01*
X9216789Y28523688D01*
X9216698Y28523591D01*
X9213845Y28518982D01*
X9212943Y28519541D01*
X9168518Y28471626D01*
X9099763Y28453926D01*
X9032353Y28476208D01*
X8987691Y28531397D01*
X8978000Y28579855D01*
X8978000Y28838586D01*
X8977999Y28838598D01*
X8971494Y28899094D01*
X8920444Y29035965D01*
X8920444Y29035966D01*
X8832904Y29152905D01*
X8756628Y29210005D01*
X15400768Y29210005D01*
X15400768Y29209996D01*
X15419654Y29006181D01*
X15440492Y28932944D01*
X15475672Y28809299D01*
X15566912Y28626065D01*
X15566913Y28626064D01*
X15690266Y28462716D01*
X15841536Y28324815D01*
X16015566Y28217060D01*
X16015568Y28217060D01*
X16015573Y28217056D01*
X16206444Y28143112D01*
X16407653Y28105500D01*
X16407655Y28105500D01*
X16612345Y28105500D01*
X16612347Y28105500D01*
X16813556Y28143112D01*
X17004427Y28217056D01*
X17113170Y28284388D01*
X17181617Y28303242D01*
X17249393Y28282099D01*
X17294978Y28227670D01*
X17305501Y28177260D01*
X17305501Y28054387D01*
X17285499Y27986266D01*
X17268596Y27965292D01*
X17034964Y27731660D01*
X16972652Y27697634D01*
X16901837Y27702699D01*
X16900353Y27703263D01*
X16813557Y27736888D01*
X16746486Y27749426D01*
X16612347Y27774500D01*
X16407653Y27774500D01*
X16206444Y27736888D01*
X16206439Y27736887D01*
X16015577Y27662946D01*
X16015566Y27662941D01*
X15841536Y27555186D01*
X15690266Y27417285D01*
X15566913Y27253937D01*
X15475671Y27070699D01*
X15419654Y26873820D01*
X15400768Y26670005D01*
X15400768Y26669996D01*
X15419654Y26466181D01*
X15442858Y26384629D01*
X15475672Y26269299D01*
X15566912Y26086065D01*
X15566913Y26086064D01*
X15690266Y25922716D01*
X15841536Y25784815D01*
X16015566Y25677060D01*
X16015568Y25677060D01*
X16015573Y25677056D01*
X16206444Y25603112D01*
X16407653Y25565500D01*
X16407655Y25565500D01*
X16612345Y25565500D01*
X16612347Y25565500D01*
X16813556Y25603112D01*
X17004427Y25677056D01*
X17178462Y25784814D01*
X17329732Y25922715D01*
X17453088Y26086065D01*
X17544328Y26269299D01*
X17600345Y26466179D01*
X17610284Y26573438D01*
X17619232Y26669996D01*
X17619232Y26670005D01*
X17940768Y26670005D01*
X17940768Y26669996D01*
X17959654Y26466181D01*
X17982858Y26384629D01*
X18015672Y26269299D01*
X18106912Y26086065D01*
X18106913Y26086064D01*
X18230266Y25922716D01*
X18381536Y25784815D01*
X18555566Y25677060D01*
X18555568Y25677060D01*
X18555573Y25677056D01*
X18746444Y25603112D01*
X18947653Y25565500D01*
X18947655Y25565500D01*
X19152345Y25565500D01*
X19152347Y25565500D01*
X19353556Y25603112D01*
X19544427Y25677056D01*
X19718462Y25784814D01*
X19869732Y25922715D01*
X19993088Y26086065D01*
X20084328Y26269299D01*
X20140345Y26466179D01*
X20150284Y26573438D01*
X20159232Y26669996D01*
X20159232Y26670005D01*
X20140411Y26873112D01*
X20140345Y26873821D01*
X20084328Y27070701D01*
X19993088Y27253935D01*
X19915964Y27356064D01*
X19869733Y27417285D01*
X19718463Y27555186D01*
X19544433Y27662941D01*
X19544428Y27662943D01*
X19544427Y27662944D01*
X19440352Y27703263D01*
X19353559Y27736887D01*
X19353560Y27736887D01*
X19353557Y27736888D01*
X19353556Y27736888D01*
X19152347Y27774500D01*
X18947653Y27774500D01*
X18746444Y27736888D01*
X18746439Y27736887D01*
X18555577Y27662946D01*
X18555566Y27662941D01*
X18381536Y27555186D01*
X18230266Y27417285D01*
X18106913Y27253937D01*
X18015671Y27070699D01*
X17959654Y26873820D01*
X17940768Y26670005D01*
X17619232Y26670005D01*
X17600411Y26873112D01*
X17600345Y26873821D01*
X17548848Y27054815D01*
X17543120Y27074947D01*
X17543716Y27145941D01*
X17575213Y27198521D01*
X17907643Y27530951D01*
X17907653Y27530958D01*
X17988671Y27611976D01*
X17988677Y27611982D01*
X18038639Y27698519D01*
X18064501Y27795039D01*
X18064501Y28328469D01*
X18084503Y28396590D01*
X18138159Y28443083D01*
X18208433Y28453187D01*
X18273013Y28423693D01*
X18275367Y28421602D01*
X18381538Y28324814D01*
X18416378Y28303242D01*
X18555566Y28217060D01*
X18555568Y28217060D01*
X18555573Y28217056D01*
X18746444Y28143112D01*
X18947653Y28105500D01*
X18947655Y28105500D01*
X19152345Y28105500D01*
X19152347Y28105500D01*
X19353556Y28143112D01*
X19544427Y28217056D01*
X19718462Y28324814D01*
X19869732Y28462715D01*
X19879922Y28476208D01*
X19890006Y28489564D01*
X19993088Y28626065D01*
X20084328Y28809299D01*
X20140345Y29006179D01*
X20146640Y29074120D01*
X20159232Y29209996D01*
X20159232Y29210005D01*
X20140345Y29413820D01*
X20140345Y29413821D01*
X20084328Y29610701D01*
X19993088Y29793935D01*
X19952538Y29847632D01*
X19869733Y29957285D01*
X19718463Y30095186D01*
X19544433Y30202941D01*
X19544428Y30202943D01*
X19544427Y30202944D01*
X19544422Y30202946D01*
X19353559Y30276887D01*
X19353560Y30276887D01*
X19353557Y30276888D01*
X19353556Y30276888D01*
X19152347Y30314500D01*
X18947653Y30314500D01*
X18746444Y30276888D01*
X18746439Y30276887D01*
X18555577Y30202946D01*
X18555566Y30202941D01*
X18381536Y30095186D01*
X18275387Y29998417D01*
X18211570Y29967306D01*
X18141063Y29975636D01*
X18086253Y30020762D01*
X18064541Y30088357D01*
X18064501Y30091532D01*
X18064501Y30175617D01*
X18084503Y30243738D01*
X18101401Y30264708D01*
X18525035Y30688343D01*
X18587346Y30722366D01*
X18658161Y30717302D01*
X18659645Y30716738D01*
X18746444Y30683112D01*
X18947653Y30645500D01*
X18947655Y30645500D01*
X19152345Y30645500D01*
X19152347Y30645500D01*
X19353556Y30683112D01*
X19544427Y30757056D01*
X19718462Y30864814D01*
X19869732Y31002715D01*
X19993088Y31166065D01*
X20084328Y31349299D01*
X20140345Y31546179D01*
X20159232Y31750000D01*
X20154853Y31797252D01*
X20140345Y31953820D01*
X20130132Y31989715D01*
X20084328Y32150701D01*
X19993088Y32333935D01*
X19925146Y32423905D01*
X19869733Y32497285D01*
X19718463Y32635186D01*
X19544433Y32742941D01*
X19544428Y32742943D01*
X19544427Y32742944D01*
X19544422Y32742946D01*
X19353559Y32816887D01*
X19353560Y32816887D01*
X19353557Y32816888D01*
X19353556Y32816888D01*
X19152347Y32854500D01*
X18947653Y32854500D01*
X18746444Y32816888D01*
X18746439Y32816887D01*
X18555577Y32742946D01*
X18555566Y32742941D01*
X18381536Y32635186D01*
X18230266Y32497285D01*
X18106913Y32333937D01*
X18015671Y32150699D01*
X17959654Y31953820D01*
X17940768Y31750005D01*
X17940768Y31749996D01*
X17959654Y31546181D01*
X18016879Y31345056D01*
X18016283Y31274062D01*
X17984784Y31221480D01*
X17829594Y31066290D01*
X17767282Y31032264D01*
X17696467Y31037329D01*
X17639631Y31079876D01*
X17614820Y31146396D01*
X17614499Y31155362D01*
X17614499Y32625066D01*
X17614498Y32625070D01*
X17614498Y32625074D01*
X17599734Y32699301D01*
X17543483Y32783485D01*
X17459302Y32839734D01*
X17385067Y32854500D01*
X15634936Y32854500D01*
X15634926Y32854499D01*
X15560699Y32839735D01*
X15476515Y32783484D01*
X15420266Y32699303D01*
X15405500Y32625070D01*
X15405500Y30874937D01*
X15405501Y30874927D01*
X15420265Y30800700D01*
X15476516Y30716516D01*
X15560697Y30660267D01*
X15560699Y30660266D01*
X15634933Y30645500D01*
X17197707Y30645501D01*
X17265828Y30625499D01*
X17312321Y30571843D01*
X17322425Y30501569D01*
X17319414Y30486890D01*
X17305500Y30434963D01*
X17305500Y30324889D01*
X17305501Y30324876D01*
X17305501Y30242741D01*
X17285499Y30174620D01*
X17231843Y30128127D01*
X17161569Y30118023D01*
X17113171Y30135613D01*
X17004430Y30202942D01*
X17004431Y30202942D01*
X17004427Y30202944D01*
X17004422Y30202946D01*
X16813559Y30276887D01*
X16813560Y30276887D01*
X16813557Y30276888D01*
X16813556Y30276888D01*
X16612347Y30314500D01*
X16407653Y30314500D01*
X16206444Y30276888D01*
X16206439Y30276887D01*
X16015577Y30202946D01*
X16015566Y30202941D01*
X15841536Y30095186D01*
X15690266Y29957285D01*
X15566913Y29793937D01*
X15475671Y29610699D01*
X15419654Y29413820D01*
X15400768Y29210005D01*
X8756628Y29210005D01*
X8715965Y29240445D01*
X8579093Y29291495D01*
X8518597Y29298000D01*
X7874000Y29298000D01*
X7874000Y28370703D01*
X7812993Y28405925D01*
X7685826Y28440000D01*
X7554174Y28440000D01*
X7427007Y28405925D01*
X7366000Y28370703D01*
X7366000Y29298000D01*
X6721402Y29298000D01*
X6660906Y29291495D01*
X6524035Y29240445D01*
X6524034Y29240445D01*
X6407095Y29152905D01*
X6319555Y29035966D01*
X6319555Y29035965D01*
X6268505Y28899094D01*
X6262000Y28838598D01*
X6262000Y28194000D01*
X7189297Y28194000D01*
X7154075Y28132993D01*
X7120000Y28005826D01*
X7120000Y27874174D01*
X7154075Y27747007D01*
X7189297Y27686000D01*
X6262000Y27686000D01*
X6262000Y27041403D01*
X6268505Y26980907D01*
X6319555Y26844036D01*
X6319555Y26844035D01*
X6407095Y26727097D01*
X6441838Y26701089D01*
X6484385Y26644254D01*
X6489451Y26573438D01*
X6455426Y26511125D01*
X5065709Y25121405D01*
X5003396Y25087380D01*
X4976613Y25084500D01*
X4025499Y25084500D01*
X3957378Y25104502D01*
X3910885Y25158158D01*
X3899499Y25210500D01*
X3899499Y25653398D01*
X3899498Y25653407D01*
X3884734Y25727635D01*
X3846527Y25784815D01*
X3828484Y25811818D01*
X3828483Y25811819D01*
X3777612Y25845811D01*
X3732085Y25900288D01*
X3723238Y25970732D01*
X3753880Y26034775D01*
X3803584Y26068631D01*
X3890963Y26101221D01*
X3890965Y26101222D01*
X4007904Y26188762D01*
X4095444Y26305701D01*
X4095444Y26305702D01*
X4146494Y26442573D01*
X4152999Y26503069D01*
X4153000Y26503081D01*
X4153000Y27221000D01*
X2031000Y27221000D01*
X1962879Y27241002D01*
X1916386Y27294658D01*
X1905000Y27347000D01*
X1905000Y27475000D01*
X1777000Y27475000D01*
X1708879Y27495002D01*
X1662386Y27548658D01*
X1651000Y27601000D01*
X1651000Y27729000D01*
X2159000Y27729000D01*
X4153000Y27729000D01*
X4153000Y28446920D01*
X4152999Y28446932D01*
X4146494Y28507428D01*
X4095444Y28644299D01*
X4095444Y28644300D01*
X4007904Y28761239D01*
X3890965Y28848779D01*
X3754093Y28899829D01*
X3693597Y28906334D01*
X2159000Y28906334D01*
X2159000Y27729000D01*
X1651000Y27729000D01*
X1651000Y28906334D01*
X380000Y28906334D01*
X311879Y28926336D01*
X265386Y28979992D01*
X254000Y29032334D01*
X254000Y33141291D01*
X689500Y33141291D01*
X689500Y32898710D01*
X721160Y32658218D01*
X783944Y32423905D01*
X783945Y32423903D01*
X783946Y32423900D01*
X876776Y32199788D01*
X876777Y32199787D01*
X876782Y32199776D01*
X998061Y31989715D01*
X998063Y31989712D01*
X998064Y31989711D01*
X1145735Y31797262D01*
X1145739Y31797258D01*
X1145744Y31797252D01*
X1317251Y31625745D01*
X1317256Y31625741D01*
X1317262Y31625735D01*
X1420942Y31546179D01*
X1509714Y31478062D01*
X1719775Y31356783D01*
X1719779Y31356782D01*
X1719788Y31356776D01*
X1943900Y31263946D01*
X2178211Y31201162D01*
X2178215Y31201162D01*
X2178217Y31201161D01*
X2240202Y31193001D01*
X2418712Y31169500D01*
X2418719Y31169500D01*
X2661281Y31169500D01*
X2661288Y31169500D01*
X2878637Y31198115D01*
X2901782Y31201161D01*
X2901782Y31201162D01*
X2901789Y31201162D01*
X3136100Y31263946D01*
X3360212Y31356776D01*
X3570289Y31478064D01*
X3762738Y31625735D01*
X3934265Y31797262D01*
X4081936Y31989711D01*
X4203224Y32199788D01*
X4296054Y32423900D01*
X4358838Y32658211D01*
X4390500Y32898712D01*
X4390500Y33141288D01*
X4390500Y33141291D01*
X31169500Y33141291D01*
X31169500Y32898710D01*
X31201160Y32658218D01*
X31263944Y32423905D01*
X31263945Y32423903D01*
X31263946Y32423900D01*
X31356776Y32199788D01*
X31356777Y32199787D01*
X31356782Y32199776D01*
X31478061Y31989715D01*
X31478063Y31989712D01*
X31478064Y31989711D01*
X31625735Y31797262D01*
X31625739Y31797258D01*
X31625744Y31797252D01*
X31797251Y31625745D01*
X31797256Y31625741D01*
X31797262Y31625735D01*
X31900942Y31546179D01*
X31989714Y31478062D01*
X32199775Y31356783D01*
X32199779Y31356782D01*
X32199788Y31356776D01*
X32423900Y31263946D01*
X32658211Y31201162D01*
X32658215Y31201162D01*
X32658217Y31201161D01*
X32720202Y31193001D01*
X32898712Y31169500D01*
X32898719Y31169500D01*
X33141281Y31169500D01*
X33141288Y31169500D01*
X33358637Y31198115D01*
X33381782Y31201161D01*
X33381782Y31201162D01*
X33381789Y31201162D01*
X33616100Y31263946D01*
X33840212Y31356776D01*
X34050289Y31478064D01*
X34242738Y31625735D01*
X34414265Y31797262D01*
X34561936Y31989711D01*
X34683224Y32199788D01*
X34776054Y32423900D01*
X34838838Y32658211D01*
X34870500Y32898712D01*
X34870500Y33141288D01*
X34838838Y33381789D01*
X34776054Y33616100D01*
X34683224Y33840212D01*
X34683218Y33840221D01*
X34683217Y33840225D01*
X34561938Y34050286D01*
X34561936Y34050289D01*
X34414265Y34242738D01*
X34414259Y34242744D01*
X34414255Y34242749D01*
X34242748Y34414256D01*
X34242742Y34414261D01*
X34242738Y34414265D01*
X34050289Y34561936D01*
X34050288Y34561937D01*
X34050285Y34561939D01*
X33840224Y34683218D01*
X33840216Y34683222D01*
X33840212Y34683224D01*
X33616100Y34776054D01*
X33616097Y34776055D01*
X33616095Y34776056D01*
X33381782Y34838840D01*
X33141290Y34870500D01*
X33141288Y34870500D01*
X32898712Y34870500D01*
X32898709Y34870500D01*
X32658217Y34838840D01*
X32423904Y34776056D01*
X32423900Y34776054D01*
X32199786Y34683223D01*
X32199775Y34683218D01*
X31989714Y34561939D01*
X31797262Y34414265D01*
X31797251Y34414256D01*
X31625744Y34242749D01*
X31625735Y34242738D01*
X31478061Y34050286D01*
X31356782Y33840225D01*
X31356777Y33840214D01*
X31263946Y33616100D01*
X31263944Y33616096D01*
X31201160Y33381783D01*
X31169500Y33141291D01*
X4390500Y33141291D01*
X4358838Y33381789D01*
X4296054Y33616100D01*
X4203224Y33840212D01*
X4203218Y33840221D01*
X4203217Y33840225D01*
X4081938Y34050286D01*
X4081936Y34050289D01*
X3934265Y34242738D01*
X3934259Y34242744D01*
X3934255Y34242749D01*
X3762748Y34414256D01*
X3762742Y34414261D01*
X3762738Y34414265D01*
X3570289Y34561936D01*
X3570288Y34561937D01*
X3570285Y34561939D01*
X3360224Y34683218D01*
X3360216Y34683222D01*
X3360212Y34683224D01*
X3136100Y34776054D01*
X3136097Y34776055D01*
X3136095Y34776056D01*
X2901782Y34838840D01*
X2661290Y34870500D01*
X2661288Y34870500D01*
X2418712Y34870500D01*
X2418709Y34870500D01*
X2178217Y34838840D01*
X1943904Y34776056D01*
X1943900Y34776054D01*
X1719786Y34683223D01*
X1719775Y34683218D01*
X1509714Y34561939D01*
X1317262Y34414265D01*
X1317251Y34414256D01*
X1145744Y34242749D01*
X1145735Y34242738D01*
X998061Y34050286D01*
X876782Y33840225D01*
X876777Y33840214D01*
X783946Y33616100D01*
X783944Y33616096D01*
X721160Y33381783D01*
X689500Y33141291D01*
X254000Y33141291D01*
X254000Y35180000D01*
X274002Y35248121D01*
X327658Y35294614D01*
X380000Y35306000D01*
X35180000Y35306000D01*
X35248121Y35285998D01*
G37*
G04 #@! TD.AperFunction*
M02*
