M48
; DRILL file {KiCad 8.0.9} date 2026-08-25T23:03:39+0900
; FORMAT={3:3/ absolute / metric / suppress leading zeros}
; #@! TF.CreationDate,2026-08-25T23:03:39+09:00
; #@! TF.GenerationSoftware,Kicad,Pcbnew,8.0.9
; #@! TF.FileFunction,MixedPlating,1,2
FMAT,2
METRIC,TZ
; #@! TA.AperFunction,Plated,PTH,ViaDrill
T1C0.400
; #@! TA.AperFunction,Plated,PTH,ComponentDrill
T2C1.000
; #@! TA.AperFunction,NonPlated,NPTH,ComponentDrill
T3C3.200
%
G90
G05
T1
X5715Y8255
X8890Y31750
X8890Y21590
X8890Y19050
X8890Y6350
X12065Y20320
X12065Y13970
X13335Y24130
X14605Y25400
X17780Y23495
X17780Y12065
X22860Y22860
X22860Y16510
X23495Y19050
X26670Y26670
X26670Y5715
X29210Y19050
T2
X7620Y27940
X7620Y25400
X7620Y22860
X7620Y20320
X7620Y17780
X7620Y15240
X7620Y12700
X7620Y10160
X10160Y27940
X10160Y25400
X10160Y22860
X10160Y20320
X10160Y17780
X10160Y15240
X10160Y12700
X10160Y10160
X16510Y31750
X16510Y29210
X16510Y26670
X16510Y20320
X16510Y17780
X16510Y15240
X16510Y8890
X16510Y6350
X16510Y3810
X19050Y31750
X19050Y29210
X19050Y26670
X19050Y20320
X19050Y17780
X19050Y15240
X19050Y8890
X19050Y6350
X19050Y3810
X25400Y22860
X25400Y20320
X25400Y17780
X25400Y15240
X25400Y12700
X27940Y22860
X27940Y20320
X27940Y17780
X27940Y15240
X27940Y12700
T3
X2540Y33020
X2540Y2540
X33020Y33020
X33020Y2540
M30
