G04 #@! TF.GenerationSoftware,KiCad,Pcbnew,8.0.9*
G04 #@! TF.CreationDate,2026-08-25T23:03:36+09:00*
G04 #@! TF.ProjectId,FM11D15D9,464d3131-4431-4354-9439-2e6b69636164,rev?*
G04 #@! TF.SameCoordinates,PX48ab840PY791ddc0*
G04 #@! TF.FileFunction,Soldermask,Top*
G04 #@! TF.FilePolarity,Negative*
%FSLAX46Y46*%
G04 Gerber Fmt 4.6, Leading zero omitted, Abs format (unit mm)*
G04 Created by KiCad (PCBNEW 8.0.9) date 2026-08-25 23:03:36*
%MOMM*%
%LPD*%
G01*
G04 APERTURE LIST*
%ADD10C,3.200000*%
%ADD11R,3.480000X1.846667*%
%ADD12R,1.700000X1.700000*%
%ADD13O,1.700000X1.700000*%
%ADD14C,0.800000*%
G04 APERTURE END LIST*
D10*
X33020000Y2540000D03*
X33020000Y33020000D03*
X2540000Y2540000D03*
X2540000Y33020000D03*
D11*
X1905000Y27475000D03*
X1905000Y24705000D03*
X1905000Y21935000D03*
X1905000Y19165000D03*
X1905000Y16395000D03*
X1905000Y13625000D03*
X1905000Y10855000D03*
X1905000Y8085000D03*
X33655000Y12240000D03*
X33655000Y15010000D03*
X33655000Y17780000D03*
X33655000Y20550000D03*
X33655000Y23320000D03*
D12*
X16510000Y31750000D03*
D13*
X19050000Y31750000D03*
X16510000Y29210000D03*
X19050000Y29210000D03*
X16510000Y26670000D03*
X19050000Y26670000D03*
X19050000Y15240000D03*
X16510000Y15240000D03*
X19050000Y17780000D03*
X16510000Y17780000D03*
X19050000Y20320000D03*
D12*
X16510000Y20320000D03*
X16510000Y8890000D03*
D13*
X19050000Y8890000D03*
X16510000Y6350000D03*
X19050000Y6350000D03*
X16510000Y3810000D03*
X19050000Y3810000D03*
D12*
X7620000Y27940000D03*
D13*
X10160000Y27940000D03*
X7620000Y25400000D03*
X10160000Y25400000D03*
X7620000Y22860000D03*
X10160000Y22860000D03*
X7620000Y20320000D03*
X10160000Y20320000D03*
X7620000Y17780000D03*
X10160000Y17780000D03*
X7620000Y15240000D03*
X10160000Y15240000D03*
X7620000Y12700000D03*
X10160000Y12700000D03*
X7620000Y10160000D03*
X10160000Y10160000D03*
D12*
X27940000Y12700000D03*
D13*
X25400000Y12700000D03*
X27940000Y15240000D03*
X25400000Y15240000D03*
X27940000Y17780000D03*
X25400000Y17780000D03*
X27940000Y20320000D03*
X25400000Y20320000D03*
X27940000Y22860000D03*
X25400000Y22860000D03*
D14*
X17780000Y23495000D03*
X17780000Y12065000D03*
X8890000Y6350000D03*
X8890000Y31750000D03*
X26670000Y26670000D03*
X26670000Y5715000D03*
X22860000Y16510000D03*
X29210000Y19050000D03*
X12065000Y20320000D03*
X8890000Y21590000D03*
X14605000Y25400000D03*
X13335000Y24130000D03*
X8890000Y19050000D03*
X12065000Y13970000D03*
X5715000Y8255000D03*
X23495000Y19050000D03*
X22860000Y22860000D03*
M02*
