G04 #@! TF.GenerationSoftware,KiCad,Pcbnew,8.0.9*
G04 #@! TF.CreationDate,2026-08-25T23:03:36+09:00*
G04 #@! TF.ProjectId,FM11D15D9,464d3131-4431-4354-9439-2e6b69636164,rev?*
G04 #@! TF.SameCoordinates,PX48ab840PY791ddc0*
G04 #@! TF.FileFunction,Copper,L2,Bot*
G04 #@! TF.FilePolarity,Positive*
%FSLAX46Y46*%
G04 Gerber Fmt 4.6, Leading zero omitted, Abs format (unit mm)*
G04 Created by KiCad (PCBNEW 8.0.9) date 2026-08-25 23:03:36*
%MOMM*%
%LPD*%
G01*
G04 APERTURE LIST*
G04 #@! TA.AperFunction,SMDPad,CuDef*
%ADD10R,3.480000X1.846667*%
G04 #@! TD*
G04 #@! TA.AperFunction,ComponentPad*
%ADD11R,1.700000X1.700000*%
G04 #@! TD*
G04 #@! TA.AperFunction,ComponentPad*
%ADD12O,1.700000X1.700000*%
G04 #@! TD*
G04 #@! TA.AperFunction,ViaPad*
%ADD13C,0.800000*%
G04 #@! TD*
G04 #@! TA.AperFunction,Conductor*
%ADD14C,0.250000*%
G04 #@! TD*
G04 APERTURE END LIST*
D10*
X1905000Y26090000D03*
X1905000Y23320000D03*
X1905000Y20550000D03*
X1905000Y17780000D03*
X1905000Y15010000D03*
X1905000Y12240000D03*
X1905000Y9470000D03*
X33655000Y13625000D03*
X33655000Y16395000D03*
X33655000Y19165000D03*
X33655000Y21935000D03*
D11*
X16510000Y31750000D03*
D12*
X19050000Y31750000D03*
X16510000Y29210000D03*
X19050000Y29210000D03*
X16510000Y26670000D03*
X19050000Y26670000D03*
X19050000Y15240000D03*
X16510000Y15240000D03*
X19050000Y17780000D03*
X16510000Y17780000D03*
X19050000Y20320000D03*
D11*
X16510000Y20320000D03*
X16510000Y8890000D03*
D12*
X19050000Y8890000D03*
X16510000Y6350000D03*
X19050000Y6350000D03*
X16510000Y3810000D03*
X19050000Y3810000D03*
D11*
X7620000Y27940000D03*
D12*
X10160000Y27940000D03*
X7620000Y25400000D03*
X10160000Y25400000D03*
X7620000Y22860000D03*
X10160000Y22860000D03*
X7620000Y20320000D03*
X10160000Y20320000D03*
X7620000Y17780000D03*
X10160000Y17780000D03*
X7620000Y15240000D03*
X10160000Y15240000D03*
X7620000Y12700000D03*
X10160000Y12700000D03*
X7620000Y10160000D03*
X10160000Y10160000D03*
D11*
X27940000Y12700000D03*
D12*
X25400000Y12700000D03*
X27940000Y15240000D03*
X25400000Y15240000D03*
X27940000Y17780000D03*
X25400000Y17780000D03*
X27940000Y20320000D03*
X25400000Y20320000D03*
X27940000Y22860000D03*
X25400000Y22860000D03*
D13*
X17780000Y23495000D03*
X17780000Y12065000D03*
X8890000Y6350000D03*
X8890000Y31750000D03*
X26670000Y26670000D03*
X26670000Y5715000D03*
X22860000Y16510000D03*
X29210000Y19050000D03*
X12065000Y20320000D03*
X8890000Y21590000D03*
X14605000Y25400000D03*
X13335000Y24130000D03*
X8890000Y19050000D03*
X12065000Y13970000D03*
X5715000Y8255000D03*
X23495000Y19050000D03*
X22860000Y22860000D03*
D14*
X7620000Y20320000D02*
X8890000Y21590000D01*
X15240000Y27940000D02*
X16510000Y29210000D01*
X10160000Y27940000D02*
X10795000Y27305000D01*
X10795000Y27305000D02*
X14605000Y27305000D01*
X14605000Y27305000D02*
X15240000Y27940000D01*
X17874999Y28034999D02*
X19050000Y29210000D01*
X16135997Y28034999D02*
X17874999Y28034999D01*
X14675999Y26575001D02*
X16135997Y28034999D01*
X8795001Y26575001D02*
X14675999Y26575001D01*
X7620000Y25400000D02*
X8795001Y26575001D01*
X10160000Y25400000D02*
X14605000Y25400000D01*
X14605000Y25400000D02*
X14605000Y25400000D01*
X8890000Y24130000D02*
X7620000Y22860000D01*
X13335000Y24130000D02*
X8890000Y24130000D01*
X17780000Y19050000D02*
X19050000Y17780000D01*
X11430000Y22860000D02*
X15240000Y19050000D01*
X10160000Y22860000D02*
X11430000Y22860000D01*
X15240000Y19050000D02*
X17780000Y19050000D01*
X8890000Y19050000D02*
X15240000Y19050000D01*
X27139002Y12700000D02*
X27940000Y12700000D01*
X25869002Y13970000D02*
X27139002Y12700000D01*
X12065000Y13970000D02*
X25869002Y13970000D01*
X12065000Y10325998D02*
X12065000Y13970000D01*
X9994002Y8255000D02*
X12065000Y10325998D01*
X5715000Y8255000D02*
X9994002Y8255000D01*
X1905000Y23320000D02*
X3895000Y23320000D01*
X3895000Y23320000D02*
X5994988Y21220012D01*
X5994988Y17666010D02*
X7055999Y16604999D01*
X5994988Y21220012D02*
X5994988Y17666010D01*
X7055999Y16604999D02*
X8984999Y16604999D01*
X8984999Y16604999D02*
X10160000Y17780000D01*
X10160000Y17780000D02*
X16510000Y17780000D01*
X22860000Y20320000D02*
X16510000Y26670000D01*
X22860000Y20320000D02*
X23495000Y19685000D01*
X23495000Y19685000D02*
X23495000Y19050000D01*
X19050000Y24930998D02*
X19050000Y26670000D01*
X24835999Y19144999D02*
X19050000Y24930998D01*
X25774003Y19144999D02*
X24835999Y19144999D01*
X26575001Y18344001D02*
X25774003Y19144999D01*
X26575001Y17405997D02*
X26575001Y18344001D01*
X27940000Y16040998D02*
X26575001Y17405997D01*
X27940000Y15240000D02*
X27940000Y16040998D01*
X20225001Y27845001D02*
X19050000Y26670000D01*
X20225001Y29774001D02*
X20225001Y27845001D01*
X19614001Y30385001D02*
X20225001Y29774001D01*
X17874999Y30385001D02*
X19614001Y30385001D01*
X16510000Y31750000D02*
X17874999Y30385001D01*
X19050000Y15240000D02*
X25400000Y15240000D01*
X19614001Y18955001D02*
X20320000Y18249002D01*
X18675997Y18955001D02*
X19614001Y18955001D01*
X17310998Y20320000D02*
X18675997Y18955001D01*
X16510000Y20320000D02*
X17310998Y20320000D01*
X20320000Y16510000D02*
X19050000Y15240000D01*
X20320000Y18249002D02*
X20320000Y16510000D01*
X26575001Y16604999D02*
X25400000Y17780000D01*
X26575001Y14865997D02*
X26575001Y16604999D01*
X27375999Y14064999D02*
X26575001Y14865997D01*
X33215001Y14064999D02*
X27375999Y14064999D01*
X33655000Y13625000D02*
X33215001Y14064999D01*
X21590000Y17780000D02*
X19050000Y20320000D01*
X25400000Y17780000D02*
X21590000Y17780000D01*
X27940000Y20320000D02*
X30480000Y20320000D01*
X30480000Y20320000D02*
X31115000Y19685000D01*
X31665000Y16395000D02*
X33655000Y16395000D01*
X31115000Y16945000D02*
X31665000Y16395000D01*
X31115000Y19685000D02*
X31115000Y16945000D01*
X26575001Y21495001D02*
X25400000Y20320000D01*
X28504001Y21495001D02*
X26575001Y21495001D01*
X22860000Y22860000D02*
X25400000Y20320000D01*
X17685001Y4985001D02*
X17685001Y7525001D01*
X17685001Y7525001D02*
X19050000Y8890000D01*
X16510000Y3810000D02*
X17685001Y4985001D01*
X29127001Y20872001D02*
X31032001Y20872001D01*
X29127001Y20872001D02*
X28504001Y21495001D01*
X32739002Y19165000D02*
X33655000Y19165000D01*
X31032001Y20872001D02*
X32739002Y19165000D01*
X6444998Y18955002D02*
X7620000Y17780000D01*
X6444998Y22028337D02*
X6444998Y18955002D01*
X1905000Y26090000D02*
X4390000Y26090000D01*
X4390000Y26090000D02*
X5080000Y25400000D01*
X5029168Y25349168D02*
X5029168Y23444168D01*
X5080000Y25400000D02*
X5029168Y25349168D01*
X5029168Y23444168D02*
X6444998Y22028337D01*
X1905000Y20550000D02*
X4215000Y20550000D01*
X4215000Y20550000D02*
X5080000Y19685000D01*
X5080000Y19685000D02*
X5080000Y17780000D01*
X5080000Y17780000D02*
X7620000Y15240000D01*
X7055999Y14064999D02*
X8984999Y14064999D01*
X6432999Y14687999D02*
X7055999Y14064999D01*
X8984999Y14064999D02*
X10160000Y15240000D01*
X3810000Y17780000D02*
X6432999Y15157001D01*
X6432999Y15157001D02*
X6432999Y14687999D01*
X1905000Y17780000D02*
X3810000Y17780000D01*
X5310000Y15010000D02*
X7620000Y12700000D01*
X1905000Y15010000D02*
X5310000Y15010000D01*
X8984999Y11524999D02*
X10160000Y12700000D01*
X1905000Y12240000D02*
X4905000Y12240000D01*
X4905000Y12240000D02*
X5620001Y11524999D01*
X5620001Y11524999D02*
X8984999Y11524999D01*
X4445000Y10160000D02*
X3755000Y9470000D01*
X7620000Y10160000D02*
X4445000Y10160000D01*
X1905000Y9470000D02*
X3755000Y9470000D01*
X28865000Y21935000D02*
X27940000Y22860000D01*
X33655000Y21935000D02*
X28865000Y21935000D01*
G04 #@! TA.AperFunction,Conductor*
G36*
X31348621Y13411497D02*
G01*
X31395114Y13357841D01*
X31406500Y13305499D01*
X31406500Y12653017D01*
X31413009Y12592470D01*
X31413011Y12592462D01*
X31464110Y12455464D01*
X31464112Y12455459D01*
X31551738Y12338405D01*
X31668792Y12250779D01*
X31668794Y12250778D01*
X31668796Y12250777D01*
X31724498Y12230001D01*
X31805795Y12199678D01*
X31805803Y12199676D01*
X31866350Y12193167D01*
X31866355Y12193167D01*
X31866362Y12193166D01*
X31866368Y12193166D01*
X35180000Y12193166D01*
X35248121Y12173164D01*
X35294614Y12119508D01*
X35306000Y12067166D01*
X35306000Y380000D01*
X35285998Y311879D01*
X35232342Y265386D01*
X35180000Y254000D01*
X380000Y254000D01*
X311879Y274002D01*
X265386Y327658D01*
X254000Y380000D01*
X254000Y2661291D01*
X689500Y2661291D01*
X689500Y2418710D01*
X721160Y2178218D01*
X783944Y1943905D01*
X783945Y1943903D01*
X783946Y1943900D01*
X876776Y1719788D01*
X876777Y1719787D01*
X876782Y1719776D01*
X998061Y1509715D01*
X998063Y1509712D01*
X998064Y1509711D01*
X1145735Y1317262D01*
X1145739Y1317258D01*
X1145744Y1317252D01*
X1317251Y1145745D01*
X1317256Y1145741D01*
X1317262Y1145735D01*
X1509711Y998064D01*
X1509714Y998062D01*
X1719775Y876783D01*
X1719779Y876782D01*
X1719788Y876776D01*
X1943900Y783946D01*
X2178211Y721162D01*
X2178215Y721162D01*
X2178217Y721161D01*
X2240202Y713001D01*
X2418712Y689500D01*
X2418719Y689500D01*
X2661281Y689500D01*
X2661288Y689500D01*
X2878637Y718115D01*
X2901782Y721161D01*
X2901782Y721162D01*
X2901789Y721162D01*
X3136100Y783946D01*
X3360212Y876776D01*
X3570289Y998064D01*
X3762738Y1145735D01*
X3934265Y1317262D01*
X4081936Y1509711D01*
X4203224Y1719788D01*
X4296054Y1943900D01*
X4358838Y2178211D01*
X4390500Y2418712D01*
X4390500Y2661288D01*
X4358838Y2901789D01*
X4296054Y3136100D01*
X4203224Y3360212D01*
X4203218Y3360221D01*
X4203217Y3360225D01*
X4081938Y3570286D01*
X4070163Y3585632D01*
X3934265Y3762738D01*
X3934259Y3762744D01*
X3934255Y3762749D01*
X3762748Y3934256D01*
X3762742Y3934261D01*
X3762738Y3934265D01*
X3570289Y4081936D01*
X3570288Y4081937D01*
X3570285Y4081939D01*
X3360224Y4203218D01*
X3360216Y4203222D01*
X3360212Y4203224D01*
X3136100Y4296054D01*
X3136097Y4296055D01*
X3136095Y4296056D01*
X2901782Y4358840D01*
X2661290Y4390500D01*
X2661288Y4390500D01*
X2418712Y4390500D01*
X2418709Y4390500D01*
X2178217Y4358840D01*
X1943904Y4296056D01*
X1943900Y4296054D01*
X1719786Y4203223D01*
X1719775Y4203218D01*
X1509714Y4081939D01*
X1317262Y3934265D01*
X1317251Y3934256D01*
X1145744Y3762749D01*
X1145735Y3762738D01*
X998061Y3570286D01*
X876782Y3360225D01*
X876777Y3360214D01*
X783946Y3136100D01*
X783944Y3136096D01*
X721160Y2901783D01*
X689500Y2661291D01*
X254000Y2661291D01*
X254000Y6350000D01*
X15146844Y6350000D01*
X15165437Y6125625D01*
X15220702Y5907388D01*
X15220703Y5907387D01*
X15311141Y5701207D01*
X15434275Y5512735D01*
X15434279Y5512730D01*
X15586762Y5347092D01*
X15641331Y5304619D01*
X15764424Y5208811D01*
X15797680Y5190814D01*
X15848071Y5140800D01*
X15863423Y5071484D01*
X15838862Y5004871D01*
X15797680Y4969187D01*
X15764426Y4951190D01*
X15764424Y4951189D01*
X15586762Y4812909D01*
X15434279Y4647271D01*
X15434275Y4647266D01*
X15311141Y4458794D01*
X15220703Y4252614D01*
X15220702Y4252613D01*
X15165437Y4034376D01*
X15165436Y4034370D01*
X15165436Y4034368D01*
X15146844Y3810000D01*
X15165437Y3585625D01*
X15220702Y3367388D01*
X15220703Y3367387D01*
X15220704Y3367384D01*
X15223849Y3360214D01*
X15311141Y3161207D01*
X15434275Y2972735D01*
X15434279Y2972730D01*
X15586762Y2807092D01*
X15641331Y2764619D01*
X15764424Y2668811D01*
X15962426Y2561658D01*
X15962427Y2561658D01*
X15962428Y2561657D01*
X16074227Y2523277D01*
X16175365Y2488556D01*
X16397431Y2451500D01*
X16397435Y2451500D01*
X16622565Y2451500D01*
X16622569Y2451500D01*
X16844635Y2488556D01*
X17057574Y2561658D01*
X17255576Y2668811D01*
X17433240Y2807094D01*
X17585722Y2972732D01*
X17674518Y3108646D01*
X17728520Y3154732D01*
X17798868Y3164308D01*
X17863225Y3134331D01*
X17885480Y3108647D01*
X17918607Y3057942D01*
X17974275Y2972735D01*
X17974279Y2972730D01*
X18126762Y2807092D01*
X18181331Y2764619D01*
X18304424Y2668811D01*
X18502426Y2561658D01*
X18502427Y2561658D01*
X18502428Y2561657D01*
X18614227Y2523277D01*
X18715365Y2488556D01*
X18937431Y2451500D01*
X18937435Y2451500D01*
X19162565Y2451500D01*
X19162569Y2451500D01*
X19384635Y2488556D01*
X19597574Y2561658D01*
X19781680Y2661291D01*
X31169500Y2661291D01*
X31169500Y2418710D01*
X31201160Y2178218D01*
X31263944Y1943905D01*
X31263945Y1943903D01*
X31263946Y1943900D01*
X31356776Y1719788D01*
X31356777Y1719787D01*
X31356782Y1719776D01*
X31478061Y1509715D01*
X31478063Y1509712D01*
X31478064Y1509711D01*
X31625735Y1317262D01*
X31625739Y1317258D01*
X31625744Y1317252D01*
X31797251Y1145745D01*
X31797256Y1145741D01*
X31797262Y1145735D01*
X31989711Y998064D01*
X31989714Y998062D01*
X32199775Y876783D01*
X32199779Y876782D01*
X32199788Y876776D01*
X32423900Y783946D01*
X32658211Y721162D01*
X32658215Y721162D01*
X32658217Y721161D01*
X32720202Y713001D01*
X32898712Y689500D01*
X32898719Y689500D01*
X33141281Y689500D01*
X33141288Y689500D01*
X33358637Y718115D01*
X33381782Y721161D01*
X33381782Y721162D01*
X33381789Y721162D01*
X33616100Y783946D01*
X33840212Y876776D01*
X34050289Y998064D01*
X34242738Y1145735D01*
X34414265Y1317262D01*
X34561936Y1509711D01*
X34683224Y1719788D01*
X34776054Y1943900D01*
X34838838Y2178211D01*
X34870500Y2418712D01*
X34870500Y2661288D01*
X34838838Y2901789D01*
X34776054Y3136100D01*
X34683224Y3360212D01*
X34683218Y3360221D01*
X34683217Y3360225D01*
X34561938Y3570286D01*
X34550163Y3585632D01*
X34414265Y3762738D01*
X34414259Y3762744D01*
X34414255Y3762749D01*
X34242748Y3934256D01*
X34242742Y3934261D01*
X34242738Y3934265D01*
X34050289Y4081936D01*
X34050288Y4081937D01*
X34050285Y4081939D01*
X33840224Y4203218D01*
X33840216Y4203222D01*
X33840212Y4203224D01*
X33616100Y4296054D01*
X33616097Y4296055D01*
X33616095Y4296056D01*
X33381782Y4358840D01*
X33141290Y4390500D01*
X33141288Y4390500D01*
X32898712Y4390500D01*
X32898709Y4390500D01*
X32658217Y4358840D01*
X32423904Y4296056D01*
X32423900Y4296054D01*
X32199786Y4203223D01*
X32199775Y4203218D01*
X31989714Y4081939D01*
X31797262Y3934265D01*
X31797251Y3934256D01*
X31625744Y3762749D01*
X31625735Y3762738D01*
X31478061Y3570286D01*
X31356782Y3360225D01*
X31356777Y3360214D01*
X31263946Y3136100D01*
X31263944Y3136096D01*
X31201160Y2901783D01*
X31169500Y2661291D01*
X19781680Y2661291D01*
X19795576Y2668811D01*
X19973240Y2807094D01*
X20125722Y2972732D01*
X20248860Y3161209D01*
X20339296Y3367384D01*
X20394564Y3585632D01*
X20413156Y3810000D01*
X20394564Y4034368D01*
X20339296Y4252616D01*
X20248860Y4458791D01*
X20242140Y4469076D01*
X20125724Y4647266D01*
X20125720Y4647271D01*
X19973237Y4812909D01*
X19891382Y4876619D01*
X19795576Y4951189D01*
X19762319Y4969187D01*
X19711929Y5019198D01*
X19696576Y5088515D01*
X19721136Y5155128D01*
X19762320Y5190814D01*
X19795576Y5208811D01*
X19973240Y5347094D01*
X20125722Y5512732D01*
X20248860Y5701209D01*
X20339296Y5907384D01*
X20394564Y6125632D01*
X20413156Y6350000D01*
X20394564Y6574368D01*
X20339296Y6792616D01*
X20248860Y6998791D01*
X20242140Y7009076D01*
X20125724Y7187266D01*
X20125720Y7187271D01*
X19973237Y7352909D01*
X19865007Y7437148D01*
X19795576Y7491189D01*
X19762319Y7509187D01*
X19711929Y7559198D01*
X19696576Y7628515D01*
X19721136Y7695128D01*
X19762320Y7730814D01*
X19795576Y7748811D01*
X19973240Y7887094D01*
X20125722Y8052732D01*
X20248860Y8241209D01*
X20339296Y8447384D01*
X20394564Y8665632D01*
X20413156Y8890000D01*
X20394564Y9114368D01*
X20382122Y9163500D01*
X20339297Y9332613D01*
X20339296Y9332614D01*
X20339296Y9332616D01*
X20248860Y9538791D01*
X20160920Y9673394D01*
X20125724Y9727266D01*
X20125720Y9727271D01*
X19973237Y9892909D01*
X19853367Y9986208D01*
X19795576Y10031189D01*
X19597574Y10138342D01*
X19597572Y10138343D01*
X19597571Y10138344D01*
X19384639Y10211443D01*
X19384630Y10211445D01*
X19340476Y10218813D01*
X19162569Y10248500D01*
X18937431Y10248500D01*
X18789211Y10223767D01*
X18715369Y10211445D01*
X18715360Y10211443D01*
X18502428Y10138344D01*
X18502426Y10138342D01*
X18304426Y10031190D01*
X18304424Y10031189D01*
X18126762Y9892909D01*
X18065754Y9826637D01*
X18004901Y9790067D01*
X17933936Y9792202D01*
X17875391Y9832364D01*
X17854999Y9867943D01*
X17810889Y9986203D01*
X17810887Y9986208D01*
X17723261Y10103262D01*
X17606207Y10190888D01*
X17606202Y10190890D01*
X17469204Y10241989D01*
X17469196Y10241991D01*
X17408649Y10248500D01*
X17408638Y10248500D01*
X15611362Y10248500D01*
X15611350Y10248500D01*
X15550803Y10241991D01*
X15550795Y10241989D01*
X15413797Y10190890D01*
X15413792Y10190888D01*
X15296738Y10103262D01*
X15209112Y9986208D01*
X15209110Y9986203D01*
X15158011Y9849205D01*
X15158009Y9849197D01*
X15151500Y9788650D01*
X15151500Y7991351D01*
X15158009Y7930804D01*
X15158011Y7930796D01*
X15209110Y7793798D01*
X15209112Y7793793D01*
X15296738Y7676739D01*
X15413791Y7589114D01*
X15413792Y7589114D01*
X15413796Y7589111D01*
X15528810Y7546213D01*
X15585642Y7503668D01*
X15610453Y7437148D01*
X15595362Y7367774D01*
X15577475Y7342821D01*
X15434280Y7187271D01*
X15434275Y7187266D01*
X15311141Y6998794D01*
X15220703Y6792614D01*
X15220702Y6792613D01*
X15165437Y6574376D01*
X15146844Y6350000D01*
X254000Y6350000D01*
X254000Y7912166D01*
X274002Y7980287D01*
X327658Y8026780D01*
X380000Y8038166D01*
X3693632Y8038166D01*
X3693638Y8038166D01*
X3693645Y8038167D01*
X3693649Y8038167D01*
X3754196Y8044676D01*
X3754199Y8044677D01*
X3754201Y8044677D01*
X3891204Y8095777D01*
X4008261Y8183405D01*
X4051533Y8241209D01*
X4095887Y8300459D01*
X4095887Y8300460D01*
X4095889Y8300462D01*
X4146989Y8437465D01*
X4147792Y8444928D01*
X4153499Y8498017D01*
X4153500Y8498034D01*
X4153500Y8920406D01*
X4173502Y8988527D01*
X4190405Y9009501D01*
X4670499Y9489595D01*
X4732811Y9523621D01*
X4759594Y9526500D01*
X6342962Y9526500D01*
X6411083Y9506498D01*
X6448445Y9469415D01*
X6544275Y9322735D01*
X6544279Y9322730D01*
X6696762Y9157092D01*
X6739543Y9123794D01*
X6751643Y9114376D01*
X6752214Y9113932D01*
X6793685Y9056306D01*
X6797419Y8985408D01*
X6762229Y8923746D01*
X6699288Y8890898D01*
X6674823Y8888500D01*
X6423200Y8888500D01*
X6355079Y8908502D01*
X6329563Y8930190D01*
X6326252Y8933867D01*
X6171752Y9046118D01*
X5997288Y9123794D01*
X5810487Y9163500D01*
X5619513Y9163500D01*
X5432711Y9123794D01*
X5258247Y9046118D01*
X5103744Y8933865D01*
X4975965Y8791952D01*
X4975958Y8791942D01*
X4880476Y8626562D01*
X4880473Y8626555D01*
X4821457Y8444928D01*
X4801496Y8255000D01*
X4821457Y8065073D01*
X4851526Y7972530D01*
X4880473Y7883444D01*
X4880476Y7883439D01*
X4975958Y7718059D01*
X4975965Y7718049D01*
X5103744Y7576136D01*
X5103747Y7576134D01*
X5258248Y7463882D01*
X5432712Y7386206D01*
X5619513Y7346500D01*
X5810487Y7346500D01*
X5997288Y7386206D01*
X6171752Y7463882D01*
X6326253Y7576134D01*
X6329563Y7579810D01*
X6390009Y7617050D01*
X6423200Y7621500D01*
X10056395Y7621500D01*
X10056396Y7621500D01*
X10178787Y7645845D01*
X10294077Y7693600D01*
X10397835Y7762929D01*
X12557071Y9922165D01*
X12626400Y10025923D01*
X12640793Y10060671D01*
X12674155Y10141213D01*
X12698500Y10263604D01*
X12698500Y13210500D01*
X12718502Y13278621D01*
X12772158Y13325114D01*
X12824500Y13336500D01*
X24002892Y13336500D01*
X24071013Y13316498D01*
X24117506Y13262842D01*
X24127610Y13192568D01*
X24118279Y13159886D01*
X24110705Y13142620D01*
X24110702Y13142613D01*
X24055437Y12924376D01*
X24055437Y12924372D01*
X24055436Y12924368D01*
X24036844Y12700000D01*
X24045754Y12592470D01*
X24055437Y12475625D01*
X24110702Y12257388D01*
X24110703Y12257387D01*
X24110704Y12257384D01*
X24141910Y12186242D01*
X24201141Y12051207D01*
X24324275Y11862735D01*
X24324279Y11862730D01*
X24476762Y11697092D01*
X24531331Y11654619D01*
X24654424Y11558811D01*
X24852426Y11451658D01*
X24852427Y11451658D01*
X24852428Y11451657D01*
X24964227Y11413277D01*
X25065365Y11378556D01*
X25287431Y11341500D01*
X25287435Y11341500D01*
X25512565Y11341500D01*
X25512569Y11341500D01*
X25734635Y11378556D01*
X25947574Y11451658D01*
X26145576Y11558811D01*
X26323240Y11697094D01*
X26384245Y11763363D01*
X26445096Y11799933D01*
X26516061Y11797800D01*
X26574606Y11757638D01*
X26595000Y11722059D01*
X26639111Y11603796D01*
X26639112Y11603793D01*
X26726738Y11486739D01*
X26843792Y11399113D01*
X26843794Y11399112D01*
X26843796Y11399111D01*
X26898900Y11378558D01*
X26980795Y11348012D01*
X26980803Y11348010D01*
X27041350Y11341501D01*
X27041355Y11341501D01*
X27041362Y11341500D01*
X27041368Y11341500D01*
X28838632Y11341500D01*
X28838638Y11341500D01*
X28838645Y11341501D01*
X28838649Y11341501D01*
X28899196Y11348010D01*
X28899199Y11348011D01*
X28899201Y11348011D01*
X29036204Y11399111D01*
X29088842Y11438515D01*
X29153261Y11486739D01*
X29240887Y11603793D01*
X29240887Y11603794D01*
X29240889Y11603796D01*
X29291989Y11740799D01*
X29293247Y11752493D01*
X29298499Y11801351D01*
X29298500Y11801368D01*
X29298500Y13305499D01*
X29318502Y13373620D01*
X29372158Y13420113D01*
X29424500Y13431499D01*
X31280500Y13431499D01*
X31348621Y13411497D01*
G37*
G04 #@! TD.AperFunction*
G04 #@! TA.AperFunction,Conductor*
G36*
X30233527Y19666498D02*
G01*
X30254501Y19649595D01*
X30444595Y19459501D01*
X30478621Y19397189D01*
X30481500Y19370406D01*
X30481500Y17007394D01*
X30481500Y16882606D01*
X30505845Y16760215D01*
X30553600Y16644925D01*
X30622929Y16541167D01*
X31172929Y15991167D01*
X31261167Y15902929D01*
X31350503Y15843237D01*
X31396029Y15788762D01*
X31406500Y15738473D01*
X31406500Y15423017D01*
X31413009Y15362470D01*
X31413011Y15362462D01*
X31464110Y15225464D01*
X31464112Y15225459D01*
X31551740Y15108403D01*
X31558111Y15102032D01*
X31556368Y15100290D01*
X31590997Y15054027D01*
X31596058Y14983211D01*
X31562030Y14920900D01*
X31554634Y14914492D01*
X31551740Y14911598D01*
X31464112Y14794542D01*
X31464111Y14794539D01*
X31458862Y14780465D01*
X31416315Y14723630D01*
X31349794Y14698820D01*
X31340807Y14698499D01*
X29366140Y14698499D01*
X29298019Y14718501D01*
X29251526Y14772157D01*
X29241422Y14842431D01*
X29243996Y14855430D01*
X29284562Y15015625D01*
X29284564Y15015632D01*
X29303156Y15240000D01*
X29284564Y15464368D01*
X29239120Y15643821D01*
X29229297Y15682613D01*
X29229296Y15682614D01*
X29229296Y15682616D01*
X29138860Y15888791D01*
X29129621Y15902932D01*
X29015724Y16077266D01*
X29015720Y16077271D01*
X28863237Y16242909D01*
X28757493Y16325213D01*
X28685576Y16381189D01*
X28651792Y16399472D01*
X28601402Y16449484D01*
X28586050Y16518801D01*
X28610610Y16585414D01*
X28651793Y16621099D01*
X28685300Y16639233D01*
X28685301Y16639233D01*
X28862902Y16777466D01*
X29015325Y16943042D01*
X29138419Y17131452D01*
X29228820Y17337544D01*
X29228823Y17337551D01*
X29276544Y17526000D01*
X28370703Y17526000D01*
X28405925Y17587007D01*
X28440000Y17714174D01*
X28440000Y17845826D01*
X28405925Y17972993D01*
X28370703Y18034000D01*
X29276544Y18034000D01*
X29276544Y18034001D01*
X29228823Y18222450D01*
X29228820Y18222457D01*
X29138419Y18428549D01*
X29015325Y18616959D01*
X28862902Y18782535D01*
X28685301Y18920768D01*
X28685300Y18920769D01*
X28651791Y18938903D01*
X28601401Y18988917D01*
X28586050Y19058234D01*
X28610612Y19124847D01*
X28651790Y19160528D01*
X28685576Y19178811D01*
X28863240Y19317094D01*
X29015722Y19482732D01*
X29059449Y19549661D01*
X29111555Y19629415D01*
X29165558Y19675504D01*
X29217038Y19686500D01*
X30165406Y19686500D01*
X30233527Y19666498D01*
G37*
G04 #@! TD.AperFunction*
G04 #@! TA.AperFunction,Conductor*
G36*
X21162012Y17311630D02*
G01*
X21168595Y17305501D01*
X21186167Y17287929D01*
X21289925Y17218600D01*
X21405215Y17170845D01*
X21527606Y17146500D01*
X24122962Y17146500D01*
X24191083Y17126498D01*
X24228445Y17089415D01*
X24324275Y16942735D01*
X24324279Y16942730D01*
X24476762Y16777092D01*
X24498446Y16760215D01*
X24654424Y16638811D01*
X24687153Y16621099D01*
X24687680Y16620814D01*
X24738071Y16570800D01*
X24753423Y16501484D01*
X24728862Y16434871D01*
X24687680Y16399187D01*
X24654426Y16381190D01*
X24654424Y16381189D01*
X24476762Y16242909D01*
X24324279Y16077271D01*
X24324275Y16077266D01*
X24228445Y15930585D01*
X24174442Y15884496D01*
X24122962Y15873500D01*
X20883594Y15873500D01*
X20815473Y15893502D01*
X20768980Y15947158D01*
X20758876Y16017432D01*
X20788370Y16082012D01*
X20794499Y16088595D01*
X20812071Y16106167D01*
X20881400Y16209925D01*
X20929155Y16325215D01*
X20953500Y16447606D01*
X20953500Y16572394D01*
X20953500Y17216406D01*
X20973502Y17284527D01*
X21027158Y17331020D01*
X21097432Y17341124D01*
X21162012Y17311630D01*
G37*
G04 #@! TD.AperFunction*
G04 #@! TA.AperFunction,Conductor*
G36*
X15710213Y25570788D02*
G01*
X15715498Y25566892D01*
X15764424Y25528811D01*
X15962426Y25421658D01*
X15962427Y25421658D01*
X15962428Y25421657D01*
X16045671Y25393080D01*
X16175365Y25348556D01*
X16397431Y25311500D01*
X16397435Y25311500D01*
X16622565Y25311500D01*
X16622569Y25311500D01*
X16844635Y25348556D01*
X16844651Y25348562D01*
X16847751Y25349346D01*
X16849072Y25349297D01*
X16849777Y25349414D01*
X16849801Y25349270D01*
X16918698Y25346689D01*
X16967795Y25316301D01*
X22367929Y19916167D01*
X22666069Y19618026D01*
X22700094Y19555714D01*
X22695029Y19484898D01*
X22686093Y19465932D01*
X22660472Y19421556D01*
X22660470Y19421551D01*
X22601457Y19239929D01*
X22581496Y19050000D01*
X22601457Y18860073D01*
X22631526Y18767530D01*
X22660473Y18678444D01*
X22660476Y18678439D01*
X22704319Y18602500D01*
X22721057Y18533504D01*
X22697836Y18466413D01*
X22642029Y18422526D01*
X22595200Y18413500D01*
X21904594Y18413500D01*
X21836473Y18433502D01*
X21815499Y18450405D01*
X20399866Y19866038D01*
X20365840Y19928350D01*
X20366816Y19986063D01*
X20394564Y20095632D01*
X20413156Y20320000D01*
X20394564Y20544368D01*
X20339296Y20762616D01*
X20248860Y20968791D01*
X20155690Y21111399D01*
X20125724Y21157266D01*
X20125720Y21157271D01*
X19985581Y21309500D01*
X19973240Y21322906D01*
X19973239Y21322907D01*
X19973237Y21322909D01*
X19853367Y21416208D01*
X19795576Y21461189D01*
X19597574Y21568342D01*
X19597572Y21568343D01*
X19597571Y21568344D01*
X19384639Y21641443D01*
X19384630Y21641445D01*
X19328567Y21650800D01*
X19162569Y21678500D01*
X18937431Y21678500D01*
X18789211Y21653767D01*
X18715369Y21641445D01*
X18715360Y21641443D01*
X18502428Y21568344D01*
X18502426Y21568342D01*
X18304432Y21461193D01*
X18304426Y21461190D01*
X18304424Y21461189D01*
X18126762Y21322909D01*
X18065754Y21256637D01*
X18004901Y21220067D01*
X17933936Y21222202D01*
X17875391Y21262364D01*
X17854999Y21297943D01*
X17810889Y21416203D01*
X17810887Y21416208D01*
X17723261Y21533262D01*
X17606207Y21620888D01*
X17606202Y21620890D01*
X17469204Y21671989D01*
X17469196Y21671991D01*
X17408649Y21678500D01*
X17408638Y21678500D01*
X15611362Y21678500D01*
X15611350Y21678500D01*
X15550803Y21671991D01*
X15550795Y21671989D01*
X15413797Y21620890D01*
X15413792Y21620888D01*
X15296738Y21533262D01*
X15209112Y21416208D01*
X15209110Y21416203D01*
X15158011Y21279205D01*
X15158009Y21279197D01*
X15151500Y21218650D01*
X15151500Y20338595D01*
X15131498Y20270474D01*
X15077842Y20223981D01*
X15007568Y20213877D01*
X14942988Y20243371D01*
X14936405Y20249500D01*
X11904499Y23281405D01*
X11870473Y23343717D01*
X11875538Y23414532D01*
X11918085Y23471368D01*
X11984605Y23496179D01*
X11993594Y23496500D01*
X12626800Y23496500D01*
X12694921Y23476498D01*
X12720437Y23454810D01*
X12723747Y23451134D01*
X12878248Y23338882D01*
X13052712Y23261206D01*
X13239513Y23221500D01*
X13430487Y23221500D01*
X13617288Y23261206D01*
X13791752Y23338882D01*
X13946253Y23451134D01*
X13983800Y23492834D01*
X14074034Y23593049D01*
X14074035Y23593051D01*
X14074040Y23593056D01*
X14169527Y23758444D01*
X14228542Y23940072D01*
X14248504Y24130000D01*
X14228542Y24319928D01*
X14215254Y24360824D01*
X14213226Y24431792D01*
X14249888Y24492590D01*
X14313601Y24523915D01*
X14361285Y24523007D01*
X14509509Y24491500D01*
X14509513Y24491500D01*
X14700487Y24491500D01*
X14887288Y24531206D01*
X15061752Y24608882D01*
X15216253Y24721134D01*
X15243333Y24751209D01*
X15344034Y24863049D01*
X15344035Y24863051D01*
X15344040Y24863056D01*
X15439527Y25028444D01*
X15498542Y25210072D01*
X15518504Y25400000D01*
X15512797Y25454293D01*
X15525569Y25524127D01*
X15574070Y25575974D01*
X15642903Y25593369D01*
X15710213Y25570788D01*
G37*
G04 #@! TD.AperFunction*
G04 #@! TA.AperFunction,Conductor*
G36*
X11343616Y22031181D02*
G01*
X11393594Y22000502D01*
X13495500Y19898595D01*
X13529526Y19836283D01*
X13524461Y19765467D01*
X13481914Y19708632D01*
X13415394Y19683821D01*
X13406405Y19683500D01*
X11557108Y19683500D01*
X11488987Y19703502D01*
X11442494Y19757158D01*
X11432390Y19827432D01*
X11441721Y19860114D01*
X11444319Y19866038D01*
X11449296Y19877384D01*
X11504564Y20095632D01*
X11523156Y20320000D01*
X11504564Y20544368D01*
X11449296Y20762616D01*
X11358860Y20968791D01*
X11265690Y21111399D01*
X11235724Y21157266D01*
X11235720Y21157271D01*
X11095581Y21309500D01*
X11083240Y21322906D01*
X11083239Y21322907D01*
X11083237Y21322909D01*
X10963367Y21416208D01*
X10905576Y21461189D01*
X10872319Y21479187D01*
X10821929Y21529198D01*
X10806576Y21598515D01*
X10831136Y21665128D01*
X10872320Y21700814D01*
X10905576Y21718811D01*
X11083240Y21857094D01*
X11211800Y21996747D01*
X11272651Y22033316D01*
X11343616Y22031181D01*
G37*
G04 #@! TD.AperFunction*
G04 #@! TA.AperFunction,Conductor*
G36*
X8973225Y22184331D02*
G01*
X8995480Y22158647D01*
X9000828Y22150462D01*
X9084275Y22022735D01*
X9084279Y22022730D01*
X9236762Y21857092D01*
X9252667Y21844713D01*
X9414424Y21718811D01*
X9447680Y21700814D01*
X9498071Y21650800D01*
X9513423Y21581484D01*
X9488862Y21514871D01*
X9447680Y21479187D01*
X9414426Y21461190D01*
X9414424Y21461189D01*
X9236762Y21322909D01*
X9084279Y21157271D01*
X8995183Y21020899D01*
X8941179Y20974811D01*
X8870831Y20965236D01*
X8806474Y20995214D01*
X8784217Y21020900D01*
X8695327Y21156956D01*
X8542902Y21322535D01*
X8365301Y21460768D01*
X8365300Y21460769D01*
X8331791Y21478903D01*
X8281401Y21528917D01*
X8266050Y21598234D01*
X8290612Y21664847D01*
X8331790Y21700528D01*
X8365576Y21718811D01*
X8543240Y21857094D01*
X8695722Y22022732D01*
X8784518Y22158646D01*
X8838520Y22204732D01*
X8908868Y22214308D01*
X8973225Y22184331D01*
G37*
G04 #@! TD.AperFunction*
G04 #@! TA.AperFunction,Conductor*
G36*
X35248121Y35285998D02*
G01*
X35294614Y35232342D01*
X35306000Y35180000D01*
X35306000Y23492834D01*
X35285998Y23424713D01*
X35232342Y23378220D01*
X35180000Y23366834D01*
X31866350Y23366834D01*
X31805803Y23360325D01*
X31805795Y23360323D01*
X31668797Y23309224D01*
X31668792Y23309222D01*
X31551738Y23221596D01*
X31464112Y23104542D01*
X31464110Y23104537D01*
X31413011Y22967539D01*
X31413009Y22967531D01*
X31406500Y22906984D01*
X31406500Y22694500D01*
X31386498Y22626379D01*
X31332842Y22579886D01*
X31280500Y22568500D01*
X29415874Y22568500D01*
X29347753Y22588502D01*
X29301260Y22642158D01*
X29290304Y22704905D01*
X29303156Y22860000D01*
X29284564Y23084368D01*
X29251780Y23213829D01*
X29229297Y23302613D01*
X29229296Y23302614D01*
X29229296Y23302616D01*
X29138860Y23508791D01*
X29132140Y23519076D01*
X29015724Y23697266D01*
X29015720Y23697271D01*
X28863237Y23862909D01*
X28764097Y23940073D01*
X28685576Y24001189D01*
X28487574Y24108342D01*
X28487572Y24108343D01*
X28487571Y24108344D01*
X28274639Y24181443D01*
X28274630Y24181445D01*
X28218567Y24190800D01*
X28052569Y24218500D01*
X27827431Y24218500D01*
X27679211Y24193767D01*
X27605369Y24181445D01*
X27605360Y24181443D01*
X27392428Y24108344D01*
X27392426Y24108342D01*
X27194426Y24001190D01*
X27194424Y24001189D01*
X27016762Y23862909D01*
X26864279Y23697271D01*
X26775483Y23561357D01*
X26721479Y23515269D01*
X26651131Y23505694D01*
X26586774Y23535671D01*
X26564517Y23561357D01*
X26475720Y23697271D01*
X26323237Y23862909D01*
X26224097Y23940073D01*
X26145576Y24001189D01*
X25947574Y24108342D01*
X25947572Y24108343D01*
X25947571Y24108344D01*
X25734639Y24181443D01*
X25734630Y24181445D01*
X25678567Y24190800D01*
X25512569Y24218500D01*
X25287431Y24218500D01*
X25139211Y24193767D01*
X25065369Y24181445D01*
X25065360Y24181443D01*
X24852428Y24108344D01*
X24852426Y24108342D01*
X24654426Y24001190D01*
X24654424Y24001189D01*
X24476762Y23862909D01*
X24324279Y23697271D01*
X24324275Y23697266D01*
X24201141Y23508794D01*
X24110703Y23302614D01*
X24110702Y23302613D01*
X24055437Y23084376D01*
X24055436Y23084370D01*
X24055436Y23084368D01*
X24042123Y22923710D01*
X24037794Y22871464D01*
X24012234Y22805228D01*
X23954922Y22763325D01*
X23884054Y22759059D01*
X23823129Y22792775D01*
X23807122Y22808782D01*
X23773096Y22871094D01*
X23770907Y22884707D01*
X23753542Y23049928D01*
X23743253Y23081594D01*
X23694527Y23231556D01*
X23599040Y23396944D01*
X23599038Y23396946D01*
X23599034Y23396952D01*
X23471255Y23538865D01*
X23316752Y23651118D01*
X23142288Y23728794D01*
X22955487Y23768500D01*
X22764513Y23768500D01*
X22577711Y23728794D01*
X22403247Y23651118D01*
X22248744Y23538865D01*
X22120965Y23396952D01*
X22120958Y23396942D01*
X22025476Y23231562D01*
X22025473Y23231556D01*
X22019713Y23213829D01*
X21995789Y23140199D01*
X21955715Y23081594D01*
X21890318Y23053957D01*
X21820361Y23066064D01*
X21786861Y23090041D01*
X19720405Y25156497D01*
X19686379Y25218809D01*
X19683500Y25245592D01*
X19683500Y25393080D01*
X19703502Y25461201D01*
X19749527Y25503892D01*
X19795576Y25528811D01*
X19973240Y25667094D01*
X20125722Y25832732D01*
X20248860Y26021209D01*
X20339296Y26227384D01*
X20394564Y26445632D01*
X20413156Y26670000D01*
X20394564Y26894368D01*
X20366817Y27003938D01*
X20369484Y27074882D01*
X20399864Y27123962D01*
X20717072Y27441168D01*
X20786401Y27544926D01*
X20834156Y27660216D01*
X20858501Y27782607D01*
X20858501Y27907394D01*
X20858501Y29836395D01*
X20834156Y29958786D01*
X20786401Y30074076D01*
X20717072Y30177834D01*
X20628834Y30266072D01*
X20141349Y30753557D01*
X20107323Y30815869D01*
X20112388Y30886684D01*
X20124961Y30911567D01*
X20144705Y30941789D01*
X20248860Y31101209D01*
X20339296Y31307384D01*
X20394564Y31525632D01*
X20413156Y31750000D01*
X20394564Y31974368D01*
X20339296Y32192616D01*
X20248860Y32398791D01*
X20242140Y32409076D01*
X20125724Y32587266D01*
X20125720Y32587271D01*
X19973237Y32752909D01*
X19853367Y32846208D01*
X19795576Y32891189D01*
X19597574Y32998342D01*
X19597572Y32998343D01*
X19597571Y32998344D01*
X19384639Y33071443D01*
X19384630Y33071445D01*
X19340476Y33078813D01*
X19162569Y33108500D01*
X18937431Y33108500D01*
X18789211Y33083767D01*
X18715369Y33071445D01*
X18715360Y33071443D01*
X18502428Y32998344D01*
X18502426Y32998342D01*
X18304426Y32891190D01*
X18304424Y32891189D01*
X18126762Y32752909D01*
X18065754Y32686637D01*
X18004901Y32650067D01*
X17933936Y32652202D01*
X17875391Y32692364D01*
X17854999Y32727943D01*
X17810889Y32846203D01*
X17810887Y32846208D01*
X17723261Y32963262D01*
X17606207Y33050888D01*
X17606202Y33050890D01*
X17469204Y33101989D01*
X17469196Y33101991D01*
X17408649Y33108500D01*
X17408638Y33108500D01*
X15611362Y33108500D01*
X15611350Y33108500D01*
X15550803Y33101991D01*
X15550795Y33101989D01*
X15413797Y33050890D01*
X15413792Y33050888D01*
X15296738Y32963262D01*
X15209112Y32846208D01*
X15209110Y32846203D01*
X15158011Y32709205D01*
X15158009Y32709197D01*
X15151500Y32648650D01*
X15151500Y30851351D01*
X15158009Y30790804D01*
X15158011Y30790796D01*
X15209110Y30653798D01*
X15209112Y30653793D01*
X15296738Y30536739D01*
X15413791Y30449114D01*
X15413792Y30449114D01*
X15413796Y30449111D01*
X15528810Y30406213D01*
X15585642Y30363668D01*
X15610453Y30297148D01*
X15595362Y30227774D01*
X15577475Y30202821D01*
X15434280Y30047271D01*
X15434275Y30047266D01*
X15311141Y29858794D01*
X15220703Y29652614D01*
X15220702Y29652613D01*
X15165437Y29434376D01*
X15165436Y29434370D01*
X15165436Y29434368D01*
X15154136Y29298000D01*
X15146844Y29210000D01*
X15165436Y28985629D01*
X15193182Y28876063D01*
X15190514Y28805117D01*
X15160133Y28756038D01*
X14836170Y28432075D01*
X14379500Y27975405D01*
X14317188Y27941379D01*
X14290405Y27938500D01*
X11639271Y27938500D01*
X11571150Y27958502D01*
X11524657Y28012158D01*
X11513701Y28054092D01*
X11504564Y28164368D01*
X11449296Y28382616D01*
X11358860Y28588791D01*
X11352140Y28599076D01*
X11235724Y28777266D01*
X11235720Y28777271D01*
X11083237Y28942909D01*
X10963679Y29035965D01*
X10905576Y29081189D01*
X10707574Y29188342D01*
X10707572Y29188343D01*
X10707571Y29188344D01*
X10494639Y29261443D01*
X10494630Y29261445D01*
X10450476Y29268813D01*
X10272569Y29298500D01*
X10047431Y29298500D01*
X9899211Y29273767D01*
X9825369Y29261445D01*
X9825360Y29261443D01*
X9612428Y29188344D01*
X9612426Y29188342D01*
X9414426Y29081190D01*
X9414424Y29081189D01*
X9236759Y28942906D01*
X9175374Y28876225D01*
X9114521Y28839654D01*
X9043557Y28841789D01*
X8985012Y28881951D01*
X8964618Y28917530D01*
X8920443Y29035967D01*
X8832904Y29152905D01*
X8715965Y29240445D01*
X8579093Y29291495D01*
X8518597Y29298000D01*
X7874000Y29298000D01*
X7874000Y28370703D01*
X7812993Y28405925D01*
X7685826Y28440000D01*
X7554174Y28440000D01*
X7427007Y28405925D01*
X7366000Y28370703D01*
X7366000Y29298000D01*
X6721402Y29298000D01*
X6660906Y29291495D01*
X6524035Y29240445D01*
X6524034Y29240445D01*
X6407095Y29152905D01*
X6319555Y29035966D01*
X6319555Y29035965D01*
X6268505Y28899094D01*
X6262000Y28838598D01*
X6262000Y28194000D01*
X7189297Y28194000D01*
X7154075Y28132993D01*
X7120000Y28005826D01*
X7120000Y27874174D01*
X7154075Y27747007D01*
X7189297Y27686000D01*
X6262000Y27686000D01*
X6262000Y27041403D01*
X6268505Y26980907D01*
X6319555Y26844036D01*
X6319555Y26844035D01*
X6407095Y26727096D01*
X6524034Y26639556D01*
X6639172Y26596612D01*
X6696008Y26554065D01*
X6720819Y26487545D01*
X6705728Y26418171D01*
X6687841Y26393218D01*
X6544280Y26237271D01*
X6544275Y26237266D01*
X6421141Y26048794D01*
X6330703Y25842614D01*
X6330702Y25842613D01*
X6275437Y25624376D01*
X6275436Y25624370D01*
X6275436Y25624368D01*
X6256844Y25400000D01*
X6272582Y25210072D01*
X6275437Y25175625D01*
X6330702Y24957388D01*
X6330703Y24957387D01*
X6330704Y24957384D01*
X6372080Y24863056D01*
X6421141Y24751207D01*
X6544275Y24562735D01*
X6544279Y24562730D01*
X6696762Y24397092D01*
X6743359Y24360824D01*
X6874424Y24258811D01*
X6907680Y24240814D01*
X6958071Y24190800D01*
X6973423Y24121484D01*
X6948862Y24054871D01*
X6907680Y24019186D01*
X6874426Y24001190D01*
X6874424Y24001189D01*
X6696762Y23862909D01*
X6544279Y23697271D01*
X6544275Y23697266D01*
X6421141Y23508794D01*
X6330703Y23302614D01*
X6329013Y23297690D01*
X6326818Y23298444D01*
X6295624Y23245698D01*
X6232182Y23213829D01*
X6161581Y23221318D01*
X6120540Y23248700D01*
X5699573Y23669667D01*
X5665547Y23731979D01*
X5662668Y23758762D01*
X5662668Y25126209D01*
X5672260Y25174428D01*
X5678059Y25188428D01*
X5689155Y25215215D01*
X5713500Y25337606D01*
X5713500Y25462393D01*
X5691937Y25570801D01*
X5691937Y25570803D01*
X5691937Y25570804D01*
X5689156Y25584780D01*
X5689156Y25584781D01*
X5689155Y25584782D01*
X5689155Y25584785D01*
X5641400Y25700075D01*
X5572071Y25803833D01*
X4793833Y26582071D01*
X4690075Y26651400D01*
X4574785Y26699155D01*
X4501086Y26713815D01*
X4452396Y26723500D01*
X4452394Y26723500D01*
X4279500Y26723500D01*
X4211379Y26743502D01*
X4164886Y26797158D01*
X4153500Y26849500D01*
X4153500Y27061967D01*
X4153499Y27061984D01*
X4146990Y27122531D01*
X4146988Y27122539D01*
X4095889Y27259537D01*
X4095887Y27259542D01*
X4008261Y27376596D01*
X3891207Y27464222D01*
X3891202Y27464224D01*
X3754204Y27515323D01*
X3754196Y27515325D01*
X3693649Y27521834D01*
X3693638Y27521834D01*
X380000Y27521834D01*
X311879Y27541836D01*
X265386Y27595492D01*
X254000Y27647834D01*
X254000Y33141291D01*
X689500Y33141291D01*
X689500Y32898710D01*
X721160Y32658218D01*
X783944Y32423905D01*
X783945Y32423903D01*
X783946Y32423900D01*
X876776Y32199788D01*
X876777Y32199787D01*
X876782Y32199776D01*
X998061Y31989715D01*
X998063Y31989712D01*
X998064Y31989711D01*
X1145735Y31797262D01*
X1145739Y31797258D01*
X1145744Y31797252D01*
X1317251Y31625745D01*
X1317256Y31625741D01*
X1317262Y31625735D01*
X1509711Y31478064D01*
X1509714Y31478062D01*
X1719775Y31356783D01*
X1719779Y31356782D01*
X1719788Y31356776D01*
X1943900Y31263946D01*
X2178211Y31201162D01*
X2178215Y31201162D01*
X2178217Y31201161D01*
X2240202Y31193001D01*
X2418712Y31169500D01*
X2418719Y31169500D01*
X2661281Y31169500D01*
X2661288Y31169500D01*
X2878637Y31198115D01*
X2901782Y31201161D01*
X2901782Y31201162D01*
X2901789Y31201162D01*
X3136100Y31263946D01*
X3360212Y31356776D01*
X3570289Y31478064D01*
X3762738Y31625735D01*
X3934265Y31797262D01*
X4081936Y31989711D01*
X4203224Y32199788D01*
X4296054Y32423900D01*
X4358838Y32658211D01*
X4390500Y32898712D01*
X4390500Y33141288D01*
X4390500Y33141291D01*
X31169500Y33141291D01*
X31169500Y32898710D01*
X31201160Y32658218D01*
X31263944Y32423905D01*
X31263945Y32423903D01*
X31263946Y32423900D01*
X31356776Y32199788D01*
X31356777Y32199787D01*
X31356782Y32199776D01*
X31478061Y31989715D01*
X31478063Y31989712D01*
X31478064Y31989711D01*
X31625735Y31797262D01*
X31625739Y31797258D01*
X31625744Y31797252D01*
X31797251Y31625745D01*
X31797256Y31625741D01*
X31797262Y31625735D01*
X31989711Y31478064D01*
X31989714Y31478062D01*
X32199775Y31356783D01*
X32199779Y31356782D01*
X32199788Y31356776D01*
X32423900Y31263946D01*
X32658211Y31201162D01*
X32658215Y31201162D01*
X32658217Y31201161D01*
X32720202Y31193001D01*
X32898712Y31169500D01*
X32898719Y31169500D01*
X33141281Y31169500D01*
X33141288Y31169500D01*
X33358637Y31198115D01*
X33381782Y31201161D01*
X33381782Y31201162D01*
X33381789Y31201162D01*
X33616100Y31263946D01*
X33840212Y31356776D01*
X34050289Y31478064D01*
X34242738Y31625735D01*
X34414265Y31797262D01*
X34561936Y31989711D01*
X34683224Y32199788D01*
X34776054Y32423900D01*
X34838838Y32658211D01*
X34870500Y32898712D01*
X34870500Y33141288D01*
X34838838Y33381789D01*
X34776054Y33616100D01*
X34683224Y33840212D01*
X34683218Y33840221D01*
X34683217Y33840225D01*
X34561938Y34050286D01*
X34561936Y34050289D01*
X34414265Y34242738D01*
X34414259Y34242744D01*
X34414255Y34242749D01*
X34242748Y34414256D01*
X34242742Y34414261D01*
X34242738Y34414265D01*
X34050289Y34561936D01*
X34050288Y34561937D01*
X34050285Y34561939D01*
X33840224Y34683218D01*
X33840216Y34683222D01*
X33840212Y34683224D01*
X33616100Y34776054D01*
X33616097Y34776055D01*
X33616095Y34776056D01*
X33381782Y34838840D01*
X33141290Y34870500D01*
X33141288Y34870500D01*
X32898712Y34870500D01*
X32898709Y34870500D01*
X32658217Y34838840D01*
X32423904Y34776056D01*
X32423900Y34776054D01*
X32199786Y34683223D01*
X32199775Y34683218D01*
X31989714Y34561939D01*
X31797262Y34414265D01*
X31797251Y34414256D01*
X31625744Y34242749D01*
X31625735Y34242738D01*
X31478061Y34050286D01*
X31356782Y33840225D01*
X31356777Y33840214D01*
X31263946Y33616100D01*
X31263944Y33616096D01*
X31201160Y33381783D01*
X31169500Y33141291D01*
X4390500Y33141291D01*
X4358838Y33381789D01*
X4296054Y33616100D01*
X4203224Y33840212D01*
X4203218Y33840221D01*
X4203217Y33840225D01*
X4081938Y34050286D01*
X4081936Y34050289D01*
X3934265Y34242738D01*
X3934259Y34242744D01*
X3934255Y34242749D01*
X3762748Y34414256D01*
X3762742Y34414261D01*
X3762738Y34414265D01*
X3570289Y34561936D01*
X3570288Y34561937D01*
X3570285Y34561939D01*
X3360224Y34683218D01*
X3360216Y34683222D01*
X3360212Y34683224D01*
X3136100Y34776054D01*
X3136097Y34776055D01*
X3136095Y34776056D01*
X2901782Y34838840D01*
X2661290Y34870500D01*
X2661288Y34870500D01*
X2418712Y34870500D01*
X2418709Y34870500D01*
X2178217Y34838840D01*
X1943904Y34776056D01*
X1943900Y34776054D01*
X1719786Y34683223D01*
X1719775Y34683218D01*
X1509714Y34561939D01*
X1317262Y34414265D01*
X1317251Y34414256D01*
X1145744Y34242749D01*
X1145735Y34242738D01*
X998061Y34050286D01*
X876782Y33840225D01*
X876777Y33840214D01*
X783946Y33616100D01*
X783944Y33616096D01*
X721160Y33381783D01*
X689500Y33141291D01*
X254000Y33141291D01*
X254000Y35180000D01*
X274002Y35248121D01*
X327658Y35294614D01*
X380000Y35306000D01*
X35180000Y35306000D01*
X35248121Y35285998D01*
G37*
G04 #@! TD.AperFunction*
M02*
